<svg xmlns="http://www.w3.org/2000/svg" viewBox="0 0 3000 3000" width="3000" height="3000"><g transform="translate(517.1999999999999 271.2) rotate(8.331055045216013 268.8 270.6) scale(1.1042778441932979 1.1048798861638907)"><svg width="486.834" height="489.827" viewBox="0 0 486.834 489.827"><path d="M25.441 197.198 256.443 14.361c9.393-7.434 20.107-11.317 30.871-11.896l25.823-1.389c-10.763.579-21.479 4.463-30.871 11.896L51.263 195.809c-26.37 20.872-32.331 61.83-13.317 91.52l110.273 172.19c12.245 19.121 31.855 28.89 51.309 27.844l-25.823 1.388c-19.453 1.047-39.063-8.722-51.309-27.843L12.124 288.718c-19.015-29.69-13.054-70.648 13.317-91.52z" fill="#b0c3ff"/><path d="M170.808 489.83c-19.527 0-37.77-10.45-49.254-28.383L11.281 289.257c-19.247-30.052-13.173-71.702 13.539-92.844l.621.784-.621-.784L255.822 13.577c9.241-7.313 20.112-11.501 31.438-12.11l25.823-1.39a1.001 1.001 0 0 1 .107 1.998h-.011c-10.907.589-21.382 4.628-30.293 11.682L51.883 196.593c-25.928 20.522-31.803 60.984-13.095 90.196l110.273 172.19c11.664 18.214 30.499 28.457 50.406 27.385h.007c.566-.062 1.022.394 1.052.944a1 1 0 0 1-.945 1.052l-25.823 1.39c-.985.053-1.97.08-2.95.08zM298.692 2.854l-11.325.61c-10.911.587-21.39 4.626-30.304 11.681L26.061 197.982c-25.93 20.522-31.804 60.984-13.095 90.197l110.272 172.189c11.667 18.218 30.519 28.467 50.413 27.384l11.191-.602c-14.93-3.304-28.333-12.832-37.466-27.093L37.103 287.868c-19.246-30.052-13.172-71.7 13.539-92.843L281.645 12.188c5.231-4.141 10.985-7.279 17.047-9.334z" fill="#111"/><path d="M51.264 195.809c-26.371 20.872-32.332 61.83-13.318 91.52l110.273 172.19c19.012 29.688 55.775 36.829 82.147 15.956l146.462-115.924 58.075 27.738-4.574-70.084 31.039-24.566c26.371-20.872 32.37-61.859 13.357-91.548L364.452 28.901C345.439-.789 308.637-7.9 282.266 12.973z" fill="#fff"/><path d="M196.728 488.444a54.42 54.42 0 0 1-8.984-.751c-16.375-2.741-30.71-12.555-40.367-27.635L37.104 287.869c-19.246-30.053-13.172-71.702 13.54-92.844l.621.784-.621-.784L281.645 12.189c12.568-9.947 27.943-14.01 43.29-11.442 16.377 2.741 30.71 12.548 40.359 27.615l110.273 172.19c19.245 30.052 13.154 71.713-13.579 92.871l-30.627 24.241 4.54 69.56c.023.354-.144.694-.438.894a.998.998 0 0 1-.992.074l-57.512-27.47-145.973 115.537c-10.098 7.994-22.009 12.184-34.258 12.185zM315.945 1.996c-11.817 0-23.31 4.046-33.059 11.762L51.884 196.593c-25.929 20.522-31.804 60.984-13.096 90.197l110.273 172.19c9.348 14.598 23.203 24.094 39.013 26.74 14.764 2.472 29.563-1.444 41.671-11.029l146.462-115.924c.3-.236.708-.281 1.052-.118l56.535 27.003-4.463-68.381c-.021-.328.12-.646.377-.85l31.039-24.566c25.95-20.539 31.842-61.013 13.135-90.225L363.609 29.44c-9.34-14.585-23.192-24.074-39.005-26.721a52.421 52.421 0 0 0-8.659-.723z" fill="#111"/></svg></g><g transform="translate(763.1999999999999 327.59999999999997) rotate(0.0 781.2 1092.6) scale(1.208656468176456 1.2084812688721505)"><svg width="1292.675" height="1808.22" viewBox="0 0 1292.675 1808.22"><linearGradient id="a"><stop offset="0" stop-color="#3658c1"/><stop offset=".252" stop-color="#b0c3ff"/><stop offset="1" stop-color="#3658c1"/></linearGradient><linearGradient xmlns:xlink="http://www.w3.org/1999/xlink" id="b" gradientUnits="userSpaceOnUse" x1="293.252" x2="1290.838" xlink:href="#a" y1="253.516" y2="253.516"/><linearGradient xmlns:xlink="http://www.w3.org/1999/xlink" id="c" gradientUnits="userSpaceOnUse" x1="1" x2="998.588" xlink:href="#a" y1="1623.495" y2="1623.495"/><path d="m999.869 1629.622-.003-.118a79.279 79.279 0 0 0-.048-1.219l-.002-.056-.003-.062-.021-.449-.024-.403c-.015-.275-.032-.548-.05-.835l-.017-.255a65.66 65.66 0 0 0-.094-1.238c-.01-.12-.022-.235-.033-.355a39.327 39.327 0 0 0-.087-.844 27.496 27.496 0 0 0-.243-1.783 149.244 149.244 0 0 0-.913-4.665l-.127-.602-.034-.157a84.33 84.33 0 0 0-1.118-4.674c-.044-.159-.18-.645-.415-1.392-.605-1.97-1.471-4.317-2.204-6.104l-.196-.468a87.576 87.576 0 0 0-2.459-5.445c-.1-.203-.216-.421-.321-.629a84.944 84.944 0 0 0-.526-1.049c-1.523-2.98-3.663-6.507-5.758-9.706-.507-.785-1.007-1.55-1.483-2.255a80.334 80.334 0 0 0-2.074-2.912 143.541 143.541 0 0 0-5.388-6.85l-.201-.245a93.52 93.52 0 0 0-1.437-1.688c-.638-.74-1.265-1.458-1.857-2.117a193.329 193.329 0 0 0-3.289-3.558l-.942-1.014c-1.908-2.05-4.198-4.306-6.57-6.545a106.74 106.74 0 0 0-.805-.761c-.283-.265-.565-.524-.849-.787-.122-.112-.25-.234-.371-.344l-.089-.08a272.949 272.949 0 0 0-6.826-6.082c-3.291-2.83-7.569-6.343-11.331-9.234-4.93-3.817-9.844-7.353-15.149-11.002-3.326-2.327-6.622-4.569-9.56-6.452a.153.153 0 0 0-.021-.014c-4.099-2.725-9.063-5.799-13.972-8.749a358.516 358.516 0 0 0-8.889-5.256c-.709-.414-1.409-.82-2.083-1.211a382.747 382.747 0 0 0-7.254-4.074c-5.302-2.954-10.748-5.904-15.392-8.272l-.003-.002c-8.173-4.343-19.292-9.706-27.663-13.653-6.889-3.247-15.822-7.208-23.382-10.533l-1.505-.68c-9.348-4.212-22.052-9.281-31.589-13.045-9.46-3.734-22.13-8.577-31.716-11.976l-.001-.001c-9.715-3.587-22.788-8.04-32.614-11.311l-.602-.2c-9.873-3.284-22.638-7.463-32.449-10.349l-.35-.104a2170.763 2170.763 0 0 0-22.85-6.619c-15.781-4.516-32.558-9.197-46.368-12.831l-.344-.09c-6.208-1.667-13.631-3.506-20.864-5.247a1608.285 1608.285 0 0 0-12.318-2.924l-2.352-.551a1715.79 1715.79 0 0 0-36.762-8.187c-10.821-2.339-25.053-5.132-35.798-7.163l-.314-.059a1686.094 1686.094 0 0 0-36.21-6.438 794.477 794.477 0 0 0-12.129-1.974 1605.306 1605.306 0 0 0-24.3-3.675c-10.873-1.64-25.414-3.542-36.34-4.779a862.924 862.924 0 0 0-35.683-3.822l-.385-.035-.09-.009a1272.784 1272.784 0 0 0-34.676-2.817c-9.167-.684-21.05-1.295-30.862-1.71l-1.584-.065c-.734-.03-1.457-.06-2.161-.087l-.375-.015-.819-.032c-9.375-.354-21.692-.633-31.429-.745l-.688-.011c-9.441-.15-22.034.01-31.473.253a837.33 837.33 0 0 0-9.298.299 698.38 698.38 0 0 0-10.132.426c-1.023.051-2.07.107-3.134.167-2.011.105-3.953.215-5.761.327-7.9.491-18.437 1.219-26.298 2.144-1.12.131-2.285.27-3.469.411-4.637.49-9.103 1.011-13.194 1.553-5.204.688-11.702 1.691-17.51 2.686-1.806.304-3.559.612-5.225.928l-.073.013c-.824.152-1.688.32-2.574.495-6.639 1.296-12.401 2.573-17.466 3.813l-.019.004c-9.118 2.086-19.871 5.5-28.099 8.517l-.626.223c-1.563.558-3.32 1.247-5.103 1.978-.734.298-1.439.589-2.08.863-.073.031-.152.068-.226.1a255.424 255.424 0 0 0-5.139 2.25c-2.966 1.338-6.8 3.38-9.704 4.85-1.655.837-3.512 1.912-5.355 3.047-2.525 1.467-5.454 3.459-7.644 5.09l-.264.197a99.853 99.853 0 0 0-4.336 3.315c-.135.11-.279.231-.418.348-1.807 1.465-3.415 2.89-5.377 4.77l-.562.53c-.054.051-.465.445-1.103 1.093a73.963 73.963 0 0 0-3.727 4.049l-.06.07-.352.414a68.837 68.837 0 0 0-2.923 3.691l-.131.178-.185.25-.127.18c-.091.126-.182.248-.272.375-3.139 4.396-4.98 8.031-5.518 9.146a61.503 61.503 0 0 0-1.619 3.543 24.918 24.918 0 0 0-.758 1.879l-.055.164a63.044 63.044 0 0 0-2.724 9.267 39.62 39.62 0 0 1 1.213-4.446 128.616 128.616 0 0 0-1.213 4.446c-5.771 27.646 18.214 61.774 75.131 98.876 144.557 94.23 446.799 171.953 675.077 173.598 138.397.997 217.834-26.197 226.721-68.765.324-1.581.67-3.707.865-5.31.135-1.108.219-2.503.3-3.754a26.099 26.099 0 0 0 .13-2.292c.008-.311.01-.629.009-.952v-.274c.004-.427-.004-.849-.017-1.274zm-19.282-12.488v.003-.003zm-29.537 34.751zm2.84-1.704.159-.099-.159.099z" fill="#fff"/><path d="M778.996 1713.27c-2.366 0-4.741-.008-7.136-.025-228.074-1.644-531.154-79.592-675.615-173.76-55.525-36.194-81.655-70.745-75.564-99.918v-.001a64.672 64.672 0 0 1 2.767-9.416l.022-.069a25.79 25.79 0 0 1 .812-2.021 61.488 61.488 0 0 1 1.638-3.585c.499-1.035 2.394-4.794 5.601-9.283l.339-.469.06-.085.331-.447a69.787 69.787 0 0 1 2.96-3.738l.357-.421a77.11 77.11 0 0 1 4.959-5.285l.564-.533c1.963-1.88 3.59-3.323 5.432-4.816l.418-.348a100.099 100.099 0 0 1 4.379-3.348l.256-.191c2.512-1.871 5.405-3.797 7.738-5.151 2.042-1.259 3.868-2.298 5.405-3.075.773-.392 1.613-.823 2.485-1.272 2.373-1.221 5.062-2.605 7.259-3.596a263.934 263.934 0 0 1 5.16-2.26l.22-.097c.648-.278 1.36-.571 2.101-.872 2.01-.823 3.693-1.476 5.144-1.992l.629-.224c9.511-3.488 20.061-6.685 28.209-8.549 5.421-1.327 11.313-2.613 17.517-3.824a267.886 267.886 0 0 1 7.896-1.44c5.955-1.019 12.516-2.025 17.546-2.69 3.921-.52 8.369-1.043 13.219-1.556l3.458-.41c6.187-.728 14.807-1.431 26.352-2.148 1.812-.112 3.757-.222 5.771-.328 1.063-.059 2.112-.116 3.138-.167a716.06 716.06 0 0 1 10.146-.426c3.275-.122 6.452-.226 9.307-.3 8.758-.225 21.636-.411 31.515-.253l.689.011c10.25.118 22.597.411 31.45.746l4.942.199c11.657.493 22.918 1.117 30.894 1.712l.175.013c11.736.796 23.35 1.739 34.521 2.806l.474.043c1.491.142 3.056.294 4.665.455a1486.876 1486.876 0 0 1 30.992 3.364c11.22 1.271 25.839 3.193 36.421 4.79.025.003.092.015.116.021 7.89 1.127 16.057 2.362 24.191 3.655 4.746.739 8.719 1.386 12.143 1.976 12.2 2.032 24.031 4.136 36.226 6.44l.314.059c13.283 2.511 26.676 5.19 35.823 7.168a1726.318 1726.318 0 0 1 36.778 8.19l2.353.551c4.032.94 8.16 1.919 12.324 2.926 8.611 2.073 15.444 3.791 20.888 5.253l.341.089c15.697 4.131 33.89 9.261 46.388 12.836 8.582 2.441 16.273 4.67 22.858 6.622l.35.104c7.787 2.291 18.413 5.679 32.48 10.358l.603.201c7.512 2.5 21.742 7.296 32.645 11.32l.012.005c9.986 3.541 22.935 8.51 31.727 11.98 9.9 3.906 22.443 8.923 31.633 13.062l1.505.681c7.206 3.169 16.387 7.235 23.398 10.54 7.979 3.763 19.264 9.189 27.705 13.675 4.255 2.17 9.444 4.959 15.412 8.283a380.552 380.552 0 0 1 7.269 4.083l4.378 2.534a348.175 348.175 0 0 1 6.613 3.943c5.61 3.372 10.324 6.324 14.005 8.771l.013.009c2.684 1.72 5.909 3.896 9.587 6.471 5.759 3.961 10.587 7.468 15.188 11.03a282.99 282.99 0 0 1 11.371 9.268 277.97 277.97 0 0 1 6.852 6.104l-.589.815.673-.739 2.042 1.907c2.626 2.479 4.852 4.696 6.612 6.587l.942 1.016a193.319 193.319 0 0 1 3.3 3.569c.597.663 1.229 1.387 1.871 2.133a86.218 86.218 0 0 1 1.45 1.703l.199.243a143.508 143.508 0 0 1 5.425 6.897 80.2 80.2 0 0 1 2.096 2.944c.479.71.982 1.479 1.494 2.271 2.357 3.602 4.422 7.081 5.809 9.794.172.336.351.694.531 1.062l.322.631a88.13 88.13 0 0 1 2.486 5.505l.197.47a78.335 78.335 0 0 1 2.234 6.188c.238.76.378 1.257.423 1.42a86.426 86.426 0 0 1 1.132 4.73l-.944.366.978-.209.129.606c.333 1.569.65 3.193.918 4.693.101.563.181 1.198.253 1.85.032.276.062.566.089.861l.034.366c.036.418.067.832.096 1.254l.112 1.962-.993.163.999-.047a96.322 96.322 0 0 1 .052 1.353c.013.433.021.862.023 1.299v.192c0 .422-.001.749-.01 1.069a28.975 28.975 0 0 1-.073 1.661l-.085 1.064c-.076 1.177-.155 2.393-.28 3.413a74.991 74.991 0 0 1-.878 5.39c-4.523 21.667-27.164 39.464-65.475 51.472-37.893 11.877-91.409 18.118-155.101 18.118zM22.628 1440.015c-5.898 28.258 19.932 62.089 74.708 97.794 144.19 93.992 446.787 171.795 674.537 173.436 2.39.018 4.786.025 7.145.025 128.167.004 209.671-25.268 218.591-67.994.315-1.541.658-3.643.852-5.227.117-.965.194-2.152.27-3.301l.086-1.096c.039-.475.058-1.005.067-1.547.009-.312.01-.62.01-.934v-.264a57.52 57.52 0 0 0-.023-1.256v-.006l1-.024-1.001-.034c-.015-.472-.03-.868-.049-1.256l-.006-.118-.106-1.865a58.85 58.85 0 0 0-.097-1.274l-.026-.285c-.032-.345-.06-.617-.091-.885a27.67 27.67 0 0 0-.234-1.725 149.204 149.204 0 0 0-.906-4.633l-.127-.6-.035-.157a82.065 82.065 0 0 0-1.103-4.617 44.811 44.811 0 0 0-.405-1.357 75.598 75.598 0 0 0-2.175-6.023l-.191-.456a86.489 86.489 0 0 0-2.436-5.394l-.316-.62c-.182-.367-.356-.718-.524-1.045-1.354-2.652-3.381-6.066-5.704-9.614a131.08 131.08 0 0 0-1.476-2.243 77.072 77.072 0 0 0-2.047-2.876 141.726 141.726 0 0 0-5.353-6.805l-.205-.249c-.438-.53-.92-1.093-1.42-1.668a135.1 135.1 0 0 0-1.846-2.104 185.412 185.412 0 0 0-3.272-3.539l-.947-1.02c-1.73-1.859-3.926-4.046-6.524-6.499l-2.011-1.88-.094-.084a274.401 274.401 0 0 0-6.801-6.06 282.27 282.27 0 0 0-11.288-9.199c-4.574-3.542-9.373-7.027-15.106-10.971-3.666-2.565-6.871-4.729-9.532-6.435a.687.687 0 0 1-.068-.048c-3.698-2.453-8.355-5.367-13.899-8.699a352.02 352.02 0 0 0-6.58-3.925l-4.379-2.534a374.59 374.59 0 0 0-7.233-4.063c-5.952-3.315-11.12-6.093-15.364-8.258-8.425-4.477-19.679-9.888-27.639-13.642-6.99-3.295-16.155-7.354-23.358-10.522l-1.514-.683c-9.15-4.124-21.665-9.128-31.545-13.026-8.783-3.468-21.718-8.431-31.683-11.964l-.026-.01c-10.874-4.015-25.073-8.8-32.571-11.295l-.603-.201c-14.045-4.672-24.648-8.053-32.415-10.338l-.354-.105a2148.227 2148.227 0 0 0-22.836-6.615c-12.49-3.574-30.668-8.699-46.35-12.826l-.345-.09c-5.431-1.458-12.247-3.172-20.843-5.241a1595.747 1595.747 0 0 0-12.311-2.923l-2.352-.551a1735.894 1735.894 0 0 0-36.741-8.182c-9.137-1.975-22.509-4.65-35.776-7.159l-.314-.059a1675.256 1675.256 0 0 0-36.127-6.423 776.768 776.768 0 0 0-12.182-1.982 1610.082 1610.082 0 0 0-24.246-3.666c-10.609-1.601-25.198-3.52-36.352-4.782a1474.807 1474.807 0 0 0-31.009-3.367 882.732 882.732 0 0 0-4.655-.454l-.383-.034a1267.99 1267.99 0 0 0-34.558-2.81l-.196-.015c-7.95-.593-19.187-1.216-30.823-1.708l-4.933-.199c-8.839-.334-21.165-.626-31.405-.744l-.693-.011c-9.849-.158-22.694.027-31.43.253-2.848.074-6.017.176-9.286.298-3.668.13-7.072.272-10.119.426a567.76 567.76 0 0 0-3.129.166 594.47 594.47 0 0 0-5.755.327c-11.508.716-20.092 1.415-26.242 2.139l-3.467.411a509.568 509.568 0 0 0-13.182 1.551c-5.007.662-11.538 1.664-17.473 2.68-1.802.304-3.548.61-5.208.925-.896.165-1.757.332-2.639.507-6.174 1.205-12.035 2.484-17.422 3.804-8.104 1.854-18.563 5.023-28.011 8.487l-.636.227c-1.4.499-3.103 1.159-5.06 1.961-.729.296-1.43.585-2.065.856l-.227.101a257.138 257.138 0 0 0-5.121 2.241c-2.15.971-4.814 2.342-7.165 3.552-.877.451-1.721.886-2.499 1.279-1.487.752-3.264 1.764-5.281 3.006-2.259 1.312-5.152 3.238-7.571 5.04l-.267.2a98.533 98.533 0 0 0-4.297 3.284l-.413.343c-1.807 1.465-3.396 2.875-5.325 4.723l-.563.533c-.055.052-.457.438-1.08 1.07a73.667 73.667 0 0 0-3.68 3.997l-.405.478a67.986 67.986 0 0 0-2.883 3.641l-.708.972c-3.114 4.359-4.944 7.99-5.432 8.999a60.822 60.822 0 0 0-1.597 3.495 24.56 24.56 0 0 0-.734 1.817l-.056.165a62.952 62.952 0 0 0-1.467 4.343c.021.14.014.286-.028.431a125.957 125.957 0 0 0-1.204 4.413v-.003zm928.422 212.87a1 1 0 0 1-.494-1.87l.098-.057.569.825.504.864-.185.107a.989.989 0 0 1-.492.131zm2.879-1.739a.997.997 0 0 1-1.015-1.007.937.937 0 0 1 .443-.805l.075-.046c.465-.3 1.12-.188 1.42.278.114.178.17.375.17.566 0 .31-.146.606-.434.791l-.106.066a1.04 1.04 0 0 1-.553.157zm26.657-33.009a1 1 0 1 1 1-1.003v.003a1 1 0 0 1-1 1z" fill="#111"/><path d="M1021.677 367.491c-199.609-1.438-463.895-69.4-590.298-151.797-49.77-32.442-70.743-62.285-65.696-86.459l-22.481 107.687a533.2 533.2 0 0 0-3.742 20.072c-.989 6.021-2.257 14.067-2.864 20.14-1.18 11.793-2.408 27.554-3.079 39.387-.343 6.045-.339 14.126-.299 20.18.04 6.048.143 14.119.563 20.151.816 11.714 2.121 27.324 3.556 38.978.636 5.166 3.144 22.37 7.053 39.715 2.573 11.414 6.792 26.446 10.057 37.682 1.706 5.869 4.543 13.517 6.501 19.306 1.974 5.837 5.002 13.484 7.411 19.156 2.294 5.402 5.379 12.597 7.848 17.921 2.638 5.691 6.218 13.259 9.225 18.764 5.631 10.309 13.351 23.947 19.554 33.923 3.424 5.506 8.301 12.65 12.025 17.959 2.921 4.165 6.884 9.384 10.16 13.78.47.656.957 1.315 1.469 1.979 52.092 67.461 104.181 134.916 156.271 202.379.252.341.477.656.694.966.085.122.17.241.255.365.076.111.144.214.216.321a35.198 35.198 0 0 1 .859 1.334c.354.593.732 1.312 1.059 1.91.384.76.746 1.553 1.144 2.445.18.428.355.847.517 1.215.049.112.108.262.171.425.067.177.134.354.201.544l.033.092c.319.907.64 1.929.913 2.89.182.645.357 1.312.51 1.969l.051.238c.033.145.062.286.092.429.105.54.229 1.155.344 1.779l.043.237c.039.215.073.427.107.638l.062.396c.042.298.081.59.104.858.087.998.161 2.149.216 3.316a97.25 97.25 0 0 1 .094 4.473 17.06 17.06 0 0 1-.03.845c-.015.241-.032.485-.052.731l-.015.184c-.027.313-.058.625-.09.929l-.017.161c-.025.233-.051.453-.077.67l-.046.387-.05.38c-.146 1.102-.4 2.485-.602 3.542-.239 1.05-.56 2.422-.867 3.489l-.104.361-.115.382c-.063.208-.127.418-.197.642l-.048.153c-.092.291-.189.591-.29.89l-.06.174c-.08.232-.162.462-.244.688-.102.274-.206.545-.31.787a99.186 99.186 0 0 1-1.874 4.059 85.602 85.602 0 0 1-1.525 2.951c-.128.236-.28.487-.438.742a38.52 38.52 0 0 1-.569.883l-.128.191c-.36.532-.725 1.053-1.04 1.51-.068.097-.135.191-.207.289a11.56 11.56 0 0 1-.133.185 47.637 47.637 0 0 1-2.155 2.674 42.79 42.79 0 0 1-1.123 1.256l-.085.09c-.131.14-.256.268-.381.396-.12.121-.236.237-.329.323-.326.303-.692.654-1.066 1.01a55.728 55.728 0 0 1-1.688 1.498l-.075.062-.005.005c-.288.221-.616.48-.949.74-1.184.871-2.743 1.875-3.956 2.61l-224.083 122.934-.012.007a546.221 546.221 0 0 0-13.211 7.56 230.922 230.922 0 0 0-4.894 2.931c-.19.115-.393.237-.579.351-.413.252-.852.524-1.283.79-4.658 2.861-9.964 6.19-14.224 9.134a195.29 195.29 0 0 0-2.227 1.521c-7.042 4.885-15.599 11.236-23.31 17.119a777.098 777.098 0 0 0-6.949 5.312c-2.165 1.677-4.586 3.674-7.019 5.733a536.504 536.504 0 0 0-9 7.82l-.553.492-.273.241c-12.928 11.413-25.582 24.448-28.628 27.813-.96 1.061-2.011 2.2-3.1 3.378-2.379 2.562-4.908 5.28-7.19 7.851-.249.279-.485.551-.728.826-.201.229-.409.462-.604.688-.683.783-1.346 1.554-1.956 2.288a1280.68 1280.68 0 0 0-6.635 8.066c-5.951 7.28-12.308 15.257-17.194 21.912-.594.81-1.184 1.62-1.769 2.431a438.277 438.277 0 0 0-9.149 13.189c-.303.453-.604.903-.899 1.348l-.613.928a358.826 358.826 0 0 0-1.539 2.342 542.39 542.39 0 0 0-1.583 2.438l-.063.098c-3.027 4.692-5.517 8.717-7.05 11.316-3.114 5.278-6.625 11.56-10.041 17.84a1056.13 1056.13 0 0 0-8.533 15.998c-.752 1.44-1.543 3.03-2.344 4.685-.23.474-.461.96-.693 1.444l-.299.626c-1.846 3.889-3.698 8.005-5.24 11.482l-.009.021-.009.021-.197.442-.179.406c-1.509 3.403-3.248 7.383-4.837 11.225-.07.168-.136.333-.205.501-.228.553-.455 1.105-.674 1.648a171.128 171.128 0 0 0-1.88 4.831 913.727 913.727 0 0 0-5.388 15.04c-2.638 7.54-5.265 15.306-7.374 21.845a175.481 175.481 0 0 0-1.5 4.934c-.197.676-.393 1.366-.588 2.061l-.067.236a465.76 465.76 0 0 0-2.652 9.926l-.055.215c-.15.583-.292 1.143-.434 1.7l-.138.538a33.568 33.568 0 0 1-.118.465l-.136.548a541.323 541.323 0 0 0-4.35 18.884l-22.481 107.687c.026-.126.061-.249.088-.374-5.344 24.239 15.582 54.222 65.608 86.832 126.403 82.396 390.688 150.358 590.298 151.797 1.741.013 3.47.019 5.189.021.561.001 1.116-.001 1.673-.001a575.436 575.436 0 0 0 5.374-.02c1.112-.007 2.219-.018 3.322-.029.606-.007 1.212-.013 1.816-.021 1.207-.016 2.405-.035 3.601-.056.466-.009.936-.015 1.401-.024a703.4 703.4 0 0 0 4.917-.109c.288-.008.571-.017.858-.024 1.34-.036 2.674-.074 3.999-.117l1.642-.056a784.916 784.916 0 0 0 4.937-.186 601.48 601.48 0 0 0 3.128-.137 559.983 559.983 0 0 0 5.216-.259l1.062-.055c1.526-.085 3.041-.174 4.545-.268.399-.024.793-.052 1.191-.077 1.115-.072 2.225-.146 3.328-.222l1.576-.113a503.466 503.466 0 0 0 4.524-.344c.993-.079 1.979-.161 2.961-.245l1.418-.121c1.307-.114 2.604-.233 3.893-.355l.38-.035c1.412-.136 2.811-.276 4.201-.421.427-.044.849-.091 1.274-.136a672.775 672.775 0 0 0 4.368-.484c.896-.104 1.787-.209 2.672-.316.486-.059.971-.117 1.454-.178.947-.117 1.886-.238 2.822-.36.391-.052.785-.102 1.174-.153 1.314-.175 2.619-.354 3.911-.538.16-.022.316-.047.475-.069 1.131-.163 2.254-.329 3.368-.498.418-.063.831-.129 1.247-.194a404.242 404.242 0 0 0 3.914-.627c.823-.137 1.641-.275 2.454-.415.426-.074.853-.146 1.275-.222.924-.162 1.839-.328 2.75-.496.29-.053.583-.105.871-.159a304.95 304.95 0 0 0 3.535-.68c.28-.055.555-.112.833-.168.887-.178 1.769-.357 2.642-.54.402-.084.801-.17 1.2-.255a362.92 362.92 0 0 0 3.479-.762c.75-.169 1.493-.341 2.232-.514.367-.086.736-.171 1.1-.258.928-.221 1.846-.444 2.757-.672l.484-.118c1.066-.268 2.119-.54 3.161-.816.302-.079.598-.161.898-.242.742-.199 1.48-.399 2.21-.603.366-.103.729-.205 1.092-.309.666-.188 1.326-.38 1.982-.572.362-.106.724-.212 1.083-.319.686-.206 1.365-.413 2.04-.622.302-.094.607-.187.907-.281a184.743 184.743 0 0 0 5.637-1.866c.297-.104.588-.209.882-.312a195.805 195.805 0 0 0 2.825-1.025c.581-.217 1.157-.436 1.728-.656.31-.119.62-.238.926-.358.632-.248 1.256-.499 1.875-.751l.677-.274c.835-.345 1.659-.692 2.47-1.045.166-.072.327-.146.492-.218.643-.282 1.28-.566 1.908-.854.271-.124.538-.249.807-.374.52-.242 1.036-.485 1.545-.73.279-.135.558-.27.833-.405a123.32 123.32 0 0 0 1.5-.749c.252-.128.505-.255.754-.384.588-.304 1.166-.61 1.738-.919.14-.075.285-.15.424-.226.705-.385 1.396-.772 2.076-1.163.188-.108.37-.218.556-.326a95.117 95.117 0 0 0 2.156-1.296 98.618 98.618 0 0 0 1.955-1.244c.428-.28.847-.562 1.263-.846.195-.133.394-.266.586-.399a80.516 80.516 0 0 0 1.682-1.197l.082-.059a77.836 77.836 0 0 0 1.682-1.277c.172-.135.339-.271.508-.405a55.193 55.193 0 0 0 1.681-1.381 66.125 66.125 0 0 0 1.539-1.348c.35-.316.69-.636 1.028-.957.138-.131.28-.262.417-.394.465-.451.919-.904 1.359-1.362.072-.074.14-.15.211-.226a52.25 52.25 0 0 0 1.073-1.16c.141-.158.277-.317.416-.476.273-.312.542-.627.804-.942.145-.175.287-.35.429-.524.252-.313.498-.628.74-.943.128-.168.257-.334.382-.502.273-.369.538-.739.797-1.111.079-.114.163-.228.241-.342.33-.484.648-.973.953-1.464.078-.125.149-.251.226-.376a30.951 30.951 0 0 0 .946-1.647c.179-.329.353-.66.521-.991.094-.187.188-.373.278-.56.166-.343.325-.686.479-1.03.076-.171.155-.34.229-.511.193-.449.375-.899.549-1.354.025-.064.053-.128.077-.193.194-.518.374-1.038.543-1.562.051-.158.096-.317.145-.477.114-.369.223-.74.324-1.112.052-.193.101-.388.15-.581.088-.349.17-.698.247-1.049.025-.114.057-.227.081-.342l22.481-107.687v-.003.003l.001-.006a540.423 540.423 0 0 0 3.568-19.037l.095-.559.063-.389.014-.083.082-.504.289-1.773.037-.229a464.327 464.327 0 0 0 1.571-10.377c.1-.723.197-1.44.288-2.145.233-1.791.439-3.521.598-5.112.68-6.79 1.375-14.895 1.97-22.808.431-5.665.81-11.219 1.092-16.102.093-1.609.16-3.367.209-5.188.016-.545.027-1.103.04-1.66.004-.222.011-.438.015-.661.081-4.164.079-8.516.058-12.239l-.002-.41-.003-.42v-.08l-.001-.079c-.022-3.793-.072-8.284-.208-12.567-.006-.199-.014-.393-.021-.591-.02-.572-.039-1.144-.062-1.704-.072-1.829-.16-3.595-.272-5.21-.376-5.399-.857-11.627-1.406-17.913-.623-7.177-1.332-14.401-2.08-20.532-.865-7.09-3.432-23.59-6.718-38.426-.134-.606-.269-1.214-.405-1.82-1.815-8.055-4.451-17.907-6.992-26.96a1243 1243 0 0 0-2.859-10.062c-.264-.912-.562-1.878-.872-2.863-.08-.254-.167-.52-.249-.777-.125-.388-.244-.769-.374-1.163-1.057-3.248-2.279-6.726-3.427-10.004a433.148 433.148 0 0 1-1.502-4.372 215.521 215.521 0 0 0-2.733-7.575c-.19-.505-.385-1.01-.58-1.518l-.232-.604a350.03 350.03 0 0 0-4.148-10.244c-.48-1.131-1-2.35-1.536-3.604-1.91-4.496-4.043-9.441-5.87-13.362l-.23-.493-.211-.462a538.59 538.59 0 0 0-5.111-10.748l-.018-.036c-1.391-2.831-2.796-5.6-4.096-7.978a977.243 977.243 0 0 0-8.857-15.852c-3.396-5.966-6.865-11.893-9.956-16.899a263.047 263.047 0 0 0-3.518-5.518l-.048-.072a481.066 481.066 0 0 0-8.084-11.948c-.186-.266-.39-.552-.582-.826-.177-.253-.363-.521-.536-.766a213.46 213.46 0 0 0-1.849-2.587 545.357 545.357 0 0 0-9.771-13.16l-.009-.012.007.01-.004-.006-.001-.002-156.272-202.392c-.827-1.172-1.862-2.732-2.609-4.021-.199-.367-.394-.733-.567-1.046-.024-.043-.047-.096-.071-.14a54.166 54.166 0 0 1-.93-2.015c-.198-.469-.39-.931-.566-1.333a10.694 10.694 0 0 1-.171-.424c-.064-.17-.128-.341-.193-.522l-.043-.117a50.83 50.83 0 0 1-.91-2.88 42.92 42.92 0 0 1-.512-1.974l-.051-.235c-.033-.145-.062-.287-.092-.431-.105-.54-.229-1.156-.345-1.78-.014-.079-.029-.157-.042-.237-.039-.214-.073-.425-.107-.636l-.062-.396a16.36 16.36 0 0 1-.105-.858 85.726 85.726 0 0 1-.216-3.315 98.72 98.72 0 0 1-.094-4.473c.001-.155.012-.331.018-.498a46.199 46.199 0 0 1 .316-3.462l.045-.344c.147-1.099.399-2.474.599-3.524.243-1.166.516-2.245.785-3.208.077-.271.153-.54.226-.783.086-.285.181-.596.281-.915l.132-.407.032-.098a33.15 33.15 0 0 1 .779-2.154 99.905 99.905 0 0 1 1.874-4.058 84.876 84.876 0 0 1 1.525-2.953c.128-.236.28-.487.438-.742a38.27 38.27 0 0 1 .569-.882l.131-.195c.358-.53.721-1.048 1.035-1.505.073-.102.144-.203.221-.308l.121-.168a48.344 48.344 0 0 1 2.143-2.661c.38-.439.765-.873 1.137-1.272l.083-.087a18.79 18.79 0 0 1 .712-.721c.327-.303.692-.654 1.066-1.01a54.326 54.326 0 0 1 1.687-1.497c.025-.021.053-.046.078-.064l.004-.004c.288-.22.616-.48.949-.74 1.184-.871 2.741-1.875 3.955-2.611l224.08-122.924c5.679-3.132 13.166-7.464 18.697-10.849 5.401-3.306 12.531-7.837 17.734-11.445 9.649-6.692 22.145-16.142 31.405-23.36 4.877-3.803 11.062-9.267 15.698-13.359 13.029-11.502 25.71-24.592 28.628-27.814 4.079-4.505 9.698-10.354 13.578-15.031 7.474-9.007 17.326-21.126 24.253-30.56 9.172-12.492 18.51-27.183 22.242-33.509 5.968-10.117 13.395-23.915 18.819-34.333 2.789-5.356 6.101-12.705 8.546-18.227 2.45-5.533 5.678-12.936 7.775-18.611 4.108-11.12 9.269-26.066 12.901-37.351 1.869-5.809 3.912-13.691 5.412-19.606 1.47-5.799 3.14-13.602 4.485-19.431l22.481-107.686c-7.767 37.211-77.228 60.99-198.245 60.118zm-676.113 638.695z" fill="#b0c3ff"/><g fill="#111"><path d="M756.104 1665.48a824.182 824.182 0 0 1-5.194-.021c-199.452-1.438-464.5-69.606-590.837-151.959-61.134-39.85-69.818-69.431-66.148-87.369a.862.862 0 0 1 .019-.131l22.481-107.687a538.79 538.79 0 0 1 4.358-18.924l.23-.919.027-.108.598-2.338.026-.106a461.443 461.443 0 0 1 2.658-9.947l.067-.236c.196-.697.394-1.391.591-2.069a178.858 178.858 0 0 1 1.508-4.962c2.043-6.334 4.664-14.101 7.381-21.867a918.83 918.83 0 0 1 5.394-15.057 175.84 175.84 0 0 1 1.893-4.859c.219-.544.447-1.1.676-1.654l.207-.506c1.323-3.198 2.863-6.771 4.846-11.244l.377-.851c2.024-4.568 3.742-8.332 5.268-11.546l.408-.854c.197-.412.394-.823.589-1.226a175.596 175.596 0 0 1 2.356-4.71 1054.581 1054.581 0 0 1 8.541-16.014c3.814-7.012 7.199-13.024 10.058-17.869 1.696-2.877 4.273-7.014 7.071-11.351l.063-.099 4.644-7.069a437.912 437.912 0 0 1 10.941-15.656c4.214-5.737 10.009-13.124 17.227-21.953 2.319-2.845 4.572-5.579 6.641-8.072.614-.74 1.282-1.517 1.971-2.307l1.341-1.522c2.239-2.521 4.686-5.155 7.052-7.701l.152-.164a461.18 461.18 0 0 0 3.091-3.369c2.941-3.249 15.719-16.425 28.707-27.892l.825-.732a535.202 535.202 0 0 1 8.983-7.806c2.812-2.383 5.12-4.267 7.086-5.79a734.069 734.069 0 0 1 6.958-5.319c6.273-4.786 15.42-11.647 23.343-17.143.712-.494 1.464-1.006 2.237-1.528 3.53-2.44 8.064-5.351 14.261-9.157l3.052-1.868a220.19 220.19 0 0 1 3.722-2.214 546.556 546.556 0 0 1 13.231-7.572L571.18 881.222c1.388-.843 2.839-1.8 3.844-2.539l.259-.203a63.165 63.165 0 0 1 .683-.533l.075-.062c.518-.437 1.09-.957 1.617-1.439l.264-.251c.279-.267.55-.524.798-.755.088-.08.191-.184.297-.291.119-.122.239-.245.365-.379l.814.594-.731-.683c.359-.384.73-.802 1.097-1.227a46.893 46.893 0 0 0 2.108-2.616l.604-.854c.24-.347.497-.717.752-1.094l.074-.11c.168-.252.282-.43.396-.605l.208-.328c.146-.235.288-.47.408-.69.474-.869.995-1.883 1.506-2.916a98.244 98.244 0 0 0 1.853-4.011c.098-.229.195-.483.292-.741.077-.213.157-.437.235-.664l1.005.152-.947-.319c.098-.292.193-.586.283-.871l1.003.147-.955-.296.401-1.337c.306-1.062.62-2.407.861-3.464.176-.929.438-2.34.585-3.451l.17-1.413 1.011-.053-.994-.105c.031-.298.062-.603.089-.91l.016-.191c.018-.225.034-.462.049-.697.015-.269.027-.54.028-.788a95.737 95.737 0 0 0-.094-4.426 86.336 86.336 0 0 0-.213-3.272c-.022-.252-.06-.526-.099-.806l-.059-.375c-.035-.22-.067-.418-.104-.619l-.036-.205a102.07 102.07 0 0 0-.245-1.271l-.188-.93a3.556 3.556 0 0 1-.021-.1l-.028-.13a42.323 42.323 0 0 0-.498-1.923 50.026 50.026 0 0 0-.895-2.83 23.373 23.373 0 0 0-.379-.994c-.143-.323-.297-.691-.456-1.07l-.065-.155a55.924 55.924 0 0 0-1.115-2.382l-.225-.413c-.259-.479-.536-.994-.8-1.436a33.023 33.023 0 0 0-.83-1.289l-.462-.673a56.346 56.346 0 0 0-.678-.942L427.85 616.624a66.929 66.929 0 0 1-1.491-2.008l-2.218-2.967c-2.781-3.714-5.656-7.555-7.947-10.821-2.273-3.239-7.997-11.479-12.057-18.005-7.827-12.587-16.968-29.185-19.583-33.972-2.357-4.317-5.385-10.474-9.254-18.823-2.55-5.501-5.708-12.879-7.861-17.95-2.222-5.232-5.342-13.031-7.437-19.227-.604-1.783-1.291-3.743-2.002-5.774-1.636-4.665-3.326-9.488-4.513-13.572-4.633-15.941-8.021-28.64-10.072-37.741-3.922-17.4-6.433-34.639-7.069-39.812-1.214-9.85-2.545-24.44-3.562-39.03-.429-6.147-.528-14.48-.566-20.214-.04-6.24-.042-14.181.302-20.243.676-11.917 1.914-27.763 3.082-39.43.623-6.228 1.938-14.513 2.873-20.202a532.819 532.819 0 0 1 3.748-20.114l22.482-107.687a.992.992 0 0 1 1.183-.774.998.998 0 0 1 .774 1.183c-3.594 17.217 4.811 46.012 65.263 85.417 126.066 82.177 390.631 150.2 589.759 151.635 115.571.816 189.332-21.348 197.263-59.333a.996.996 0 0 1 1.183-.774.998.998 0 0 1 .774 1.183l-22.48 107.686c-.438 1.896-.904 3.978-1.387 6.13-1.036 4.62-2.107 9.398-3.107 13.343-1.554 6.13-3.575 13.905-5.429 19.667-3.636 11.295-8.826 26.321-12.915 37.391-2.089 5.652-5.266 12.946-7.8 18.67-2.312 5.223-5.718 12.8-8.573 18.283-6.762 12.986-13.807 25.839-18.845 34.379-3.74 6.341-13.1 21.067-22.297 33.593-7.033 9.579-17.091 21.931-24.289 30.606-2.687 3.237-6.122 6.948-9.444 10.537-1.471 1.589-2.892 3.123-4.162 4.526-2.948 3.257-15.739 16.445-28.708 27.894l-.077.067c-4.556 4.021-10.794 9.53-15.668 13.33-11.519 8.979-23.276 17.725-31.45 23.394-5.357 3.717-12.698 8.365-17.781 11.477-5.327 3.26-12.856 7.629-18.736 10.872L743.671 852.335c-1.388.843-2.838 1.801-3.843 2.54l-.306.24c-.211.165-.414.324-.603.468a54.113 54.113 0 0 0-1.726 1.529l-.279.266c-.274.262-.539.515-.784.741-.083.077-.188.183-.297.292l-.364.379-.812-.597.732.681c-.363.392-.74.816-1.113 1.247a46.827 46.827 0 0 0-2.095 2.602l-.637.903c-.229.331-.474.684-.716 1.041l-.125.188c-.12.18-.233.355-.347.531l-.207.326a14.28 14.28 0 0 0-.407.69 82.11 82.11 0 0 0-1.509 2.921 97.935 97.935 0 0 0-1.853 4.01c-.001.004-.318.771-.748 2.072l-.437 1.395c-.062.207-.126.433-.191.662l-.03.107a48.664 48.664 0 0 0-.769 3.138c-.178.938-.437 2.336-.586 3.452l-.113.903a43.892 43.892 0 0 0-.24 2.821l-.007.14c-.005.107-.01.216-.011.313-.006 1.29.027 2.861.094 4.425.055 1.146.127 2.284.213 3.271.022.249.059.522.099.803l.199 1.2c.091.489.181.946.265 1.37l.084.43c.026.127.054.262.085.398l.05.23a48.09 48.09 0 0 0 1.391 4.75l-.9.449.94-.339.188.507c.055.14.108.275.153.377.144.33.299.698.458 1.077l.113.27c.277.626.589 1.319.904 1.96l-.839.558.888-.461c.116.209.242.442.372.684l.2.371c.631 1.087 1.589 2.562 2.548 3.92L887 1116.943a210.291 210.291 0 0 1 11.654 15.795l1.117 1.59a483.38 483.38 0 0 1 8.103 11.977 260.529 260.529 0 0 1 3.579 5.611c2.864 4.639 6.22 10.335 9.975 16.93a966.568 966.568 0 0 1 8.865 15.867c1.183 2.163 2.528 4.786 4.115 8.016a528.195 528.195 0 0 1 5.139 10.805l.441.956c1.966 4.219 4.3 9.663 5.883 13.392a1152.56 1152.56 0 0 1 1.537 3.604 346.497 346.497 0 0 1 4.16 10.274l.232.604c.211.549.399 1.037.583 1.525a209.93 209.93 0 0 1 2.746 7.609c.458 1.364.968 2.838 1.499 4.361l.135.384c1.121 3.2 2.28 6.508 3.299 9.64l.626 1.952c.312.99.612 1.964.878 2.884.9 3.115 1.872 6.529 2.861 10.07 3.084 10.98 5.44 20.068 7.005 27.009l.406 1.824c3.3 14.898 5.882 31.534 6.734 38.521.687 5.621 1.388 12.541 2.084 20.566.515 5.903 1.001 12.104 1.406 17.931.106 1.518.198 3.28.274 5.24.021.475.037.961.053 1.447l.03.857c.112 3.544.18 7.663.208 12.591l-.999.165 1-.007.005.83c.028 4.893.01 8.79-.058 12.266l-.055 2.33c-.056 2.01-.124 3.718-.211 5.218a899.309 899.309 0 0 1-1.093 16.12c-.611 8.122-1.312 16.23-1.973 22.831a174.828 174.828 0 0 1-.602 5.142c-.092.707-.188 1.427-.289 2.152l-.031.23a457.614 457.614 0 0 1-1.542 10.169l-.401 2.465-1.006-.043.987.157-.163.968a540.317 540.317 0 0 1-3.58 19.102l-22.56 108.018a38.059 38.059 0 0 1-.409 1.677c-.104.381-.216.764-.334 1.145l-.147.486c-.174.54-.359 1.075-.559 1.607l-.052.13c-.206.535-.394.998-.592 1.459l-.234.524a40.44 40.44 0 0 1-.776 1.632c-.174.343-.354.682-.536 1.02l-.299.546c-.216.384-.441.764-.672 1.143l-.232.388c-.311.5-.637 1-.975 1.497l-.244.348c-.268.383-.536.761-.815 1.138l-.39.513c-.25.324-.5.646-.758.965l-.437.533c-.269.324-.543.646-.821.964l-.424.484c-.355.396-.721.791-1.094 1.183l-.219.233a54.42 54.42 0 0 1-1.379 1.383l-.427.403c-.34.323-.687.648-1.043.971l-.548.488c-.332.295-.671.59-1.016.882l-.578.487c-.366.305-.744.609-1.126.914l-.517.412a77.44 77.44 0 0 1-1.704 1.294l-.084.06c-.556.407-1.124.812-1.703 1.213l-.593.404c-.421.286-.845.571-1.277.854l-.698.453c-.422.27-.848.538-1.278.805l-.707.436c-.482.293-.976.584-1.473.874l-.56.329c-.688.396-1.387.786-2.097 1.174l-.43.229c-.576.311-1.16.62-1.753.927l-.76.387c-.498.253-1.003.505-1.513.755l-.839.408c-.515.248-1.034.493-1.559.737l-.812.376c-.633.289-1.274.576-1.923.86l-.494.219c-.816.355-1.646.705-2.487 1.053l-.682.276c-.623.253-1.251.506-1.887.755l-.932.361c-.574.222-1.153.441-1.738.659l-.987.365c-.612.224-1.23.445-1.854.666l-.888.314c-.87.303-1.751.603-2.643.898l-.163.055c-.934.311-1.894.617-2.861.922l-.911.282c-.678.21-1.358.418-2.047.625l-1.09.321c-.659.192-1.323.385-1.991.574l-1.094.31c-.736.204-1.478.405-2.222.605l-.903.244c-1.045.276-2.102.55-3.172.818l-.49.12c-.91.227-1.831.451-2.763.673l-1.104.259c-.741.174-1.487.346-2.239.516l-1.239.277c-.745.164-1.495.326-2.249.487l-1.206.256c-.876.184-1.761.363-2.65.542l-.837.169c-1.169.231-2.352.459-3.544.682l-.875.159c-.912.169-1.83.335-2.757.498l-1.276.222c-.818.141-1.637.279-2.462.416l-1.364.224c-.847.138-1.701.271-2.561.405l-1.249.194a452.9 452.9 0 0 1-3.376.5l-.478.069a395.87 395.87 0 0 1-3.919.539l-1.175.153c-.939.123-1.881.244-2.829.361l-1.457.179c-.888.107-1.78.213-2.679.316l-1.485.17c-.956.107-1.922.212-2.891.315l-1.278.137a529.87 529.87 0 0 1-4.207.421l-.384.036c-1.289.122-2.589.241-3.898.355l-1.421.121c-.983.085-1.971.167-2.966.246l-1.612.126a602.9 602.9 0 0 1-2.918.218l-1.578.113c-1.105.077-2.217.15-3.333.223l-1.195.077c-1.505.094-3.021.183-4.55.268l-1.064.056c-1.189.064-2.384.126-3.587.184l-1.573.072c-1.104.051-2.146.097-3.196.14l-1.751.07c-1.059.041-2.123.079-3.191.116l-1.645.056c-1.327.043-2.663.082-4.004.118l-.857.024c-1.632.042-3.273.078-4.926.109l-1.4.024c-1.199.021-2.398.04-3.607.056l-1.816.021a727.05 727.05 0 0 1-3.328.029l-1.868.012c-1.165.005-2.337.007-3.511.008zM95.985 1426.053c-5.451 24.762 17.087 54.422 65.18 85.771 126.066 82.177 390.631 150.2 589.759 151.635 1.739.013 3.466.019 5.184.021l1.673-.001c1.171-.001 2.341-.003 3.503-.008l1.863-.012c1.112-.007 2.219-.018 3.319-.029l1.813-.021c1.205-.016 2.402-.035 3.598-.056l1.396-.024c1.649-.031 3.287-.067 4.913-.109l.855-.024c1.339-.036 2.671-.073 3.994-.117l1.64-.055c1.065-.037 2.128-.075 3.184-.116l1.745-.07c1.047-.043 2.087-.089 3.124-.137l1.632-.075c1.2-.058 2.391-.119 3.577-.184l1.062-.055c1.521-.084 3.033-.173 4.535-.267l1.19-.077c1.111-.072 2.221-.146 3.321-.221l1.573-.113c.974-.07 1.944-.143 2.909-.218l1.606-.126c.992-.079 1.976-.16 2.956-.244l1.416-.121c1.304-.114 2.6-.233 3.885-.355l.383-.035c1.406-.135 2.803-.275 4.189-.419l1.272-.136c.964-.104 1.926-.208 2.879-.315l1.48-.168a733.73 733.73 0 0 0 2.667-.315l1.45-.178c.945-.117 1.883-.238 2.816-.359l1.171-.153c1.312-.175 2.612-.353 3.901-.537l.477-.069c1.126-.162 2.246-.328 3.358-.497l1.24-.193c.855-.133 1.706-.266 2.55-.403l1.357-.223c.819-.136 1.636-.274 2.447-.413l1.27-.221c.923-.162 1.835-.328 2.743-.495l.87-.159c1.185-.221 2.36-.446 3.523-.677l.831-.168a330.28 330.28 0 0 0 2.635-.538l1.196-.255c.748-.16 1.494-.32 2.234-.484l1.231-.275c.747-.168 1.487-.34 2.225-.512l1.096-.257c.925-.22 1.84-.443 2.747-.67l.484-.117c1.06-.267 2.108-.538 3.147-.813l.893-.24c.741-.199 1.476-.398 2.204-.601l1.085-.308c.664-.188 1.322-.378 1.975-.57l1.079-.317c.681-.205 1.357-.411 2.029-.619l.901-.279c.96-.302 1.908-.605 2.842-.916l.115-.038c.922-.306 1.793-.604 2.654-.902l.88-.312c.613-.218 1.226-.438 1.833-.659l.975-.36c.576-.215 1.149-.433 1.717-.651l.922-.356c.627-.247 1.247-.496 1.862-.747l.673-.272a157.33 157.33 0 0 0 2.452-1.037l.489-.217c.639-.28 1.271-.562 1.894-.847l.801-.371c.517-.241 1.028-.482 1.534-.726l.824-.4c.504-.247 1-.495 1.489-.744l.746-.38c.585-.302 1.157-.605 1.725-.911l.424-.227c.693-.378 1.378-.763 2.053-1.149l.549-.322c.488-.284.97-.569 1.443-.857l.69-.425c.423-.263.841-.525 1.254-.79l.683-.441c.422-.276.836-.556 1.247-.835l.577-.395a73.769 73.769 0 0 0 3.401-2.5l.503-.4c.368-.294.734-.589 1.092-.888l.562-.473c.334-.283.661-.568.983-.854l.531-.475c.344-.311.679-.624 1.009-.939l.413-.39c.454-.44.899-.886 1.331-1.335l.207-.221c.36-.38.712-.759 1.055-1.141l.408-.467c.267-.306.53-.613.786-.922l.421-.515c.247-.307.487-.614.725-.924l.373-.489c.266-.36.524-.723.778-1.087l.235-.334c.32-.471.631-.947.929-1.427l.221-.369c.219-.359.433-.72.638-1.083l.254-.465a33.977 33.977 0 0 0 1.275-2.568l.225-.501a37.468 37.468 0 0 0 .578-1.426c.218-.576.392-1.082.556-1.591l.141-.462c.111-.36.218-.72.314-1.08.049-.179.094-.356.139-.532.094-.371.173-.711.248-1.052l.079-.334 22.479-107.672.004-.017v-.001a539.941 539.941 0 0 0 3.56-18.998l.158-.943.021-.127.401-2.466a458.136 458.136 0 0 0 1.535-10.123l.031-.229c.099-.717.195-1.433.287-2.134.252-1.943.446-3.606.594-5.083.659-6.584 1.358-14.676 1.969-22.783a924.22 924.22 0 0 0 1.091-16.084c.085-1.479.153-3.167.207-5.158l.055-2.312c.067-3.46.086-7.341.058-12.216l-.005-.829.999-.161-.999.033c-.028-4.943-.097-9.045-.209-12.574l-.028-.85c-.017-.482-.033-.962-.053-1.435a174.67 174.67 0 0 0-.271-5.183 1046.41 1046.41 0 0 0-1.403-17.896c-.695-8.003-1.394-14.899-2.077-20.498-.848-6.949-3.417-23.501-6.702-38.331l-.404-1.816c-1.557-6.906-3.904-15.96-6.979-26.909-.987-3.536-1.959-6.944-2.857-10.055a125.5 125.5 0 0 0-.865-2.84l-.618-1.929c-1.013-3.113-2.168-6.411-3.285-9.601l-.136-.386a473.059 473.059 0 0 1-1.507-4.384 211.159 211.159 0 0 0-2.72-7.538c-.184-.486-.37-.971-.558-1.458l-.253-.659a349.033 349.033 0 0 0-4.136-10.214c-.479-1.13-1-2.348-1.536-3.601-1.578-3.717-3.902-9.141-5.856-13.333l-.443-.96a524.55 524.55 0 0 0-5.101-10.725c-1.592-3.24-2.925-5.838-4.094-7.976a959.419 959.419 0 0 0-8.847-15.835c-3.744-6.576-7.088-12.251-9.938-16.87a259.49 259.49 0 0 0-3.505-5.496 477.187 477.187 0 0 0-8.113-11.994l-1.116-1.589c-.575-.822-1.2-1.69-1.842-2.577a548.815 548.815 0 0 0-9.754-13.137l-.019-.025-156.257-202.374c-1.017-1.438-2.01-2.97-2.684-4.13l-.217-.401c-.126-.233-.247-.458-.359-.66a6.845 6.845 0 0 1-.062-.12 52.058 52.058 0 0 1-.979-2.115l-.121-.288c-.155-.37-.307-.729-.446-1.05-.053-.12-.118-.283-.188-.462l-.202-.546-.046-.124a52.123 52.123 0 0 1-.928-2.938 43.075 43.075 0 0 1-.524-2.021l-.045-.209a23.019 23.019 0 0 1-.103-.482l-.086-.436c-.085-.431-.176-.895-.263-1.363l-.045-.251c-.038-.212-.073-.428-.108-.644l-.063-.408c-.046-.32-.086-.631-.112-.915a90.47 90.47 0 0 1-.219-3.358 101.546 101.546 0 0 1-.096-4.525c.001-.125.007-.261.013-.396l.007-.138c.032-.64.102-1.663.252-2.962l.105-.849c.167-1.253.433-2.688.619-3.666.227-1.088.496-2.188.805-3.29l.031-.111c.068-.239.136-.476.2-.69l.416-1.335.037-.11c.445-1.351.792-2.198.822-2.264a98.714 98.714 0 0 1 1.882-4.073 85.278 85.278 0 0 1 1.546-2.994c.136-.249.297-.518.466-.79l.226-.355c.118-.184.237-.367.361-.554l.137-.204c.244-.36.492-.719.726-1.057l.676-.958a48.466 48.466 0 0 1 2.187-2.716c.391-.451.783-.894 1.162-1.301l.086-.09.341-.355c.192-.195.319-.322.421-.416.238-.221.496-.467.763-.721l.295-.28a51.923 51.923 0 0 1 1.733-1.538l.05-.041c.021-.021.044-.039.067-.057.188-.145.395-.306.607-.473l.333-.261c1.072-.79 2.578-1.784 4.052-2.679L966.79 727.658c5.854-3.229 13.354-7.579 18.656-10.824 5.061-3.098 12.363-7.723 17.686-11.414 8.146-5.65 19.87-14.37 31.361-23.328 4.825-3.763 11.038-9.247 15.574-13.252l.076-.068c12.905-11.393 25.62-24.5 28.55-27.735 1.275-1.409 2.701-2.949 4.177-4.544 3.305-3.568 6.721-7.259 9.373-10.455 7.182-8.654 17.212-20.974 24.217-30.513 9.152-12.467 18.466-27.118 22.186-33.425 5.021-8.513 12.047-21.33 18.794-34.287 2.829-5.433 6.216-12.972 8.519-18.17 2.522-5.695 5.683-12.952 7.752-18.553 4.08-11.045 9.259-26.039 12.887-37.311 1.837-5.708 3.848-13.444 5.394-19.546.994-3.917 2.062-8.681 3.096-13.288a983.05 983.05 0 0 1 1.385-6.121l20.062-96.101c-8.229 13.97-26.245 25.569-52.964 33.943-34.375 10.774-83.469 16.231-141.898 15.825-199.452-1.438-464.5-69.606-590.837-151.959-49.224-32.086-64.416-57.506-66.588-75.512l-20.064 96.105a532.764 532.764 0 0 0-3.733 20.03c-.93 5.663-2.238 13.905-2.855 20.077-1.165 11.642-2.401 27.452-3.076 39.344-.34 6.007-.338 13.906-.298 20.116.038 5.707.137 13.997.562 20.089 1.014 14.556 2.342 29.107 3.551 38.925.634 5.146 3.132 22.296 7.036 39.617 2.042 9.062 5.421 21.72 10.041 37.622 1.172 4.032 2.854 8.83 4.48 13.47a592.623 592.623 0 0 1 2.009 5.795c2.077 6.142 5.176 13.887 7.384 19.086 2.147 5.058 5.296 12.415 7.834 17.891 3.851 8.309 6.858 14.428 9.195 18.705 6.963 12.747 14.262 25.41 19.526 33.874 4.032 6.484 9.731 14.688 11.994 17.913 2.273 3.241 5.14 7.069 7.912 10.771l2.231 2.985a65.96 65.96 0 0 0 1.458 1.965l156.271 202.379c.27.364.499.687.722 1.002l.479.698c.19.283.366.551.533.811.124.194.242.384.354.568.28.472.573 1.013.846 1.516l.235.434c.405.802.774 1.608 1.18 2.518l.074.176c.154.367.304.725.444 1.043.056.128.121.291.189.471.07.185.14.369.21.566l.034.094c.312.889.643 1.935.932 2.949.188.66.366 1.345.522 2.016l.253 1.227c.079.403.163.832.243 1.265l.045.251c.037.203.071.414.105.624l.067.43c.046.324.087.634.111.919a89.58 89.58 0 0 1 .219 3.355c.067 1.576.102 3.182.096 4.524-.001.279-.015.584-.031.895-.016.254-.034.505-.054.757l-.01.119c-.033.392-.065.71-.099 1.02l-.017.164-.176 1.458c-.154 1.163-.423 2.611-.61 3.6-.254 1.116-.577 2.497-.889 3.579l-.421 1.403-.05.158c-.094.297-.193.603-.297.908l-.032.096c-.111.322-.195.558-.279.788-.111.299-.222.585-.332.842a98.388 98.388 0 0 1-1.894 4.101 86.019 86.019 0 0 1-1.545 2.991c-.138.252-.298.52-.467.791l-.225.354c-.118.184-.238.369-.362.556l-.126.188c-.266.392-.526.769-.771 1.121l-.639.904a48.764 48.764 0 0 1-2.203 2.733c-.384.444-.772.882-1.147 1.285l-.087.091c-.136.146-.266.278-.396.412-.135.137-.264.266-.368.361-.237.221-.502.473-.775.732l-.278.265a55.54 55.54 0 0 1-1.732 1.539l-.07.058-.025.021-.021.017-.94.733c-1.074.791-2.58 1.785-4.054 2.679L348.055 1005.91a222.411 222.411 0 0 0-16.888 9.748l-3.044 1.864c-6.166 3.787-10.672 6.681-14.181 9.105-.776.523-1.521 1.031-2.225 1.52-7.894 5.475-17.014 12.316-23.274 17.093a755.37 755.37 0 0 0-6.942 5.308c-1.943 1.506-4.229 3.372-6.985 5.706a531.936 531.936 0 0 0-8.982 7.806l-.825.732c-12.928 11.413-25.628 24.509-28.551 27.737a484.993 484.993 0 0 1-3.106 3.386l-.154.166c-2.358 2.538-4.797 5.163-7.022 7.67l-1.327 1.506c-.677.777-1.335 1.542-1.939 2.271a1285.055 1285.055 0 0 0-6.63 8.06c-7.197 8.804-12.972 16.162-17.164 21.872-.592.808-1.18 1.615-1.764 2.424a437.102 437.102 0 0 0-9.128 13.16l-4.697 7.152c-2.775 4.303-5.337 8.415-7.021 11.27-2.847 4.825-6.22 10.817-10.024 17.81a1050.444 1050.444 0 0 0-8.523 15.983c-.7 1.34-1.462 2.863-2.33 4.657l-.991 2.065c-1.517 3.196-3.228 6.944-5.229 11.457l-.391.883c-1.979 4.465-3.513 8.023-4.83 11.209l-.203.496c-.228.554-.454 1.104-.672 1.646a168.26 168.26 0 0 0-1.87 4.804 911.24 911.24 0 0 0-5.382 15.023c-2.712 7.752-5.328 15.502-7.365 21.821-.457 1.415-.944 3.02-1.491 4.905a221.36 221.36 0 0 0-.586 2.053l-.067.235a449.595 449.595 0 0 0-2.646 9.905l-.028.108a5.494 5.494 0 0 0-.026.107l-.825 3.245a542.298 542.298 0 0 0-4.336 18.823l-22.378 107.188c-.003.052-.01.104-.021.156l-.001.006zm1174.307-1054.74c.273-.947.523-1.899.724-2.863-.22.875-.464 1.856-.724 2.863z"/><path d="M1270.293 372.313a1 1 0 0 1-.969-1.251c.193-.747.377-1.48.55-2.167l.173-.689a1 1 0 0 1 1.948.449 40.353 40.353 0 0 1-.742 2.937 1 1 0 0 1-.96.721z"/><path d="M1044.296 437.214c-228.277-1.645-530.52-79.367-675.076-173.598-56.917-37.102-80.903-71.23-75.131-98.876a82.847 82.847 0 0 0-.969 6.249c-.178 1.621-.346 3.796-.313 5.426.062 3.055.333 7.126.677 10.161.209 1.842.737 4.264 1.165 6.066 1.508 6.344 3.676 11.422 4.096 12.375 1.042 2.367 2.52 5.486 3.734 7.77 1.132 2.129 2.781 4.894 4.079 6.927 2.205 3.452 5.313 7.97 7.981 11.077 2.202 2.565 5.046 6.067 7.359 8.532 3.073 3.275 7.271 7.557 10.583 10.589 7.699 7.048 18.699 15.617 26.986 21.964 4.695 3.596 11.378 7.807 16.254 11.152 7.375 4.752 17.356 10.862 24.965 15.229 7.313 4.198 17.147 9.663 24.701 13.411 15.682 7.782 36.845 17.646 52.82 24.806 8.969 4.021 21.159 8.853 30.305 12.452 26.339 10.366 49.701 18.354 63.294 22.878 9.98 3.321 23.326 7.636 33.401 10.654 20.707 6.203 48.436 14.089 69.366 19.488 29.843 7.698 51.208 12.339 71.871 16.826 10.892 2.366 25.477 5.229 36.428 7.299 14.736 2.786 41.035 7.572 73.081 12.162 10.987 1.573 25.653 3.57 36.682 4.817 10.696 1.208 24.973 2.666 35.676 3.809 10.518 1.122 24.594 2.066 35.143 2.848 10.586.783 24.726 1.476 35.333 1.877 9.979.377 23.293.632 33.278.766 10.939.146 25.531-.079 36.465-.442 16.055-.533 37.452-1.923 53.415-3.714 13.666-1.532 31.82-4.334 45.266-7.218 9.443-2.024 21.958-5.224 31.071-8.424 4.106-1.441 9.582-3.384 13.592-5.074 4.27-1.8 9.905-4.355 13.986-6.549 3.157-1.697 7.339-4.032 10.304-6.047 3.799-2.582 8.715-6.259 12.201-9.25 1.666-1.43 3.744-3.499 5.266-5.082 1.273-1.324 2.875-3.183 4.043-4.601 1.171-1.42 2.62-3.405 3.66-4.924.912-1.333 2.003-3.192 2.843-4.571.869-1.426 1.836-3.438 2.537-4.954.633-1.367 1.373-3.237 1.907-4.646.61-1.607 1.174-3.624 1.671-5.542-11.802 40.919-90.732 66.877-225.996 65.902z"/><path d="M1039.386 453.395c-2.612 0-5.081-.015-7.335-.045-6.065-.081-21.452-.318-33.303-.767-9.867-.373-24.341-1.062-35.369-1.879l-5.837-.426c-9.679-.702-20.648-1.497-29.338-2.425-3.441-.367-7.252-.768-11.195-1.181-8.469-.89-17.227-1.809-24.486-2.629-13.057-1.476-30.022-3.863-36.711-4.82-23.97-3.434-48.573-7.527-73.125-12.17-13.667-2.583-27.294-5.313-36.454-7.304-20.662-4.487-42.027-9.127-71.909-16.836-18.879-4.869-46.121-12.523-69.403-19.498-12.906-3.867-28.851-9.14-33.43-10.663-22.197-7.387-43.51-15.09-63.345-22.896-10.762-4.235-21.887-8.678-30.348-12.471-17.793-7.975-38.54-17.718-52.855-24.822-8.946-4.439-20.291-10.877-24.754-13.439-7.284-4.18-17.332-10.309-25.004-15.251a16.444 16.444 0 0 1-.531-.362c-1.436-.979-3.01-2.023-4.632-3.101-3.91-2.597-7.954-5.282-11.164-7.74-8.544-6.544-19.341-14.961-27.053-22.021-4.285-3.922-9.226-9.137-10.638-10.642-1.645-1.752-3.582-4.057-5.293-6.089a296.974 296.974 0 0 0-2.096-2.477c-3.242-3.775-6.721-9.084-8.065-11.19-1.454-2.278-3.071-5.024-4.119-6.995-1.121-2.108-2.6-5.184-3.767-7.836-.427-.97-2.628-6.128-4.153-12.547-.615-2.595-1.015-4.675-1.186-6.186-.347-3.049-.621-7.17-.684-10.253-.041-2.019.209-4.558.318-5.556.132-1.203.351-2.729.597-4.197.11-.719.239-1.435.389-2.146a1 1 0 0 1 1.96.398 75.847 75.847 0 0 0-.374 2.062c-4.277 27.875 21.611 60.937 75.069 95.783C513.953 356.77 816.55 434.573 1044.3 436.214c66.061.497 119.54-5.31 159.002-17.198 37.391-11.265 60.223-27.855 66.026-47.98a1.007 1.007 0 0 1 1.225-.688 1 1 0 0 1 .704 1.216c-.44 1.698-1.031 3.876-1.704 5.646-.416 1.099-1.222 3.172-1.935 4.711-1.039 2.246-1.886 3.899-2.591 5.055l-.578.957c-.733 1.215-1.563 2.593-2.293 3.658-.963 1.406-2.443 3.456-3.713 4.995-.541.657-2.437 2.934-4.095 4.658-.938.977-3.339 3.435-5.335 5.147-3.287 2.82-8.111 6.478-12.29 9.318-2.399 1.631-5.896 3.683-10.393 6.101-5.266 2.83-12.102 5.759-14.071 6.59-3.809 1.604-8.811 3.397-13.649 5.096-9.547 3.353-22.373 6.567-31.192 8.458-12.548 2.691-30.778 5.599-45.364 7.234-14.942 1.676-35.94 3.136-53.493 3.719a925.97 925.97 0 0 1-29.175.488zm-663.113-171.2c7.641 4.923 17.653 11.03 24.912 15.195 4.446 2.553 15.75 8.968 24.646 13.383 14.294 7.094 35.014 16.823 52.785 24.789 8.423 3.775 19.522 8.207 30.262 12.434 19.802 7.794 41.08 15.484 63.243 22.859 4.573 1.522 20.494 6.787 33.373 10.646 23.26 6.968 50.473 14.614 69.329 19.479 29.845 7.698 51.19 12.334 71.833 16.816 9.144 1.986 22.752 4.713 36.401 7.294 24.523 4.637 49.097 8.726 73.037 12.154 6.68.957 23.623 3.341 36.652 4.814 7.252.818 16.005 1.737 24.471 2.626 3.944.414 7.756.813 11.199 1.182 8.655.923 19.607 1.718 29.27 2.418l5.841.427c11.001.813 25.446 1.502 35.297 1.875 11.827.446 27.195.684 33.254.765 10.011.137 24.305-.039 36.418-.441 17.505-.582 38.441-2.037 53.337-3.709 14.526-1.629 32.678-4.522 45.167-7.201 8.761-1.878 21.491-5.068 30.95-8.39 4.809-1.688 9.775-3.468 13.534-5.053 1.949-.821 8.713-3.719 13.901-6.508 4.437-2.385 7.873-4.401 10.215-5.993 4.123-2.803 8.878-6.406 12.112-9.182 1.931-1.656 4.276-4.06 5.196-5.017 1.278-1.329 2.901-3.219 3.993-4.543 1.229-1.49 2.71-3.546 3.605-4.854.287-.419.594-.894.905-1.391-11.282 12.958-30.753 23.794-57.533 31.861-39.654 11.946-93.346 17.767-159.592 17.283-228.074-1.644-531.154-79.592-675.615-173.76-41.43-27.007-66.494-53.096-74.019-76.721.205 1.269.529 2.835.966 4.679 1.486 6.251 3.625 11.262 4.038 12.203 1.149 2.61 2.603 5.635 3.702 7.702 1.025 1.929 2.611 4.621 4.039 6.858 2.754 4.312 5.706 8.411 7.897 10.964.656.765 1.369 1.612 2.109 2.491 1.693 2.014 3.613 4.296 5.221 6.008 2.885 3.075 7.165 7.457 10.528 10.536 7.655 7.007 18.407 15.389 26.92 21.907 3.156 2.418 7.171 5.084 11.054 7.662.904.601 1.794 1.191 2.652 1.766.252-.03.494.089.689.271.419.393.865.758 1.33 1.091.163.11.321.218.476.325z"/></g><path d="M1064.118 342.265c-228.277-1.645-530.52-79.367-675.077-173.598-56.917-37.102-80.902-71.23-75.131-98.876l-19.822 94.949c-5.771 27.646 18.214 61.774 75.131 98.876 144.557 94.23 446.799 171.953 675.076 173.598 138.396.997 217.834-26.197 226.72-68.765l19.822-94.949c-8.886 42.567-88.323 69.762-226.719 68.765z" fill="url(#b)"/><path d="M1051.424 438.24c-2.366 0-4.741-.008-7.136-.025-228.074-1.644-531.154-79.592-675.615-173.76-55.524-36.194-81.654-70.745-75.563-99.918l19.821-94.949a.994.994 0 0 1 1.183-.774.998.998 0 0 1 .774 1.183c-5.906 28.298 19.924 62.129 74.699 97.834 144.19 93.992 446.787 171.795 674.537 173.436 2.39.018 4.786.026 7.145.026 128.167.003 209.671-25.269 218.591-67.995a.99.99 0 0 1 1.183-.774.998.998 0 0 1 .774 1.183l-19.822 94.949c-4.522 21.664-27.163 39.461-65.474 51.469-37.89 11.873-91.404 18.115-155.097 18.115zM312.29 82.447l-17.223 82.498c-5.907 28.298 19.923 62.129 74.698 97.834 144.19 93.992 446.787 171.795 674.537 173.436 132.259.953 216.65-24.456 225.735-67.969l17.244-82.604c-9.175 16.292-29.921 29.81-60.938 39.531-39.297 12.317-95.387 18.597-162.232 18.092-228.074-1.643-531.154-79.592-675.615-173.76-47.571-31.009-73.565-60.809-76.206-87.058z" fill="#111"/><ellipse cx="802.374" cy="171.646" fill="#fff" rx="139.784" ry="498.933" transform="matrix(.2044 -.9789 .9789 .2044 470.3786 922.009)"/><path d="M1071.593 343.292c-2.478 0-4.969-.009-7.482-.027-228.076-1.645-531.155-79.593-675.615-173.76-57.862-37.718-83.693-73.442-74.701-103.313 6.226-20.676 29.622-37.622 67.66-49.009C421.078 5.323 474.644-.465 540.638.026c228.073 1.644 531.153 79.591 675.615 173.759 57.862 37.718 83.693 73.443 74.701 103.312-6.226 20.676-29.622 37.623-67.66 49.01-38.114 11.409-89.124 17.185-151.701 17.185zM533.148 1.999c-62.385 0-113.19 5.747-151.12 17.101-37.363 11.185-60.296 27.668-66.318 47.67-4.211 13.989-.305 29.577 11.613 46.329 12.448 17.499 33.397 35.913 62.265 54.73 144.189 93.991 446.785 171.794 674.537 173.436 65.826.456 119.164-5.27 158.595-17.073 37.364-11.185 60.297-27.669 66.319-47.67 4.211-13.99.305-29.577-11.613-46.33-12.448-17.499-33.397-35.913-62.265-54.73C1070.969 81.47 768.373 3.667 540.624 2.027c-2.507-.018-5.006-.028-7.476-.028z" fill="#111"/><path d="m669.101 837.747-.093.052.054-.029.039-.023z" fill="#3658c1"/><path d="m669.546 838.644-.538-.845-.485-.874.039.056-.032-.06.093-.052a1 1 0 1 1 .942 1.765l-.089-.134zm-.445-.897.479.878z" fill="#111"/><path d="M932.708 692.112c-18.534 10.188-51.683 16.045-97.774 15.713-115.36-.832-268.097-40.108-341.149-87.728-13.94-9.087-23.97-17.821-30.274-26.001l-.283-.368.234.307 13.458 17.507.31.404 9.828 12.787a263252.9 263252.9 0 0 1 70.004 91.126 193586.358 193586.358 0 0 1 51.967 67.725c6.001 7.829 13.842 18.062 20.121 26.262a11844.578 11844.578 0 0 1 22.065 28.892c1.696 2.234 3.031 4.003 4.792 6.337l.001.002.586-.333c.167-.094.348-.196.531-.301l.122-.068-1.239.702a4037.171 4037.171 0 0 1 12.999-7.277l-.007.004 1.348-.75 1.921-1.068.162-.09.065-.036 3.387-1.883c4.816-2.676 10.318-5.728 16.372-9.082l.242-.134 14.776-8.184.069-.038a137026.559 137026.559 0 0 1 91.01-50.298 247356.305 247356.305 0 0 1 134.764-74.353l-.408.224zM649.727 836.779l.957 1.258.032.042-.989-1.3zm-4.742-6.222c1.63 2.138 3.121 4.093 4.455 5.846a7212.999 7212.999 0 0 0-4.455-5.846zm12.711 13.565.059-.033-.161.091.102-.058z" fill="#3658c1"/><path d="M656.01 846.076a1.05 1.05 0 0 1-.223-.024l-.001-.001-.004-.001a.918.918 0 0 1-.181-.061l-.005-.002a.99.99 0 0 1-.387-.31c-1.761-2.333-3.096-4.102-4.791-6.335-.777-1.023-1.631-2.146-2.56-3.364l-2.071-2.717c-4.437-5.818-10.254-13.43-17.432-22.808a77369.264 77369.264 0 0 0-20.11-26.249l-.019-.022a184056.277 184056.277 0 0 0-51.958-67.713 223096.84 223096.84 0 0 0-70.005-91.126l-23.833-31.008a1.001 1.001 0 0 1 1.589-1.214l.283.368c6.371 8.266 16.474 16.938 30.026 25.771 72.8 47.454 225.597 86.736 340.61 87.565 44.531.315 78.149-5.07 97.286-15.589l.001-.001.411-.227a1 1 0 0 1 .968 1.75l-.346.191a261009.514 261009.514 0 0 0-134.425 74.165 137026.559 137026.559 0 0 0-91.01 50.298l-.091.05-14.995 8.305c-6.054 3.354-11.556 6.406-16.372 9.082l-3.386 1.883-.147.082-3.349 1.862-.01.005-.102.057a3886.473 3886.473 0 0 0-12.873 7.207c-.014.008-.026.015-.04.021 0 0 0-.003-.003.002l-.002.001h-.001a.942.942 0 0 1-.442.107zm-4.484-8.583.485.639c1.523 2.008 2.757 3.639 4.268 5.642l.353-.2.001.001.124-.07.002.004.259-.146c.025-.019.053-.035.08-.051l.113-.063.002.004a.008.008 0 0 0 .004-.002l-.003-.004.003.004.013-.007-.002-.005.002.005c3.577-2.01 7.829-4.388 11.178-6.254l.112-.062a.114.114 0 0 1 .019-.01l3.247-1.807.169-.094 3.444-1.915c4.817-2.676 10.319-5.729 16.374-9.083l.241-.133 14.776-8.185a137026.559 137026.559 0 0 1 91.081-50.336c39.625-21.88 79.257-43.746 118.894-65.602-19.917 6.199-47.757 9.284-81.837 9.062-115.338-.832-268.618-40.259-341.688-87.89-6.996-4.561-13.091-9.086-18.249-13.545l12.86 16.733a234239.054 234239.054 0 0 1 69.948 91.053c23.759 30.953 36.873 48.042 52.007 67.776.009.011.018.021.024.031 5.995 7.82 13.836 18.053 20.114 26.253a19537.602 19537.602 0 0 1 15.836 20.713l1.641 2.152c.712.934 1.39 1.822 2.029 2.663l.786 1.031.02.026.244.32.023.03.989 1.301a.095.095 0 0 0 .014.021z" fill="#111"/><ellipse cx="702.662" cy="621.603" fill="#3658c1" rx="70.64" ry="252.135" transform="matrix(.2044 -.9789 .9789 .2044 -49.4174 1182.4061)"/><path d="M838.654 708.838c-1.237 0-2.472-.005-3.727-.014-115.338-.831-268.618-40.258-341.688-87.889-29.443-19.193-42.567-37.439-37.953-52.766 6.61-21.954 48.553-34.271 115.111-33.79 115.337.831 268.617 40.258 341.688 87.89 29.444 19.193 42.568 37.439 37.953 52.766-6.484 21.54-47.007 33.803-111.384 33.803zM566.803 536.367c-62.612 0-103.477 12.031-109.603 32.379-4.332 14.389 8.507 31.855 37.13 50.514 72.8 47.455 225.597 86.736 340.61 87.564 1.199.009 2.4.013 3.584.013 62.612.002 103.473-12.03 109.599-32.378 4.332-14.389-8.507-31.855-37.13-50.514-72.801-47.455-225.598-86.737-340.61-87.565a477.385 477.385 0 0 0-3.58-.013z" fill="#111"/><path d="M920.183 1536.218c2.578-70.872-52.957-117.839-107.599-153.75-88.144-57.928-182.273-109.794-291.327-119.71-69.556-6.324-146.848 2.33-214.348 14.069-72.148 12.548-148.561 37.91-166.229 118.046-69.294 160.061 761.767 343.928 777.003 162.017l-.003.013c2.137-10.29 2.41-18.125 2.503-20.685z" fill="#3658c1"/><path d="M734.617 1633.312c-70.7.002-156.706-10.252-247.032-30.332-154.562-34.359-280.671-88.201-329.109-140.515-21.741-23.479-28.05-46.323-18.752-67.901 18.28-82.661 98.853-106.867 167.015-118.722 85.349-14.845 155.549-19.45 214.609-14.08 111.571 10.144 206.175 63.607 291.786 119.87 45.201 29.706 64.728 50.735 75.484 63.969 23.098 28.42 33.75 58.072 32.564 90.652l-.999-.036.999.036-.999-.036.998.081c-.094 2.59-.379 10.457-2.508 20.732-2.303 27.175-22.479 47.502-59.971 60.415-30.858 10.63-73.568 15.866-124.085 15.867zm-263.278-371.713c-47.687 0-101.913 5.37-164.259 16.214-67.572 11.752-147.439 35.702-165.425 117.275a.991.991 0 0 1-.059.182c-9.01 20.81-2.837 42.961 18.345 65.837 48.178 52.03 173.89 105.645 328.077 139.921 154.526 34.353 296.315 39.918 370.032 14.527 36.701-12.642 56.428-32.407 58.635-58.749l.889.074-.875-.182c2.108-10.146 2.39-17.919 2.482-20.473l.002-.045c1.166-32.075-9.34-61.291-32.119-89.318-22.283-27.417-53.493-49.405-75.029-63.559-85.395-56.121-179.736-109.446-290.87-119.55-15.781-1.434-32.367-2.154-49.826-2.154zm447.324 295.486h.01z" fill="#111"/><path d="M771.867 1712.244c-228.277-1.645-530.52-79.367-675.077-173.598-56.917-37.102-80.903-71.23-75.131-98.876l-19.822 94.95c-5.771 27.646 18.214 61.774 75.131 98.876 144.557 94.23 446.799 171.953 675.077 173.598 138.396.997 217.833-26.197 226.72-68.765l19.822-94.949c-8.886 42.567-88.323 69.761-226.72 68.764z" fill="url(#c)"/><path d="M759.174 1808.219c-2.366 0-4.741-.008-7.136-.025-228.075-1.644-531.155-79.592-675.616-173.76-55.525-36.194-81.655-70.745-75.564-99.918l19.822-94.949a.99.99 0 0 1 1.183-.774.998.998 0 0 1 .774 1.183c-5.907 28.298 19.923 62.129 74.699 97.834 144.19 93.992 446.787 171.795 674.537 173.436 2.39.018 4.786.026 7.145.026 128.167.003 209.671-25.269 218.591-67.995a.995.995 0 0 1 1.183-.774.998.998 0 0 1 .774 1.183l-19.822 94.949c-4.522 21.664-27.163 39.461-65.473 51.469-37.89 11.874-91.404 18.115-155.097 18.115zM20.038 1452.427l-17.223 82.497c-5.907 28.298 19.923 62.129 74.699 97.834 144.19 93.992 446.787 171.795 674.538 173.436 132.246.938 216.649-24.456 225.734-67.969l17.244-82.604c-9.175 16.292-29.921 29.81-60.938 39.531-39.296 12.317-95.369 18.59-162.232 18.092-228.074-1.643-531.154-79.592-675.615-173.76-47.569-31.006-73.563-60.81-76.207-87.057z" fill="#111"/></svg></g><g transform="translate(1404.0 2196.0) rotate(0.0 481.79999999999995 285.0) scale(1.2003557716982118 1.2024885183442788)"><svg width="802.762" height="474.017" viewBox="0 0 802.762 474.017"><path d="M784.371 163.57 175.202 434.789c-19.458 8.664-47.329 2.794-62.251-13.121L18.295 320.719c-7.81-8.329-10.521-17.759-8.54-26.098l-8.132 34.227c-1.98 8.338.731 17.769 8.54 26.097l94.656 100.95c14.923 15.915 42.794 21.784 62.252 13.121l609.169-271.22c9.272-4.128 14.964-10.812 16.767-18.402l8.132-34.226c-1.804 7.589-7.495 14.273-16.768 18.402z" fill="#b0c3ff"/><path d="M147.032 473.994c-15.84 0-32.523-6.305-42.942-17.416L9.434 355.627c-7.707-8.22-10.908-18.064-8.783-27.012l8.132-34.227a.996.996 0 0 1 1.204-.741.999.999 0 0 1 .741 1.204c-1.968 8.281 1.057 17.46 8.297 25.183l94.656 100.949c14.628 15.6 42.043 21.38 61.115 12.892l609.168-271.22.001.001c8.646-3.851 14.4-10.144 16.201-17.721a1 1 0 1 1 1.945.463l-8.132 34.226c-1.947 8.197-8.103 14.976-17.333 19.084l-609.169 271.22c-6.192 2.758-13.231 4.066-20.445 4.066zM8.506 304.204l-5.91 24.874c-1.967 8.281 1.057 17.46 8.297 25.182l94.656 100.95c14.627 15.599 42.045 21.384 61.115 12.891l609.17-271.219c8.646-3.85 14.4-10.144 16.2-17.721l5.899-24.832c-3.083 4.182-7.554 7.659-13.156 10.153l-609.168 271.22c-19.787 8.812-48.225 2.823-63.388-13.351L17.565 321.402c-4.955-5.284-8.047-11.241-9.059-17.198zM784.371 163.57h.01z" fill="#111"/><path d="M635.688 5c19.459-8.664 47.335-2.788 62.252 13.121l94.656 100.95c14.923 15.915 11.235 35.835-8.224 44.499L175.203 434.789c-19.458 8.663-47.329 2.794-62.252-13.121l-94.656-100.95C3.378 304.81 7.061 284.883 26.519 276.22z" fill="#fff"/><path d="M155.163 439.768c-15.84 0-32.522-6.305-42.941-17.416l-94.656-100.95c-7.563-8.064-10.744-17.377-8.957-26.221 1.729-8.561 7.945-15.619 17.503-19.875L635.28 4.087l.408.913-.407-.913c19.788-8.812 48.224-2.823 63.389 13.351l94.656 100.949c7.564 8.067 10.746 17.38 8.959 26.222-1.729 8.561-7.946 15.618-17.506 19.874l-609.17 271.221c-6.192 2.756-13.232 4.064-20.446 4.064zM655.788 1.999c-6.951 0-13.729 1.259-19.693 3.914L26.925 277.132c-8.95 3.985-14.759 10.536-16.356 18.445-1.654 8.191 1.349 16.877 8.456 24.457l94.656 100.95c14.628 15.599 42.043 21.381 61.115 12.892l609.168-271.221c8.952-3.985 14.763-10.535 16.36-18.442 1.655-8.19-1.349-16.876-8.458-24.459L697.21 18.805C687.157 8.084 671.062 1.999 655.788 1.999z" fill="#111"/><g><path d="m502.071 127.757 146.286-63.441 67.962 71.485-146.286 63.44z" fill="#b0c3ff"/><path d="M570.033 200.241a.999.999 0 0 1-.725-.311l-67.962-71.483a.998.998 0 0 1 .327-1.607L647.959 63.4a1 1 0 0 1 1.122.228l67.963 71.483a.998.998 0 0 1-.327 1.607l-146.286 63.44a1.007 1.007 0 0 1-.398.083zm-66.251-72.136 66.494 69.94 144.332-62.593-66.495-69.94z" fill="#111"/></g><g><path d="m99.671 302.344 402.286-174.461 67.961 71.488-402.286 174.461z" fill="#3658c1"/><path d="M167.632 374.832a.999.999 0 0 1-.725-.311l-67.96-71.488a.998.998 0 0 1 .327-1.607l402.286-174.46a.999.999 0 0 1 1.122.228l67.961 71.487a.998.998 0 0 1-.327 1.607L168.029 374.749a.985.985 0 0 1-.397.083zm-66.249-72.14 66.492 69.945 400.332-173.614-66.493-69.944z" fill="#111"/></g></svg></g><g transform="translate(2060.4 1350.0) rotate(0.0 234.5999999999999 246.0) scale(1.2018504193156723 1.2027251992930321)"><svg width="390.398" height="409.071" viewBox="0 0 390.398 409.071"><path d="M175.412 259.35c-2.412-2.34-5.176-3.918-8.101-4.767l-33.292-9.655c2.924.848 5.689 2.427 8.101 4.767 9.332 9.056 9.838 26.081 1.128 38.03l-55.941 76.76c-2.866 3.929-6.375 6.823-10.127 8.612-4.698 2.241-9.776 2.747-14.444 1.393l33.292 9.655c4.669 1.354 9.746.848 14.445-1.392 3.752-1.789 7.261-4.682 10.127-8.612l55.941-76.76c8.709-11.951 8.202-28.975-1.129-38.031z" fill="#b0c3ff"/><path d="M101.297 385.884c-1.889 0-3.754-.258-5.548-.779l-33.285-9.652-.007-.002v-.001a1 1 0 0 1-.682-1.238.994.994 0 0 1 1.238-.682l.018.005c4.38 1.265 9.251.788 13.717-1.341 3.708-1.768 7.079-4.637 9.75-8.298l55.94-76.761c8.414-11.541 7.958-28.015-1.016-36.723-2.236-2.169-4.815-3.689-7.666-4.519l-.018-.006a1 1 0 0 1-.683-1.238c.153-.53.706-.831 1.239-.683v.001l33.293 9.655c3.178.921 6.043 2.606 8.519 5.009 9.661 9.376 10.217 27.021 1.239 39.336l-55.939 76.761c-2.866 3.929-6.499 7.016-10.505 8.926-3.098 1.479-6.383 2.23-9.604 2.23zm-29.915-9.928 24.924 7.229c4.387 1.271 9.264.798 13.735-1.335 3.708-1.769 7.079-4.638 9.75-8.299l55.939-76.761c8.413-11.541 7.957-28.015-1.016-36.723-2.238-2.172-4.823-3.694-7.683-4.524l-24.931-7.229c.241.215.479.436.714.663 9.661 9.375 10.217 27.021 1.239 39.336l-55.94 76.761c-2.866 3.93-6.499 7.016-10.505 8.925a22.953 22.953 0 0 1-6.226 1.957z" fill="#111"/><path d="m241.819 265.753-33.293-9.656c6.704 1.945 12.239 7.591 14.472 15.868l23.948 88.752c3.729 13.82-3.147 29.739-15.353 35.56-4.897 2.335-9.907 2.692-14.393 1.391l33.292 9.655c4.486 1.301 9.496.945 14.393-1.391 12.206-5.821 19.082-21.739 15.353-35.56L256.29 281.62c-2.232-8.276-7.767-13.923-14.471-15.867z" fill="#b0c3ff"/><path d="M255.788 409.076a19.96 19.96 0 0 1-5.574-.793l-33.277-9.65a1 1 0 1 1 .54-1.926c4.43 1.285 9.161.823 13.685-1.332 11.772-5.615 18.42-21.045 14.817-34.396l-23.947-88.752c-2.046-7.583-7.193-13.251-13.771-15.165l-.013-.004a1 1 0 0 1-.682-1.238.994.994 0 0 1 1.26-.676l33.271 9.65v-.001c7.262 2.105 12.928 8.299 15.158 16.567l23.948 88.752c3.841 14.239-3.286 30.713-15.889 36.723-3.122 1.489-6.345 2.241-9.526 2.241zm-29.918-9.935 24.901 7.223c4.429 1.282 9.16.822 13.684-1.333 11.773-5.615 18.421-21.045 14.818-34.396l-23.948-88.752c-2.046-7.589-7.199-13.259-13.783-15.168l-24.918-7.227c3.42 3.033 6 7.252 7.341 12.218l23.947 88.752c3.842 14.239-3.286 30.713-15.888 36.723-2.023.963-4.087 1.618-6.154 1.96z" fill="#111"/><path d="m144.981 171.78-33.292-9.655c10.968 3.181 17.515 15.916 14.837 29.777-1.932 9.975-8.148 18.005-15.789 21.649-3.752 1.789-7.844 2.52-11.935 1.908l-79.887-11.985 33.293 9.656 79.886 11.984c4.092.613 8.184-.119 11.935-1.908 7.641-3.644 13.858-11.673 15.79-21.648 2.678-13.862-3.869-26.597-14.838-29.778z" fill="#b0c3ff"/><path d="M134.939 226.324c-1.004 0-2.004-.074-2.994-.222l-79.887-11.984a1.161 1.161 0 0 1-.13-.029l-33.292-9.656a.998.998 0 0 1-.698-1.174c.113-.515.617-.84 1.125-.775l79.887 11.985c3.753.562 7.679-.068 11.356-1.821 7.6-3.624 13.438-11.646 15.238-20.937 2.559-13.24-3.518-25.547-14.134-28.626a1 1 0 1 1 .574-1.915l33.274 9.65c11.616 3.368 18.297 16.664 15.54 30.927-1.917 9.9-8.178 18.469-16.34 22.36-3.073 1.467-6.315 2.217-9.519 2.217zm-82.518-14.175 79.82 11.975c3.75.564 7.68-.068 11.356-1.821 7.601-3.625 13.439-11.646 15.238-20.936 2.559-13.241-3.518-25.548-14.134-28.627l-24.896-7.22c6.567 5.846 9.756 15.939 7.701 26.57-1.918 9.901-8.179 18.47-16.34 22.361-4.04 1.927-8.369 2.61-12.515 1.995l-65.08-9.765z" fill="#111"/><path d="m173.195 11.403-33.293-9.656c6.701 1.944 12.233 7.587 14.466 15.863l23.949 88.757c3.727 13.813-3.148 29.732-15.355 35.553-4.897 2.335-9.909 2.692-14.395 1.391l33.292 9.655c4.486 1.302 9.498.945 14.395-1.391 12.206-5.82 19.082-21.739 15.355-35.553L187.66 27.265c-2.232-8.275-7.764-13.919-14.465-15.862z" fill="#b0c3ff"/><path d="M187.158 154.72c-1.884 0-3.751-.263-5.576-.793l-33.292-9.655a1 1 0 1 1 .556-1.92c4.43 1.282 9.162.823 13.686-1.333 11.773-5.615 18.422-21.042 14.819-34.391l-23.949-88.757c-2.046-7.586-7.196-13.254-13.778-15.164a1 1 0 0 1-.682-1.238.994.994 0 0 1 1.238-.682l33.293 9.656c7.258 2.104 12.922 8.296 15.153 16.562l23.949 88.758c3.84 14.236-3.288 30.707-15.891 36.716-3.123 1.49-6.346 2.241-9.526 2.241zm-29.92-9.935 24.9 7.222c4.429 1.282 9.162.825 13.686-1.333 11.773-5.614 18.422-21.041 14.82-34.39l-23.949-88.758c-2.047-7.586-7.198-13.254-13.778-15.163l-24.92-7.228c3.419 3.032 5.997 7.249 7.337 12.214l23.949 88.757c3.841 14.236-3.287 30.707-15.89 36.717-2.022.965-4.088 1.62-6.155 1.962z" fill="#111"/><path d="m373.956 206.136-33.292-9.655c10.973 3.183 17.522 15.913 14.843 29.777-1.932 9.975-8.155 18.008-15.79 21.649-3.752 1.789-7.843 2.52-11.941 1.91l-79.882-11.994 33.292 9.655 79.882 11.995c4.098.608 8.189-.122 11.941-1.911 7.635-3.641 13.858-11.673 15.79-21.649 2.679-13.864-3.869-26.594-14.843-29.777z" fill="#b0c3ff"/><path d="M363.905 260.682c-1 0-1.997-.072-2.983-.219l-79.884-11.995a1.114 1.114 0 0 1-.13-.029l-33.292-9.655a.998.998 0 0 1-.698-1.174c.113-.515.612-.84 1.125-.775l79.882 11.994c3.759.561 7.688-.071 11.362-1.823 7.6-3.624 13.439-11.646 15.239-20.937 2.558-13.24-3.521-25.548-14.14-28.628a1 1 0 1 1 .556-1.92l.012.003 33.28 9.652c11.618 3.369 18.302 16.666 15.546 30.928-1.917 9.9-8.179 18.469-16.341 22.361-3.075 1.467-6.323 2.217-9.534 2.217zM281.401 246.5l79.815 11.984c3.758.559 7.688-.071 11.362-1.824 7.602-3.625 13.44-11.647 15.239-20.937 2.558-13.24-3.521-25.548-14.14-28.628l-24.896-7.22c6.57 5.847 9.761 15.941 7.706 26.572-1.918 9.901-8.18 18.47-16.341 22.361-4.037 1.925-8.367 2.613-12.52 1.997l-65.061-9.769z" fill="#111"/><path d="M335.76 39.343c-2.41-2.339-5.174-3.918-8.099-4.766l-33.292-9.655c2.924.848 5.688 2.426 8.099 4.766 9.332 9.055 9.838 26.08 1.13 38.036l-55.939 76.743c-2.872 3.933-6.38 6.827-10.126 8.613-4.7 2.241-9.779 2.747-14.449 1.393l33.292 9.655c4.67 1.354 9.75.849 14.449-1.392 3.747-1.786 7.255-4.68 10.127-8.613l55.938-76.744c8.709-11.955 8.203-28.98-1.13-38.036z" fill="#b0c3ff"/><path d="M261.65 165.867a19.91 19.91 0 0 1-5.552-.779l-33.293-9.655a1 1 0 1 1 .556-1.92l.013.003c4.385 1.269 9.26.793 13.728-1.338 3.702-1.765 7.073-4.635 9.749-8.3l55.939-76.742c8.41-11.548 7.953-28.024-1.019-36.729-2.233-2.169-4.812-3.688-7.664-4.518l-.017-.006a1 1 0 0 1-.683-1.238c.153-.53.706-.831 1.239-.683l.023.007 33.269 9.648c3.176.921 6.041 2.606 8.517 5.009 9.66 9.373 10.217 27.022 1.242 39.343l-55.938 76.743c-2.874 3.934-6.507 7.02-10.506 8.926-3.096 1.478-6.381 2.229-9.603 2.229zm-29.917-9.928 24.922 7.229c4.39 1.272 9.269.798 13.739-1.335 3.701-1.765 7.073-4.635 9.751-8.3l55.937-76.742c8.412-11.547 7.955-28.023-1.018-36.729-2.239-2.173-4.823-3.694-7.681-4.524l-24.933-7.229c.242.215.479.436.714.663 9.659 9.372 10.216 27.021 1.242 39.343l-55.94 76.743c-2.87 3.933-6.503 7.02-10.503 8.926a22.996 22.996 0 0 1-6.23 1.955z" fill="#111"/><path d="M119.58 246.32c7.64-3.644 16.28-2.7 22.539 3.374 9.332 9.056 9.839 26.08 1.128 38.029l-55.941 76.761c-2.866 3.93-6.375 6.823-10.126 8.612-7.641 3.644-16.286 2.701-22.54-3.371-9.338-9.053-9.84-26.087-1.13-38.036l55.943-76.753c2.868-3.934 6.377-6.827 10.127-8.616z" fill="#fff"/><path d="M68.057 376.226c-5.198.001-10.186-1.97-14.113-5.783-9.668-9.372-10.225-27.021-1.241-39.343l55.941-76.754c2.867-3.932 6.499-7.019 10.505-8.929 8.271-3.944 17.341-2.581 23.667 3.559 9.66 9.376 10.217 27.021 1.239 39.336l-55.94 76.761c-2.866 3.93-6.499 7.016-10.504 8.926-3.135 1.495-6.384 2.227-9.554 2.227zm60.626-131.027c-2.877 0-5.825.666-8.673 2.023-3.707 1.768-7.078 4.639-9.75 8.302l-55.941 76.754c-8.419 11.548-7.963 28.024 1.018 36.729 5.708 5.542 13.914 6.763 21.413 3.187 3.707-1.768 7.078-4.638 9.749-8.299l55.94-76.761c8.413-11.541 7.957-28.015-1.016-36.723-3.542-3.436-8.044-5.212-12.74-5.212zm-9.103 1.121h.01z" fill="#111"/><path d="M194.144 257.486c12.207-5.821 25.127.666 28.854 14.479l23.947 88.752c3.729 13.82-3.146 29.739-15.353 35.559-12.213 5.824-25.132-.657-28.861-14.476l-23.947-88.752c-3.726-13.813 3.147-29.738 15.36-35.562z" fill="#fff"/><path d="M222.478 399.418c-2.867 0-5.687-.607-8.334-1.825-6.027-2.772-10.424-8.289-12.378-15.531l-23.947-88.752c-3.841-14.24 3.289-30.715 15.895-36.726 5.941-2.835 12.286-2.98 17.87-.411 6.029 2.773 10.427 8.29 12.381 15.532l23.947 88.752c3.842 14.239-3.286 30.713-15.888 36.723-3.127 1.491-6.366 2.238-9.546 2.238zM203.251 256.35c-2.886 0-5.83.681-8.677 2.038-11.776 5.615-18.427 21.047-14.824 34.399l23.947 88.752c1.797 6.66 5.804 11.716 11.282 14.236 5.035 2.316 10.782 2.174 16.183-.401 11.772-5.615 18.42-21.045 14.817-34.396l-23.947-88.752c-1.796-6.659-5.805-11.716-11.285-14.237a17.864 17.864 0 0 0-7.496-1.639zm-9.107 1.136h.01z" fill="#111"/><path d="M17.388 151.505c3.751-1.788 7.842-2.52 11.937-1.906l79.886 11.984c12.438 1.865 20.189 15.443 17.314 30.319-1.932 9.975-8.148 18.005-15.789 21.648-3.752 1.789-7.844 2.52-11.935 1.908l-79.886-11.985c-12.44-1.871-20.195-15.439-17.314-30.318 1.928-9.978 8.148-18.007 15.787-21.65z" fill="#fff"/><path d="M101.645 216.669c-1.004 0-2.003-.074-2.992-.222l-79.887-11.984c-5.52-.83-10.438-3.948-13.853-8.779-4.336-6.137-5.901-14.418-4.294-22.72 1.912-9.899 8.173-18.469 16.338-22.361 4.039-1.925 8.364-2.615 12.517-1.993l79.886 11.984c5.514.827 10.43 3.94 13.843 8.768 4.341 6.139 5.91 14.424 4.305 22.729-1.918 9.902-8.18 18.47-16.341 22.361-3.076 1.467-6.319 2.217-9.522 2.217zm-83.826-64.262c-7.604 3.625-13.441 11.647-15.236 20.937-1.504 7.77-.059 15.491 3.965 21.186 3.096 4.382 7.541 7.207 12.516 7.955l79.887 11.984c3.752.566 7.678-.068 11.355-1.821 7.6-3.624 13.439-11.646 15.239-20.937 1.502-7.773.054-15.499-3.975-21.195-3.096-4.377-7.537-7.198-12.507-7.943l-79.886-11.984c-3.756-.567-7.682.066-11.358 1.818z" fill="#111"/><path d="M125.516 3.137c12.207-5.821 25.126.66 28.853 14.473l23.949 88.758c3.727 13.813-3.148 29.732-15.355 35.553-12.213 5.824-25.132-.657-28.859-14.47l-23.949-88.758c-3.728-13.814 3.148-29.733 15.361-35.556z" fill="#fff"/><path d="M153.847 145.062c-2.867 0-5.687-.607-8.334-1.825-6.027-2.773-10.422-8.287-12.376-15.526l-23.948-88.758c-3.841-14.235 3.29-30.707 15.896-36.719 5.942-2.835 12.289-2.98 17.871-.412 6.028 2.772 10.424 8.287 12.378 15.526l23.948 88.758c3.841 14.235-3.287 30.706-15.89 36.717-3.126 1.491-6.365 2.239-9.545 2.239zM125.516 3.137l.431.902c-11.777 5.616-18.429 21.045-14.826 34.393l23.948 88.758c1.796 6.656 5.802 11.71 11.28 14.23 5.035 2.316 10.783 2.174 16.183-.401 11.773-5.615 18.422-21.043 14.819-34.391L153.403 17.87c-1.796-6.657-5.803-11.711-11.281-14.231-5.032-2.313-10.777-2.171-16.175.4z" fill="#111"/><path d="M246.374 185.856c3.75-1.789 7.843-2.519 11.939-1.903l79.88 11.987c12.44 1.872 20.189 15.442 17.314 30.318-1.932 9.975-8.155 18.008-15.79 21.649-3.752 1.789-7.843 2.52-11.941 1.911l-79.882-11.994c-12.438-1.864-20.187-15.436-17.312-30.312 1.932-9.98 8.153-18.013 15.792-21.656z" fill="#fff"/><path d="M330.616 251.026c-1.002 0-1.999-.073-2.987-.22l-79.883-11.994c-5.514-.827-10.429-3.939-13.842-8.765-4.34-6.137-5.908-14.42-4.303-22.726 1.917-9.904 8.179-18.476 16.343-22.369 4.038-1.927 8.361-2.612 12.519-1.989l79.879 11.986c5.517.831 10.435 3.947 13.848 8.775 4.337 6.138 5.905 14.419 4.3 22.722-1.918 9.901-8.18 18.47-16.341 22.362-3.077 1.468-6.323 2.218-9.533 2.218zm-75.163-66.286c-2.903 0-5.849.683-8.647 2.018-7.603 3.626-13.442 11.651-15.241 20.944-1.502 7.772-.054 15.497 3.973 21.191 3.095 4.376 7.536 7.196 12.506 7.94l79.882 11.994c3.761.562 7.688-.071 11.362-1.823 7.601-3.625 13.439-11.647 15.239-20.938 1.501-7.77.055-15.492-3.971-21.187-3.095-4.38-7.538-7.204-12.511-7.952l-79.88-11.986a18.33 18.33 0 0 0-2.712-.201zm-9.079 1.115h.01z" fill="#111"/><path d="M279.924 26.316c7.642-3.645 16.285-2.703 22.545 3.371 9.332 9.056 9.838 26.081 1.129 38.036l-55.938 76.744c-2.872 3.933-6.38 6.826-10.127 8.613-7.641 3.644-16.285 2.7-22.546-3.368-9.332-9.056-9.84-26.087-1.13-38.036l55.939-76.744c2.867-3.933 6.377-6.827 10.128-8.616z" fill="#fff"/><path d="M228.41 156.211c-5.198 0-10.188-1.97-14.119-5.781-9.664-9.378-10.221-27.026-1.241-39.342l55.937-76.744c2.867-3.933 6.501-7.021 10.507-8.93 8.276-3.947 17.346-2.583 23.671 3.556 9.659 9.373 10.216 27.022 1.241 39.343l-55.937 76.744c-2.874 3.934-6.506 7.02-10.505 8.927-3.134 1.493-6.384 2.227-9.554 2.227zm60.623-131.018c-2.878 0-5.828.667-8.678 2.025-3.708 1.768-7.08 4.639-9.752 8.303l-55.937 76.744c-8.415 11.542-7.958 28.019 1.018 36.729 5.715 5.54 13.923 6.761 21.419 3.185 3.701-1.766 7.072-4.636 9.75-8.301l55.937-76.743c8.411-11.546 7.955-28.023-1.017-36.729-3.542-3.437-8.043-5.213-12.74-5.213zm-9.109 1.123h.01z" fill="#111"/></svg></g><g transform="translate(688.8 410.4) rotate(0.0 109.19999999999999 133.2) scale(1.236903211191029 1.2353636764126223)"><svg width="176.57" height="215.645" viewBox="0 0 176.57 215.645"><g><path d="M88.591.875 5.171 47.097l41.804 87.049-44.663 24.748 135.96 55.387 36.786-151.105-44.663 24.748z" fill="#3658c1"/><path d="M138.272 215.281a.985.985 0 0 1-.377-.074L1.935 159.82a.999.999 0 0 1-.107-1.801l43.838-24.29L4.27 47.53a1 1 0 0 1 .417-1.308L88.106 0a.999.999 0 0 1 1.386.443l41.346 86.093 43.736-24.234a.998.998 0 0 1 1.456 1.111l-36.786 151.105a1.002 1.002 0 0 1-.972.763zM4.625 158.757l132.95 54.16 35.972-147.761-42.667 23.643a.998.998 0 0 1-1.386-.443L88.148 2.263 6.481 47.515l41.396 86.198a1 1 0 0 1-.417 1.308z" fill="#111"/></g></svg></g></svg>