<svg xmlns="http://www.w3.org/2000/svg" viewBox="0 0 3000 3000" width="3000" height="3000"><g transform="translate(501.59999999999997 625.1999999999999) rotate(0.0 853.8 1014.6000000000001) scale(1.2836790982673036 1.2835629054621638)"><svg width="1330.239" height="1580.912" viewBox="0 0 1330.239 1580.912"><linearGradient id="a" gradientUnits="userSpaceOnUse" x1="904.6" x2="1071.882" y1="492.494" y2="423.016"><stop offset="0" stop-color="#111"/><stop offset=".564" stop-color="#3658c1"/></linearGradient><linearGradient id="b" gradientUnits="userSpaceOnUse" x1="740.66" x2="815.52" y1="759.649" y2="480.81"><stop offset=".434" stop-color="#3658c1"/><stop offset="1" stop-color="#111"/></linearGradient><linearGradient id="c" gradientUnits="userSpaceOnUse" x1="36.478" x2="335.75" y1="1149.846" y2="1205.424"><stop offset=".289" stop-color="#3658c1"/><stop offset="1" stop-color="#111"/></linearGradient><linearGradient id="d" gradientUnits="userSpaceOnUse" x1="959.265" x2="886.733" y1="927.273" y2="982.436"><stop offset="0" stop-color="#3658c1"/><stop offset="1" stop-color="#111"/></linearGradient><path d="m96.596 722.346 24.034 39.367c-.814-1.334-1.783-2.374-2.908-3.086-23.322-14.733-68.673-18.915-86.036-47.354L7.653 671.906c17.363 28.44 62.714 32.621 86.036 47.354 1.125.712 2.093 1.752 2.907 3.086" fill="#3658c1"/><path d="M120.632 762.713a.997.997 0 0 1-.854-.479v-.001c-.742-1.215-1.613-2.145-2.589-2.763-8.059-5.091-18.813-8.92-30.2-12.974-20.941-7.455-44.677-15.905-56.154-34.704L6.799 672.427a1 1 0 1 1 1.708-1.043c11.109 18.195 34.49 26.52 55.119 33.863 11.494 4.092 22.351 7.957 30.598 13.167 1.239.784 2.324 1.932 3.227 3.41l24.027 39.356.007.012a.999.999 0 0 1-.853 1.521zm-104.94-79.558 16.849 27.596c11.108 18.195 34.49 26.52 55.118 33.863 10.63 3.784 20.716 7.375 28.696 12.015l-20.612-33.761c-.742-1.215-1.613-2.145-2.589-2.763-8.059-5.091-18.814-8.92-30.2-12.974-16.465-5.861-34.658-12.338-47.262-23.976z" fill="#111"/><path d="M951.876 48.292 927.842 8.926l-79.005 288.926c1.203 7.127 3.647 13.57 7.082 19.195l24.034 39.367c-3.434-5.625-5.879-12.068-7.082-19.195z" fill="#3658c1"/><path d="M879.954 357.414a.997.997 0 0 1-.854-.479l-24.035-39.367c-3.589-5.88-6.017-12.458-7.214-19.551a1.007 1.007 0 0 1 .021-.43L926.877 8.662a1 1 0 0 1 1.818-.258L952.73 47.77c.144.235.184.52.111.785l-78.946 288.713c1.165 6.742 3.482 12.994 6.889 18.586l.023.038a1 1 0 0 1-.853 1.522zm-30.094-59.512c1.167 6.758 3.492 13.022 6.912 18.624l16.501 27.028a58.025 58.025 0 0 1-1.388-6.169 1.007 1.007 0 0 1 .021-.43l78.891-288.511-22.603-37.021z" fill="#111"/><path d="m85.398 877.331 24.034 39.367c-8.968-4.23-17.408-9.297-21.657-16.257l-24.034-39.367c4.249 6.959 12.689 12.026 21.657 16.257" fill="#3658c1"/><path d="M109.432 917.698a.987.987 0 0 1-.426-.096c-7.797-3.679-17.354-8.895-22.084-16.641L62.89 861.6l-.003-.005a1 1 0 1 1 1.708-1.043l.005.009c4.455 7.288 13.683 12.308 21.225 15.865.177.083.325.217.427.383l24.035 39.367a1 1 0 0 1-.855 1.522zm-39.468-48.35 18.665 30.57c3.866 6.333 11.333 10.952 18.173 14.389l-22.102-36.2c-4.785-2.268-10.195-5.112-14.736-8.759z" fill="#111"/><path d="m450.851 600.899 24.034 39.367c-11.477 9.379-18.85 20.909-22.189 32.829-4.029 14.382-2.187 29.334 5.404 41.767l-24.034-39.367c-7.591-12.433-9.433-27.385-5.404-41.767 3.339-11.919 10.713-23.449 22.189-32.829" fill="#3658c1"/><g fill="#111"><path d="M458.101 715.863a.997.997 0 0 1-.854-.479l-.015-.025-24.02-39.341c-7.707-12.625-9.665-27.739-5.513-42.559 3.549-12.668 11.336-24.195 22.52-33.334a1.001 1.001 0 0 1 1.487.253l24.035 39.366c.26.427.166.979-.221 1.296-10.863 8.878-18.422 20.056-21.859 32.324-4 14.28-2.12 28.833 5.294 40.977a1 1 0 0 1-.854 1.522zM450.6 602.408c-10.389 8.756-17.632 19.657-20.976 31.591-4 14.279-2.12 28.831 5.294 40.977l16.575 27.148c-2.582-9.342-2.538-19.386.239-29.298 3.477-12.413 11.023-23.729 21.847-32.778zm449.101-152.02 24.034 39.367c-9.03-10.536-20.636-16.865-32.931-19.188-21.578-4.076-45.277 4.19-60.881 23.72l-24.034-39.367c15.604-19.53 39.303-27.796 60.881-23.72 12.294 2.322 23.901 8.651 32.931 19.188"/><path d="m829.922 495.286-.063-.002a1 1 0 0 1-.791-.477l-24.034-39.366a1.002 1.002 0 0 1 .072-1.146c15.313-19.166 39.012-28.396 61.848-24.078 13.095 2.474 24.682 9.224 33.505 19.521.035.04.066.084.094.129l24.034 39.366a1 1 0 0 1-1.613 1.172c-8.525-9.946-19.714-16.467-32.357-18.856-22.109-4.177-45.064 4.775-59.915 23.361a.997.997 0 0 1-.78.376zm-22.813-40.287 22.931 37.56c15.332-18.415 38.552-27.21 60.949-22.976 10.264 1.939 19.602 6.506 27.408 13.348l-19.508-31.953c-8.519-9.914-19.688-16.412-32.306-18.796-21.89-4.135-44.613 4.602-59.474 22.817z"/></g><path d="m1045.894 358.73 24.034 39.367c10.479 17.163 13.967 38.613 8.006 60.412-12.085 44.194-58.437 73.114-103.534 64.595-22.102-4.175-39.808-16.584-50.666-33.349L899.7 450.388c10.858 16.764 28.564 29.173 50.666 33.349 45.097 8.519 91.449-20.4 103.534-64.595 5.962-21.8 2.473-43.249-8.006-60.412" fill="url(#a)"/><path d="M990.274 525.584a86.394 86.394 0 0 1-16.059-1.499c-21.628-4.085-39.854-16.084-51.32-33.787l-24.048-39.389a1 1 0 0 1 1.693-1.065c11.166 17.238 28.927 28.926 50.012 32.91 44.525 8.409 90.453-20.243 102.383-63.876 5.688-20.798 2.884-41.974-7.895-59.627a1 1 0 1 1 1.708-1.043l24.035 39.366c11.068 18.13 13.951 39.863 8.118 61.197-10.766 39.368-48.601 66.81-88.627 66.813zM908.573 463l16.016 26.232c11.152 17.217 28.913 28.905 49.999 32.888 44.523 8.407 90.453-20.244 102.384-63.876 5.688-20.797 2.883-41.973-7.896-59.627l-15.033-24.623c4.702 14.335 5.043 29.978.823 45.411-10.765 39.367-48.6 66.81-88.625 66.812a86.394 86.394 0 0 1-16.059-1.499c-16.272-3.073-30.619-10.627-41.609-21.718z" fill="#111"/><path d="m805.888 454.919 24.034 39.367-78.984 288.852-24.035-39.367z" fill="url(#b)"/><path d="M750.937 784.137a1 1 0 0 1-.853-.479l-24.035-39.366a.997.997 0 0 1-.111-.785l78.985-288.852a1 1 0 0 1 1.818-.258l24.034 39.366c.144.235.184.52.111.785L751.902 783.4a1 1 0 0 1-.965.737zm-22.955-40.518 22.603 37.021 78.259-286.201-22.602-37.021z" fill="#111"/><path d="m927.842 8.926-79.005 288.926c3.917 23.205 20.991 39.162 42.567 43.238 12.187 2.302 25.814.812 39.312-5.306 18.608-11.382 41.164-16.316 63.419-12.112 45.097 8.519 71.85 51.276 59.765 95.47s-58.437 73.114-103.534 64.595c-22.102-4.175-39.808-16.584-50.666-33.349-9.03-10.536-20.636-16.865-32.932-19.188-21.578-4.076-45.277 4.19-60.881 23.72l-78.985 288.852-278.049-52.526c-19.282-13.774-26.146-36.267-20.193-57.516 3.339-11.92 10.713-23.45 22.189-32.829 18.218-11.718 32.408-29.689 38.337-51.374 12.085-44.194-14.701-86.931-59.798-95.45-45.096-8.519-91.449 20.4-103.534 64.595-5.971 21.836-2.452 43.283 8.029 60.448 5.382 12.556 5.98 25.553 2.763 37.452-5.734 21.209-23.589 38.922-48.066 44.397L17.875 609.828c46.136-56.363 173.785-111.595 216.317-171.74 15.519-21.949.037-54.352 11.589-78.365C351.892 138.738 574.789-39.221 927.842 8.926z" fill="#b0c3ff"/><path d="M726.904 744.771a.995.995 0 0 1-.187-.018l-278.049-52.526a.976.976 0 0 1-.396-.169c-19.013-13.582-26.896-36.035-20.575-58.599 3.549-12.668 11.336-24.195 22.52-33.334.029-.023.06-.046.092-.066 18.798-12.092 32.263-30.131 37.914-50.797 5.761-21.068 2.815-42.461-8.294-60.237-11.143-17.829-29.157-29.893-50.725-33.967-44.522-8.404-90.453 20.244-102.384 63.876-5.687 20.799-2.875 41.987 7.918 59.663a.905.905 0 0 1 .065.128c5.26 12.271 6.231 25.448 2.809 38.105-6.069 22.45-24.773 39.735-48.813 45.112a.966.966 0 0 1-.404.007L17.689 610.811a.999.999 0 0 1-.588-1.617c21.939-26.802 61.255-52.708 102.879-80.135 44.792-29.515 91.108-60.033 113.396-91.549 8.09-11.442 7.559-25.612 6.996-40.614-.483-12.877-.983-26.191 4.509-37.606C302.24 239.834 388.282 144.134 493.704 82.536c58.805-34.358 123.861-58.304 193.362-71.17C761.958-2.496 843.013-3.651 927.977 7.935a1.002 1.002 0 0 1 .829 1.254L849.86 297.902c3.783 21.892 19.754 38.055 41.729 42.206 12.526 2.365 25.893.564 38.658-5.21 19.606-11.975 42.358-16.31 64.073-12.208 22.106 4.176 40.578 16.553 52.015 34.851 11.415 18.265 14.444 40.235 8.53 61.865-10.765 39.367-48.6 66.81-88.625 66.812a86.394 86.394 0 0 1-16.059-1.499c-21.606-4.082-39.815-16.059-51.283-33.73-8.52-9.92-19.692-16.423-32.314-18.807-22.042-4.162-44.932 4.724-59.786 23.201l-78.93 288.651a1 1 0 0 1-.964.737zm-277.647-54.468 276.925 52.313 78.742-287.961a.99.99 0 0 1 .183-.36c15.313-19.166 39.015-28.396 61.848-24.078 13.095 2.473 24.682 9.224 33.505 19.521a.92.92 0 0 1 .08.106c11.166 17.238 28.927 28.926 50.012 32.91 44.525 8.409 90.454-20.243 102.383-63.876 5.766-21.085 2.819-42.492-8.296-60.277-11.137-17.819-29.139-29.875-50.689-33.946-21.246-4.013-43.517.242-62.711 11.982-.035.021-.072.04-.109.058-13.161 5.964-26.962 7.822-39.911 5.378-22.893-4.324-39.51-21.205-43.367-44.055a1.007 1.007 0 0 1 .021-.43L926.577 9.763C842.236-1.631 761.78-.43 687.43 13.333c-69.272 12.823-134.111 36.688-192.717 70.931-105.076 61.395-190.844 156.797-248.03 275.893-5.277 10.969-4.787 24.032-4.313 36.665.551 14.675 1.12 29.849-7.361 41.844-22.504 31.824-68.981 62.448-113.928 92.064-40.815 26.894-79.405 52.322-101.353 78.431l268.836 50.785c23.216-5.265 41.261-21.969 47.119-43.637 3.298-12.196 2.368-24.896-2.689-36.731-11.051-18.139-13.929-39.86-8.102-61.171 12.2-44.613 59.161-73.918 104.684-65.313 22.123 4.179 40.608 16.563 52.05 34.872 11.409 18.255 14.437 40.211 8.527 61.824-5.776 21.125-19.524 39.562-38.712 51.92-10.839 8.872-18.383 20.036-21.816 32.289-6.068 21.66 1.453 43.212 19.632 56.304z" fill="#111"/><path d="m311.758 1211.832 24.034 39.366c-30.438-51.834-236.246-44.314-276.28-102.427a135.777 135.777 0 0 1-4.073-6.269l-24.034-39.366a136.05 136.05 0 0 0 4.073 6.268c40.034 58.114 245.842 50.594 276.28 102.428" fill="url(#c)"/><path d="M335.793 1252.199a.997.997 0 0 1-.854-.479l-.546-.895c-15.43-24.316-70.715-35.189-129.205-46.692-61.844-12.162-125.794-24.738-146.5-54.794a138.744 138.744 0 0 1-4.104-6.314l-24.004-39.317-.03-.051a.999.999 0 0 1 .333-1.374 1 1 0 0 1 1.375.332v.001a135.655 135.655 0 0 0 4.043 6.222c20.244 29.386 83.788 41.883 145.24 53.968 59.641 11.729 115.973 22.806 131.076 48.515l23.481 38.46c.191.302.377.606.557.912a1 1 0 0 1-.862 1.506zM41.715 1118.106l14.577 23.876a135.037 135.037 0 0 0 4.044 6.223c20.244 29.385 83.787 41.882 145.239 53.967 51.661 10.159 100.839 19.83 122.891 38.945l-17.561-28.763-.009-.015c-14.643-24.937-70.551-35.932-129.741-47.572-55.949-11.003-113.621-22.346-139.44-46.661z" fill="#111"/><path d="m950.677 799.012 24.034 39.367c13.882 22.738 8.532 53.891-16.807 74.579l-24.034-39.367c25.34-20.688 30.69-51.841 16.807-74.579" fill="#3658c1"/><path d="M957.905 913.958a1.001 1.001 0 0 1-.854-.479l-24.035-39.367a1 1 0 0 1 .221-1.296c12.021-9.815 19.894-22.247 22.766-35.951 2.738-13.063.543-26.321-6.179-37.332a1 1 0 1 1 1.708-1.043l24.034 39.366c6.989 11.447 9.272 25.222 6.43 38.785-2.967 14.157-11.078 26.983-23.458 37.091a.997.997 0 0 1-.633.226zm-22.73-40.148 22.981 37.642c11.523-9.698 19.081-21.854 21.881-35.22 2.738-13.063.543-26.321-6.179-37.332l-16.617-27.218c2.259 8.177 2.535 16.928.719 25.594-2.912 13.898-10.784 26.514-22.785 36.534z" fill="#111"/><path d="m933.87 873.592 24.034 39.367c-18.217 11.718-32.382 29.692-38.311 51.377-5.959 21.794-2.473 43.232 8.001 60.386l-24.034-39.367c-10.473-17.155-13.96-38.592-8.001-60.386 5.929-21.685 20.094-39.66 38.311-51.377" fill="url(#d)"/><path d="M927.595 1025.722a.997.997 0 0 1-.854-.479l-.025-.042-24.009-39.325c-11.062-18.119-13.943-39.844-8.112-61.171 5.785-21.157 19.542-39.608 38.735-51.955a1.003 1.003 0 0 1 1.395.319l24.035 39.367a1 1 0 0 1-.312 1.362c-18.777 12.078-32.233 30.119-37.888 50.8-5.681 20.777-2.886 41.932 7.871 59.57l.019.031a1 1 0 0 1-.855 1.523zm5.958-150.731c-18.329 12.073-31.462 29.879-37.03 50.242-5.685 20.791-2.882 41.957 7.89 59.601l15.036 24.629c-4.699-14.329-5.039-29.964-.82-45.391 5.703-20.855 19.15-39.081 37.916-51.422z" fill="#111"/><path d="m509.849 1537.551 24.034 39.367c-25.411-2.061-49.578-5.185-71.804-9.384-61.176-11.557-107.638-31.26-124.802-59.372l-24.034-39.366c17.164 28.113 63.626 47.815 124.802 59.372 22.226 4.197 46.393 7.322 71.804 9.383" fill="#3658c1"/><path d="m533.884 1577.917-.081-.003c-25.76-2.089-49.954-5.251-71.908-9.398-65.77-12.424-109.156-33.114-125.47-59.833l-24.034-39.367a1 1 0 1 1 1.708-1.043c16.009 26.224 58.934 46.595 124.134 58.911 21.877 4.133 46 7.285 71.699 9.369a1 1 0 0 1 .772.476l24.034 39.367a1.002 1.002 0 0 1-.854 1.521zm-211.617-96.261 15.864 25.984c16.011 26.224 58.936 46.595 124.134 58.911 21.329 4.028 44.781 7.125 69.74 9.208l-22.744-37.254c-25.578-2.09-49.6-5.237-71.401-9.356-55.257-10.439-94.717-26.713-115.593-47.493z" fill="#111"/><path d="M429.391 454.076c45.097 8.519 71.883 51.255 59.798 95.45-5.93 21.685-20.12 39.656-38.337 51.374-11.477 9.379-18.85 20.909-22.189 32.829-5.953 21.249.911 43.742 20.193 57.516l278.049 52.526-87.039 318.306c-16.849 19.738-39.262 27.416-59.886 23.899-13.846-2.805-25.118-9.081-33.926-19.367-10.884-16.769-28.59-29.178-50.692-33.354-45.096-8.519-91.449 20.4-103.534 64.595-12.085 44.194 14.669 86.951 59.765 95.47 22.255 4.204 44.836-.725 63.419-12.112a76.937 76.937 0 0 1 3.639-1.538c12.304-4.756 24.257-5.81 35.102-3.874 22.678 4.683 39.292 20.505 43.163 43.348L509.85 1537.55c-25.411-2.061-49.578-5.185-71.804-9.384-84.562-15.975-141.01-47.514-130.826-95.314 18.979-89.212 26.141-184.231 4.539-221.021-30.438-51.834-236.246-44.314-276.28-102.427-61.697-89.583 59.39-128.267 19.202-186.015-9.531-13.676 4.736-44.479 30.718-46.06-18.023-8.502-33.916-20.385-17.935-44.218 29.875-44.644 40.304-104.94 26.226-113.853-26.701-16.868-82.278-19.905-91.669-61.351-3.687-16.225 2.853-32.199 15.855-48.081l270.707 51.139c24.477-5.475 42.332-23.188 48.066-44.397 3.217-11.899 2.619-24.896-2.763-37.452-10.481-17.165-13.999-38.612-8.029-60.448 12.085-44.192 58.437-73.111 103.534-64.592z" fill="#fff"/><path d="m509.85 1538.55-.082-.003c-25.769-2.09-49.962-5.252-71.908-9.398-64.134-12.115-107.104-32.151-124.264-57.941-7.826-11.763-10.301-24.737-7.355-38.562 10.022-47.109 16.062-92.062 17.466-129.998 1.561-42.148-2.869-73.377-12.811-90.309-14.643-24.936-70.551-35.931-129.741-47.571-61.845-12.162-125.795-24.738-146.501-54.795-34.559-50.178-12.353-84.63 7.24-115.026 15.833-24.564 29.506-45.778 11.965-70.984-4.369-6.27-4.187-16.151.477-25.788 4.441-9.179 13.879-19.225 27.522-21.453-9.032-4.547-18.649-10.892-21.273-20.386-1.944-7.033.034-14.811 6.047-23.778 24.203-36.168 35.75-82.754 31.349-103.573-.943-4.46-2.567-7.447-4.827-8.878-8.059-5.091-18.813-8.919-30.2-12.973-25.904-9.223-55.265-19.675-61.91-49.003-3.509-15.443 1.743-31.45 16.056-48.935a.999.999 0 0 1 .959-.349l270.504 51.1c23.216-5.265 41.261-21.969 47.119-43.637 3.298-12.196 2.368-24.896-2.688-36.73-11.053-18.14-13.93-39.859-8.102-61.172 12.199-44.613 59.161-73.918 104.684-65.313 22.123 4.179 40.607 16.563 52.05 34.872 11.409 18.255 14.437 40.211 8.527 61.824-5.776 21.125-19.525 39.562-38.713 51.921-10.839 8.871-18.382 20.035-21.815 32.288-6.068 21.66 1.454 43.213 19.633 56.305l277.831 52.485a1.003 1.003 0 0 1 .78 1.246l-87.039 318.307a1.02 1.02 0 0 1-.204.386c-16.389 19.199-38.556 28.037-60.815 24.234-14.376-2.911-25.657-9.354-34.518-19.702a1.152 1.152 0 0 1-.079-.105c-11.192-17.245-28.963-28.935-50.039-32.916-44.52-8.408-90.452 20.244-102.384 63.876-5.765 21.085-2.819 42.492 8.297 60.277 11.137 17.819 29.139 29.875 50.689 33.946 21.27 4.018 43.542-.235 62.711-11.981.035-.021.072-.041.109-.058a76.327 76.327 0 0 1 3.687-1.559c12.087-4.672 24.077-5.993 35.644-3.928 23.687 4.892 40.115 21.4 43.973 44.165.024.144.017.29-.021.431l-87.065 318.406c-.12.436-.518.735-.965.735zM18.274 610.921C4.66 627.716-.338 643.018 2.995 657.687c6.402 28.255 35.212 38.512 60.63 47.561 11.494 4.092 22.351 7.957 30.598 13.167 2.734 1.731 4.656 5.147 5.715 10.155 4.485 21.217-7.16 68.512-31.645 105.099-5.669 8.456-7.56 15.695-5.781 22.134 2.712 9.812 13.883 16.176 23.312 20.624a1 1 0 0 1-.366 1.903c-14.66.893-24.76 11.286-29.322 20.716-4.349 8.987-4.592 18.097-.636 23.774 18.307 26.306 3.622 49.089-11.925 73.21-19.254 29.872-41.076 63.729-7.274 112.809 20.244 29.386 83.788 41.883 145.24 53.968 59.645 11.729 115.981 22.809 131.08 48.521 10.135 17.261 14.66 48.865 13.085 91.396-1.409 38.05-7.463 83.12-17.508 130.34-2.829 13.279-.452 25.741 7.064 37.038 16.854 25.332 59.377 45.071 122.97 57.085 21.643 4.089 45.483 7.218 70.873 9.302l86.789-317.392c-3.783-21.81-19.596-37.621-42.342-42.318-11.174-1.995-22.804-.707-34.54 3.827-1.18.463-2.369.965-3.53 1.49-19.581 11.98-42.333 16.318-64.075 12.209-22.105-4.176-40.578-16.553-52.014-34.851-11.415-18.265-14.444-40.235-8.529-61.865 12.199-44.614 59.161-73.915 104.684-65.313 21.595 4.079 39.814 16.059 51.309 33.735 8.554 9.968 19.454 16.179 33.322 18.987 21.451 3.655 42.877-4.867 58.782-23.398l86.693-317.045L448.67 692.23a.976.976 0 0 1-.396-.169c-19.012-13.582-26.896-36.035-20.575-58.599 3.549-12.668 11.336-24.195 22.52-33.334.029-.023.06-.046.092-.066 18.798-12.092 32.263-30.131 37.914-50.797 5.761-21.068 2.815-42.461-8.294-60.237-11.143-17.829-29.158-29.893-50.725-33.967-44.523-8.404-90.452 20.245-102.384 63.876-5.687 20.799-2.875 41.987 7.918 59.663a.905.905 0 0 1 .065.128c5.26 12.271 6.231 25.448 2.809 38.105-6.069 22.449-24.773 39.735-48.813 45.112a.966.966 0 0 1-.404.007z" fill="#111"/><path d="m596.915 1219.144 24.035 39.367-87.066 318.406-24.035-39.366z" fill="#3658c1"/><path d="M533.883 1577.917a1 1 0 0 1-.853-.479l-24.034-39.367a.997.997 0 0 1-.111-.785l87.066-318.406a1 1 0 0 1 1.818-.258l24.035 39.367c.144.235.184.52.111.785l-87.067 318.406a1 1 0 0 1-.965.737zm-22.955-40.519 22.602 37.021 86.341-315.756-22.603-37.021z" fill="#111"/><path d="m1305.205 853.018 24.034 39.367c-48.682 83.811-111.04 160.677-176.572 218.263-50.777 44.609-107.367 178.029-129.046 325.058-15.962 108.279-290.896 157.309-489.738 141.211l-24.034-39.367c198.841 16.098 473.776-32.932 489.738-141.211 21.679-147.029 78.269-280.449 129.046-325.058 65.532-57.585 127.89-134.452 176.572-218.263" fill="#3658c1"/><path d="M611.537 1580.954c-26.417 0-52.516-.999-77.734-3.04a1.002 1.002 0 0 1-.773-.476l-24.034-39.367c-.196-.321-.195-.726.002-1.046s.558-.497.932-.473c102.475 8.298 219.531-.652 313.126-23.938 106.02-26.376 168.362-67.723 175.541-116.422 10.259-69.578 29.32-141.021 53.673-201.166 23.502-58.043 50.387-102.257 75.702-124.497 65.508-57.564 128.144-134.99 176.367-218.015.178-.305.502-.494.854-.498.337-.02.681.178.864.479l24.034 39.367a1 1 0 0 1 .011 1.023c-48.33 83.206-111.11 160.809-176.776 218.512-25.086 22.039-51.781 65.986-75.168 123.746-24.295 60.003-43.312 131.282-53.548 200.707-3.844 26.075-22.601 49.865-55.75 70.709-30.014 18.872-70.821 34.807-121.287 47.362-70.757 17.606-154.893 27.033-236.036 27.033zm-77.065-4.993c102.354 8.229 219.179-.731 312.619-23.979 106.021-26.377 168.362-67.723 175.542-116.422 10.259-69.578 29.321-141.021 53.673-201.167 23.501-58.043 50.386-102.257 75.701-124.497 65.372-57.445 127.884-134.671 176.068-217.499l-22.85-37.428c-48.216 82.659-110.647 159.693-175.933 217.062-25.086 22.039-51.781 65.986-75.168 123.746-24.295 60.002-43.312 131.281-53.549 200.706-3.844 26.076-22.601 49.866-55.75 70.709-30.014 18.873-70.82 34.808-121.286 47.363-93.199 23.188-209.604 32.187-311.814 24.146z" fill="#111"/><path d="M1305.205 853.018c-48.682 83.811-111.04 160.677-176.572 218.263-50.777 44.609-107.367 178.029-129.046 325.058-15.962 108.279-290.896 157.309-489.738 141.211l87.066-318.406c-3.872-22.844-20.483-38.665-41.583-43.042-12.425-2.242-24.379-1.187-36.354 3.441a79.4 79.4 0 0 0-3.968 1.665c-18.583 11.387-41.164 16.316-63.419 12.112-45.096-8.519-71.85-51.276-59.765-95.47 12.085-44.196 58.438-73.115 103.534-64.595 22.102 4.175 39.808 16.584 50.692 33.354 8.81 10.288 20.078 16.563 32.05 19.015 22.5 3.87 44.913-3.808 60.274-21.749l88.527-320.103 208.964 39.475c30.124 21.507 29.964 64.25-1.997 90.345-18.217 11.718-32.382 29.692-38.311 51.377-12.085 44.196 14.675 86.926 59.772 95.446 45.097 8.519 91.475-20.395 103.56-64.59 5.97-21.834 2.452-43.282-8.054-60.453-14.953-34.929 7.095-73.302 45.303-81.848z" fill="#b0c3ff"/><path d="M587.507 1541.588c-26.424 0-52.513-.999-77.738-3.041a1.002 1.002 0 0 1-.884-1.261l87.007-318.192c-3.727-21.479-19.328-37.566-40.763-42.013-12.381-2.234-24.097-1.124-35.791 3.395a76.283 76.283 0 0 0-3.859 1.618c-19.581 11.979-42.333 16.317-64.074 12.208-22.105-4.176-40.578-16.553-52.014-34.851-11.415-18.265-14.444-40.235-8.529-61.865 12.199-44.614 59.161-73.915 104.684-65.313 21.595 4.079 39.814 16.058 51.309 33.735 8.308 9.681 19.182 16.124 31.449 18.636 22.279 3.83 44.392-4.109 59.169-21.251l88.467-319.889a1.001 1.001 0 0 1 1.149-.716l208.964 39.476a.982.982 0 0 1 .396.169c14.083 10.054 22.138 24.845 22.681 41.647.604 18.686-8.372 37.014-24.627 50.285a.955.955 0 0 1-.091.066c-18.778 12.079-32.233 30.121-37.888 50.801-5.763 21.077-2.819 42.474 8.291 60.25 11.137 17.819 29.144 29.876 50.703 33.949 44.54 8.408 90.479-20.239 102.409-63.872 5.69-20.807 2.869-41.996-7.942-59.667a1.032 1.032 0 0 1-.066-.128c-6.975-16.294-6.376-33.94 1.685-49.688 8.677-16.949 24.83-29.171 44.319-33.529a.96.96 0 0 1 .403-.007l209.065 39.494a1.002 1.002 0 0 1 .679 1.484c-48.33 83.207-111.11 160.81-176.776 218.513-25.086 22.039-51.781 65.986-75.168 123.746-24.295 60.002-43.312 131.281-53.549 200.706-3.844 26.076-22.601 49.866-55.75 70.709-30.014 18.873-70.82 34.808-121.286 47.363-70.754 17.605-154.898 27.033-236.034 27.033zm-76.375-4.938c102.186 8.129 218.694-.84 311.924-24.034 106.021-26.376 168.362-67.723 175.541-116.422 10.259-69.578 29.32-141.021 53.673-201.166 23.502-58.043 50.387-102.257 75.702-124.497 65.188-57.284 127.528-134.229 175.656-216.793l-207.472-39.192c-18.816 4.267-34.399 16.083-42.774 32.443-7.775 15.188-8.362 32.204-1.654 47.924 11.07 18.133 13.957 39.855 8.127 61.175-12.199 44.615-59.174 73.911-104.71 65.31-22.115-4.178-40.592-16.556-52.028-34.854-11.409-18.255-14.436-40.216-8.524-61.837 5.78-21.139 19.519-39.577 38.687-51.924 15.741-12.871 24.434-30.596 23.85-48.637-.521-16.094-8.212-30.275-21.666-39.957l-207.842-39.264-88.281 319.217a1.004 1.004 0 0 1-.204.384c-15.24 17.799-38.12 26.057-61.204 22.084-12.759-2.611-24.035-9.301-32.641-19.35a1.152 1.152 0 0 1-.079-.105c-11.192-17.245-28.963-28.935-50.039-32.916-44.52-8.408-90.452 20.244-102.383 63.876-5.766 21.085-2.819 42.492 8.296 60.277 11.137 17.819 29.139 29.875 50.689 33.946 21.27 4.018 43.542-.235 62.711-11.981.035-.021.072-.041.109-.058a78.823 78.823 0 0 1 4.017-1.687c12.05-4.655 24.117-5.797 36.896-3.494 22.359 4.638 38.592 21.441 42.392 43.859.024.144.017.29-.021.431z" fill="#111"/></svg></g><g transform="translate(1672.8 262.8) rotate(0.0 473.9999999999999 664.8) scale(1.2839839258214854 1.2838450463916482)"><svg width="738.327" height="1035.639" viewBox="0 0 738.327 1035.639"><path d="m289.853 316.522 33.466 48.776c-14.107 3.647-27.211 2.813-38.063-1.438-8.938-3.501-16.345-9.32-21.52-16.862l-33.466-48.776c5.174 7.542 12.582 13.361 21.52 16.862 10.851 4.25 23.956 5.085 38.063 1.438" fill="#b0c3ff"/><path d="M305.807 368.604c-7.379 0-14.436-1.274-20.917-3.813-9.088-3.56-16.688-9.517-21.979-17.227L229.453 298.8l-.007-.012a1 1 0 1 1 1.649-1.131c5.063 7.378 12.346 13.082 21.06 16.496 11.15 4.367 24.1 4.851 37.448 1.4a.996.996 0 0 1 1.074.402l33.467 48.776a.997.997 0 0 1-.575 1.533c-6.035 1.562-11.997 2.34-17.762 2.34zm-67.152-59.928 25.905 37.758c5.063 7.378 12.346 13.082 21.06 16.496 10.763 4.216 23.199 4.814 36.06 1.745l-32.257-47.013c-13.521 3.368-26.645 2.8-37.997-1.647-4.692-1.838-8.986-4.313-12.771-7.339z" fill="#111"/><path d="m383.533 340.015 33.466 48.776c-7.327-10.68-17.933-19.315-31.392-24.586-19.84-7.771-42.137-6.775-62.289 1.093l-33.466-48.776c20.152-7.868 42.449-8.864 62.289-1.093 13.459 5.272 24.065 13.907 31.392 24.586" fill="#b0c3ff"/><path d="M417.001 389.792a.995.995 0 0 1-.825-.435l-.013-.018c-7.43-10.82-18.122-19.19-30.921-24.204-18.914-7.409-40.775-7.021-61.56 1.094a1.002 1.002 0 0 1-1.188-.366l-33.467-48.776a.996.996 0 0 1 .461-1.497c21.255-8.298 43.637-8.685 63.017-1.092 13.181 5.163 24.194 13.791 31.852 24.952l33.467 48.776a1 1 0 0 1-.823 1.566zm-60.346-31.944c10.156 0 20.076 1.806 29.316 5.426 7.892 3.091 15.007 7.424 21.09 12.8l-24.353-35.493c-7.43-10.829-18.126-19.204-30.933-24.222-18.555-7.268-39.951-7.032-60.382.643l32.302 47.078c10.889-4.152 22.059-6.232 32.96-6.232z" fill="#111"/><path d="m187.098 748.676 33.466 48.777-186.098-72.896L1 675.781z" fill="#b0c3ff"/><path d="M220.564 798.453a.984.984 0 0 1-.364-.069L34.102 725.488a.99.99 0 0 1-.46-.365L.175 676.346a1 1 0 0 1 1.188-1.497l186.099 72.896a.99.99 0 0 1 .46.365l33.466 48.776a1 1 0 0 1-.824 1.567zM35.117 723.738l182.781 71.597-31.45-45.839L3.666 677.899z" fill="#111"/><path d="m329.815 804.579 33.466 48.776c-37.801 1.844-67.697 35.167-62.08 71.337l-33.466-48.776c-5.617-36.17 24.279-69.493 62.08-71.337" fill="#b0c3ff"/><path d="M301.202 925.692a.996.996 0 0 1-.824-.435l-33.467-48.776a.993.993 0 0 1-.164-.412c-2.61-16.811 2.15-33.671 13.404-47.475 12.192-14.954 30.276-24.071 49.615-25.015a1 1 0 0 1 .873.434l33.467 48.776a1 1 0 0 1-.776 1.565c-18.775.916-36.33 9.767-48.164 24.282-10.891 13.357-15.499 29.659-12.977 45.902a1.002 1.002 0 0 1-.987 1.154zm-32.513-50.153 31.036 45.233c-1.311-15.44 3.547-30.712 13.891-43.399 11.818-14.496 29.174-23.509 47.843-24.906l-32.15-46.859c-18.564 1.062-35.89 9.88-47.606 24.251-10.843 13.296-15.46 29.51-13.014 45.68z" fill="#111"/><path d="m267.735 875.916 33.466 48.776c5.681 18.292 3.817 39.55-7.009 59.577-21.95 40.606-72.284 60.751-112.441 45.022-13.467-5.275-24.081-13.916-31.414-24.603l-33.466-48.776c7.333 10.687 17.947 19.328 31.414 24.603 40.157 15.73 90.492-4.416 112.441-45.022 10.826-20.027 12.691-41.285 7.009-59.577" fill="#b0c3ff"/><path d="M210.59 1035.615c-9.971 0-19.862-1.732-29.204-5.393-13.189-5.166-24.212-13.801-31.874-24.969l-33.466-48.776a1 1 0 1 1 1.649-1.131c7.436 10.836 18.14 19.218 30.954 24.238 39.643 15.525 89.521-4.467 111.197-44.567 10.32-19.09 12.782-39.975 6.934-58.805a1 1 0 0 1 1.78-.862l33.467 48.776a.987.987 0 0 1 .131.269c6.009 19.35 3.493 40.782-7.085 60.35-17.04 31.521-51.177 50.867-84.483 50.87zm-83.778-66.981 24.349 35.489c7.436 10.836 18.14 19.218 30.954 24.238 39.642 15.526 89.521-4.466 111.197-44.567 10.294-19.041 12.77-39.867 6.979-58.661l-30.104-43.873c3.952 17.815.978 37.024-8.582 54.709-17.039 31.521-51.176 50.867-84.481 50.87-9.971 0-19.862-1.732-29.204-5.393-7.899-3.094-15.02-7.432-21.108-12.812z" fill="#111"/><path d="m515.959 877.492 33.466 48.777-186.144-72.913-33.466-48.777z" fill="#b0c3ff"/><path d="M549.425 927.268a.984.984 0 0 1-.364-.069l-186.144-72.913a.99.99 0 0 1-.46-.365l-33.467-48.776a1 1 0 0 1 1.188-1.497l186.144 72.913a.99.99 0 0 1 .46.365l33.467 48.776a1 1 0 0 1-.824 1.566zm-185.493-74.732 182.827 71.614-31.451-45.839-182.827-71.614z" fill="#111"/><path d="m623.699 184.563 33.466 48.776c99.192 144.571 110.359 344.008 10.816 528.157-30.841 57.054-71.876 113.172-118.557 164.772l-33.466-48.776c46.68-51.601 87.716-107.719 118.557-164.772 99.544-184.149 88.376-383.585-10.816-528.157" fill="#b0c3ff"/><path d="m549.425 927.268-.067-.002a1 1 0 0 1-.757-.433l-33.467-48.776a.997.997 0 0 1 .083-1.236c48.562-53.681 88.404-109.053 118.418-164.577 47.962-88.725 71.821-184.999 68.998-278.414-2.738-90.643-30.318-176.643-79.758-248.701a1 1 0 1 1 1.649-1.131l33.466 48.776c49.657 72.375 77.358 158.744 80.109 249.771 2.833 93.768-21.109 190.391-69.237 279.426-30.09 55.664-70.024 111.167-118.695 164.968a1 1 0 0 1-.742.329zm-32.195-49.691 32.303 47.081c48.177-53.388 87.731-108.44 117.569-163.638 47.961-88.725 71.82-184.999 68.997-278.414-2.738-90.643-30.318-176.643-79.758-248.701l-9.613-14.01c35.704 64.326 55.596 137.459 57.904 213.874 2.833 93.768-21.108 190.391-69.237 279.426-29.982 55.465-69.733 110.764-118.165 164.382z" fill="#111"/><path d="M409.328 16.676c274.13 107.378 374.94 419.01 225.187 696.043-30.841 57.054-71.876 113.172-118.557 164.772l-186.143-72.913c-37.801 1.844-67.697 35.167-62.08 71.337 5.681 18.292 3.817 39.55-7.009 59.577-21.95 40.606-72.284 60.751-112.441 45.022s-54.95-61.386-33-101.992c10.751-19.889 28.353-34.844 48.22-43.101 36.164-19.831 46.604-61.026 23.593-86.746L1 675.781l143.379-265.242c19.317-16.218 43.486-20.234 62.698-12.707 10.944 4.288 20.282 12.323 26.19 23.979 6.154 17.978 19.718 32.881 39.422 40.599 40.157 15.73 90.492-4.417 112.429-44.999 21.937-40.583 7.18-86.254-32.977-101.983-19.84-7.771-42.137-6.775-62.289 1.093-14.107 3.647-27.211 2.813-38.063-1.438-19.206-7.523-31.346-25.751-29.447-48.774L365.759 1c14.381 4.743 28.905 9.932 43.569 15.676z" fill="#fff"/><path d="M177.125 986.839c-9.971 0-19.862-1.732-29.205-5.392-18.779-7.356-32.818-21.505-39.531-39.84-7.272-19.865-5.079-43.031 6.017-63.56 10.468-19.364 27.75-34.821 48.667-43.528 18.757-10.303 31.328-26.801 34.492-45.271 2.524-14.735-1.399-28.833-11.054-39.728L.635 676.713a1.002 1.002 0 0 1-.515-1.407L143.5 410.063c.061-.11.141-.209.237-.29 18.952-15.911 43.359-20.843 63.705-12.871 11.689 4.58 20.928 13.037 26.717 24.457.021.041.039.084.055.128 6.315 18.453 20.109 32.656 38.84 39.993 39.64 15.525 89.516-4.457 111.186-44.544 10.825-20.025 12.975-42.599 5.897-61.931-6.511-17.781-20.134-31.506-38.359-38.646-18.913-7.407-40.774-7.021-61.562 1.094a.874.874 0 0 1-.113.036c-13.759 3.558-27.134 3.047-38.678-1.475-20.426-8-31.951-27.077-30.078-49.786.012-.138.052-.271.117-.394L364.879.524a1.001 1.001 0 0 1 1.193-.474c14.919 4.921 29.596 10.201 43.62 15.695 126.583 49.582 221.199 144.916 266.421 268.438 24.113 65.864 33.138 136.133 26.824 208.854-6.533 75.262-29.259 149.334-67.543 220.157-30.09 55.666-70.024 111.169-118.694 164.969a.998.998 0 0 1-1.105.26l-185.943-72.834c-18.693.972-36.16 9.81-47.949 24.27-10.876 13.339-15.487 29.612-12.99 45.832 5.982 19.33 3.46 40.734-7.105 60.278-17.041 31.521-51.178 50.867-84.483 50.87zM2.417 675.262l185.047 72.483a.996.996 0 0 1 .38.264c10.184 11.382 14.336 26.147 11.692 41.576-3.271 19.092-16.228 36.117-35.55 46.713a.79.79 0 0 1-.097.047c-20.518 8.527-37.466 23.676-47.725 42.653-10.824 20.024-12.974 42.594-5.898 61.921 6.514 17.789 20.145 31.521 38.383 38.665 39.643 15.525 89.521-4.467 111.197-44.567 10.32-19.09 12.782-39.975 6.934-58.805a1.002 1.002 0 0 1-.033-.144c-2.61-16.811 2.15-33.671 13.404-47.475 12.192-14.954 30.276-24.071 49.615-25.015.141-.006.281.017.413.068l185.501 72.66c48.353-53.521 88.036-108.716 117.955-164.064 38.154-70.581 60.801-144.392 67.311-219.379 6.288-72.428-2.698-142.406-26.71-207.993C629.213 161.894 535.005 66.978 408.964 17.608c-13.742-5.383-28.112-10.562-42.724-15.396L223.323 266.6c-1.711 21.702 9.322 39.911 28.831 47.552 11.134 4.363 24.06 4.852 37.391 1.416 21.235-8.276 43.594-8.656 62.962-1.071 18.767 7.353 32.798 21.494 39.508 39.821 7.274 19.87 5.081 43.04-6.016 63.569-17.033 31.509-51.161 50.846-84.462 50.848-9.974.001-19.868-1.732-29.212-5.393-19.265-7.546-33.461-22.154-39.98-41.141-5.565-10.943-14.428-19.048-25.633-23.438-19.609-7.684-43.175-2.925-61.543 12.419z" fill="#111"/></svg></g><g transform="translate(650.4 313.2) rotate(15.392983585504671 337.8 305.4) scale(1.4118266604531806 1.4131855673680922)"><svg width="478.529" height="432.215" viewBox="0 0 478.529 432.215"><path d="m449.604 256.753-33.328 19.491-1.246 20.902 33.327-19.491c17.065-9.98 26.799-26.553 27.834-43.891l1.247-20.902c-1.035 17.339-10.77 33.911-27.834 43.891z" fill="#b0c3ff"/><path d="M415.03 298.147a1.001 1.001 0 0 1-.998-1.059l1.246-20.902c.02-.333.205-.635.493-.804l33.328-19.491c16.07-9.398 26.291-25.506 27.341-43.087a1.009 1.009 0 0 1 1.058-.938.998.998 0 0 1 .938 1.058l-.001.016-1.246 20.887c-1.09 18.25-11.679 34.959-28.327 44.695l-33.327 19.49a1.025 1.025 0 0 1-.505.135zm2.212-21.309-1.104 18.501 31.713-18.546c16.07-9.398 26.291-25.506 27.341-43.088l.392-6.561c-4.343 12.473-13.285 23.342-25.476 30.472zm32.362-20.085h.01z" fill="#111"/><path d="M412.608 328.997a10.927 10.927 0 0 1-9.98.504l-43.688-19.722-1.247 20.902 43.688 19.722a10.927 10.927 0 0 0 9.98-.504c2.634-1.54 4.506-4.177 4.697-7.371l1.247-20.903c-.191 3.194-2.063 5.831-4.697 7.372z" fill="#b0c3ff"/><path d="M405.901 352.368c-1.672 0-3.354-.349-4.928-1.052l-43.691-19.725a1 1 0 0 1-.587-.971l1.247-20.902a1.001 1.001 0 0 1 1.409-.852l43.688 19.723c2.939 1.312 6.328 1.146 9.064-.456 2.509-1.467 4.041-3.86 4.203-6.567a1.013 1.013 0 0 1 1.058-.938.999.999 0 0 1 .938 1.058l-1.247 20.902c-.203 3.386-2.095 6.365-5.19 8.175a11.82 11.82 0 0 1-5.964 1.605zm-47.169-22.316 43.061 19.439c2.941 1.313 6.331 1.144 9.063-.456 2.51-1.467 4.042-3.86 4.204-6.567l.893-14.967a10.969 10.969 0 0 1-2.839 2.358c-3.293 1.924-7.363 2.13-10.894.554l-42.368-19.127z" fill="#111"/><path d="M201.864 401.642c-28.281 16.541-65.995 8.715-84.217-17.515L11.954 231.994c-7.221-10.393-10.295-22.111-9.615-33.501l-1.247 20.902c-.68 11.39 2.394 23.109 9.615 33.502L116.4 405.03c18.222 26.229 55.936 34.055 84.218 17.515l157.075-91.865 1.247-20.902z" fill="#b0c3ff"/><path d="M168.293 432.19c-20.559.001-40.782-9.415-52.714-26.59L9.886 253.466C2.76 243.209-.627 231.406.094 219.335l1.247-20.902a.996.996 0 0 1 1.058-.938.997.997 0 0 1 .938 1.058c-.693 11.619 2.57 22.986 9.438 32.871l105.693 152.134c17.897 25.761 55.082 33.486 82.891 17.222l157.075-91.864a1.001 1.001 0 0 1 1.503.923l-1.247 20.902c-.02.333-.205.635-.493.804L201.123 423.41c-10.165 5.944-21.549 8.779-32.83 8.78zM2.478 212.955l-.388 6.499c-.693 11.619 2.57 22.986 9.438 32.871l105.693 152.134c17.896 25.761 55.08 33.487 82.892 17.223l156.612-91.596 1.104-18.501-155.461 90.92c-28.689 16.778-67.064 8.792-85.543-17.808L11.133 232.564c-4.226-6.081-7.136-12.706-8.655-19.609z" fill="#111"/><path d="M277.94 9.663c28.282-16.54 65.953-8.692 84.177 17.539l105.694 152.134c18.223 26.229 10.075 60.877-18.207 77.417l-33.328 19.491 1.043 44.664c.067 3.515-1.882 6.434-4.711 8.088a10.927 10.927 0 0 1-9.98.504l-43.689-19.722-157.075 91.865c-28.282 16.54-65.995 8.714-84.217-17.515L11.954 231.994c-18.223-26.23-10.034-60.901 18.248-77.441z" fill="#fff"/><g fill="#111"><path d="M169.54 411.287c-20.559 0-40.782-9.415-52.714-26.59L11.133 232.564c-8.808-12.677-11.876-27.737-8.639-42.405 3.359-15.223 13.02-28.175 27.202-36.47L277.436 8.8c28.667-16.766 67.023-8.767 85.503 17.832l105.693 152.134c8.815 12.689 11.888 27.756 8.65 42.425-3.354 15.203-13.005 28.14-27.174 36.426L417.29 276.81l1.028 44.075c.07 3.674-1.876 7.027-5.205 8.975-3.291 1.924-7.365 2.13-10.893.554l-43.222-19.512-156.63 91.604c-10.164 5.945-21.546 8.781-32.828 8.781zM277.941 9.663l.505.863-247.74 144.889c-13.695 8.01-23.021 20.502-26.259 35.174-3.115 14.118-.158 28.619 8.328 40.834l105.693 152.134c17.897 25.76 55.082 33.487 82.891 17.223l157.075-91.865a.993.993 0 0 1 .916-.048l43.689 19.723c2.942 1.313 6.328 1.144 9.063-.456 2.695-1.577 4.271-4.271 4.215-7.205l-1.042-44.66a1.005 1.005 0 0 1 .495-.887l33.327-19.491c13.682-8.002 22.997-20.478 26.231-35.13 3.115-14.118.153-28.627-8.341-40.854L361.296 27.773C343.4 2.012 306.232-5.723 278.446 10.527z"/><g><path d="M149.191 237.526c-9.646 5.641-12.439 17.517-6.225 26.461 6.241 8.983 19.128 11.636 28.774 5.995 9.683-5.663 12.462-17.479 6.221-26.462-6.214-8.943-19.087-11.657-28.77-5.994"/><path d="M160.711 273.929c-7.237 0-14.361-3.318-18.566-9.372-3.111-4.479-4.193-9.81-3.046-15.012 1.189-5.387 4.594-9.962 9.587-12.883 10.089-5.897 23.59-3.078 30.097 6.288 3.125 4.498 4.215 9.833 3.07 15.022-1.186 5.37-4.598 9.941-9.608 12.872-3.571 2.089-7.57 3.085-11.534 3.085zm-11.015-35.54c-4.507 2.636-7.576 6.751-8.644 11.587-1.026 4.651-.055 9.425 2.735 13.44 5.926 8.529 18.238 11.089 27.447 5.702 4.524-2.646 7.602-6.757 8.665-11.577 1.023-4.639.043-9.415-2.76-13.45-5.926-8.528-18.238-11.086-27.443-5.702zm80.391-48.175c-9.643 5.64-12.436 17.516-6.223 26.46 6.241 8.983 19.128 11.636 28.771 5.996 9.685-5.664 12.464-17.48 6.224-26.463-6.214-8.943-19.087-11.657-28.772-5.993"/><path d="M241.61 226.617c-7.237.001-14.361-3.318-18.566-9.372-3.112-4.479-4.193-9.812-3.045-15.015 1.188-5.386 4.592-9.96 9.584-12.879 10.089-5.898 23.589-3.081 30.098 6.286 3.125 4.498 4.216 9.833 3.07 15.021-1.185 5.371-4.599 9.943-9.61 12.875-3.57 2.088-7.569 3.084-11.531 3.084zm-.474-38.36c-3.624 0-7.278.91-10.544 2.82-4.505 2.635-7.574 6.748-8.642 11.584-1.026 4.651-.055 9.426 2.735 13.442 5.926 8.529 18.237 11.088 27.444 5.703 4.525-2.646 7.604-6.759 8.667-11.579 1.024-4.639.044-9.415-2.76-13.45-3.823-5.502-10.308-8.52-16.9-8.52zm-11.049 1.957h.01zm80.898-47.313c-9.643 5.64-12.439 17.517-6.225 26.461 6.241 8.983 19.13 11.635 28.773 5.995 9.685-5.664 12.464-17.48 6.224-26.463-6.214-8.943-19.087-11.657-28.772-5.993"/><path d="M322.505 179.305c-7.237 0-14.361-3.319-18.566-9.372-3.111-4.479-4.193-9.811-3.045-15.014 1.189-5.387 4.594-9.961 9.586-12.881 10.09-5.9 23.59-3.082 30.099 6.286 3.125 4.498 4.215 9.833 3.07 15.021-1.186 5.371-4.599 9.943-9.61 12.875-3.571 2.089-7.569 3.085-11.534 3.085zm-.471-38.361c-3.624 0-7.279.911-10.545 2.821-4.506 2.635-7.575 6.75-8.643 11.586-1.026 4.651-.056 9.426 2.734 13.441 5.926 8.529 18.238 11.089 27.447 5.702 4.525-2.646 7.604-6.759 8.667-11.579 1.023-4.639.043-9.415-2.76-13.45-3.822-5.504-10.307-8.521-16.9-8.521zm-11.049 1.958h.01z"/></g></g></svg></g><g transform="translate(2036.3999999999999 2142.0) rotate(25.45895046714175 151.19999999999993 165.0) scale(1.4047018492453902 1.392416813643997)"><svg width="215.277" height="236.998" viewBox="0 0 215.277 236.998"><path d="M135.252 17.667c-.16-1.145-.714-2.076-1.517-2.672L115.873 1.728c.803.597 1.357 1.527 1.517 2.673l2.845 21.058 17.862 13.266z" fill="#3658C1"/><path d="M138.097 39.725a.998.998 0 0 1-.596-.197l-17.862-13.266a1.002 1.002 0 0 1-.395-.669l-2.845-21.058c-.117-.84-.516-1.554-1.122-2.004a1 1 0 1 1 1.195-1.604l17.859 13.265c1.04.772 1.718 1.957 1.911 3.336l.001.005 2.845 21.058a1 1 0 0 1-.991 1.134zm-16.928-14.817 15.619 11.6-2.527-18.704c-.119-.844-.517-1.556-1.123-2.005L118.466 4.9z" fill="#111"/><path d="m39.468 182.246-19.672 11.547c-.95.549-1.949.776-2.87.702a3.775 3.775 0 0 1-1.967-.723l17.862 13.267c.566.42 1.242.664 1.967.723.922.074 1.921-.153 2.87-.703l19.673-11.547z" fill="#3658C1"/><path d="M35.131 208.775c-.142 0-.283-.005-.424-.017a4.808 4.808 0 0 1-2.483-.917l-17.858-13.264-.003-.002a1 1 0 0 1 1.192-1.606c.407.302.909.485 1.45.529.749.06 1.541-.138 2.29-.571l19.666-11.543a.997.997 0 0 1 1.102.06l17.862 13.266a1.001 1.001 0 0 1-.09 1.665l-19.672 11.547c-.972.562-2.011.853-3.032.853zm-16.415-13.458 14.701 10.919c.406.302.908.485 1.452.529.747.056 1.539-.138 2.288-.572l18.364-10.779-16.118-11.971-19.101 11.211a6.48 6.48 0 0 1-1.586.663z" fill="#111"/><path d="m123.737 78.15 17.862 13.267c-4.345-3.227-9.618-5.233-15.457-5.702-4.067-.326-8.411.092-12.904 1.363-17.519 4.964-31.851 22.254-33.81 40.81-1.434 13.471 3.527 24.604 12.102 30.973l-17.862-13.267c-8.576-6.369-13.536-17.502-12.102-30.973 1.959-18.555 16.292-35.845 33.81-40.81 4.493-1.271 8.838-1.69 12.904-1.363 5.839.469 11.112 2.475 15.457 5.702" fill="#3658C1"/><path d="M91.529 159.861a.995.995 0 0 1-.595-.197l-.017-.012-17.845-13.254c-9.361-6.953-13.917-18.573-12.5-31.882 2.011-19.042 16.533-36.565 34.532-41.666 4.499-1.273 8.96-1.743 13.257-1.398 5.894.474 11.417 2.512 15.973 5.896l17.849 13.257.013.01a1 1 0 0 1-1.192 1.606l-.006-.004c-4.254-3.157-9.418-5.061-14.935-5.504-4.059-.323-8.283.122-12.552 1.329-17.244 4.886-31.159 21.689-33.088 39.952-1.34 12.587 2.926 23.545 11.704 30.065a1 1 0 0 1-.598 1.802zm14.079-86.519c-3.253 0-6.593.479-9.96 1.432-17.244 4.886-31.159 21.689-33.088 39.952-1.34 12.587 2.926 23.545 11.704 30.065l9.16 6.804c-4.167-6.543-5.952-14.79-4.991-23.813 2.011-19.042 16.534-36.565 34.532-41.666 4.499-1.272 8.957-1.746 13.257-1.398 2.111.169 4.175.54 6.164 1.101l-9.245-6.866c-4.255-3.16-9.421-5.064-14.941-5.508a32.286 32.286 0 0 0-2.592-.103z" fill="#111"/><path d="m77.175 198.271 17.862 13.267c-12.563-1.088-23.916-5.461-33.295-12.427L43.88 185.844c9.379 6.966 20.733 11.339 33.295 12.427" fill="#3658C1"/><path d="M95.038 212.537a.844.844 0 0 1-.087-.004c-12.451-1.078-24.14-5.442-33.805-12.62l-17.862-13.267a1 1 0 0 1 1.192-1.606l.02.015c9.363 6.948 20.692 11.173 32.765 12.219.185.016.361.083.51.193l17.862 13.267a1 1 0 0 1-.595 1.803zm-37.859-18.061 5.159 3.832c8.413 6.248 18.414 10.297 29.117 11.815l-14.649-10.881c-6.846-.621-13.459-2.236-19.627-4.766z" fill="#111"/><path d="M201.266 44.276a3.69 3.69 0 0 0-.954-1.052L182.45 29.957c.372.276.695.628.954 1.053l12.411 20.611 17.862 13.267z" fill="#3658C1"/><path d="M213.678 65.889a.998.998 0 0 1-.596-.197L195.22 52.425a.99.99 0 0 1-.26-.287l-12.412-20.612a2.696 2.696 0 0 0-.694-.766 1 1 0 0 1 1.193-1.605l17.862 13.267a4.689 4.689 0 0 1 1.213 1.338l12.412 20.612a.998.998 0 0 1-.185 1.256.99.99 0 0 1-.671.261zm-17.107-14.952 13.638 10.129-9.799-16.272a2.704 2.704 0 0 0-.694-.767l-13.218-9.818z" fill="#111"/><path d="m194.592 58.121 17.861 13.267L195.848 88l-17.861-13.266z" fill="#3658C1"/><path d="M195.848 89c-.208 0-.417-.065-.596-.197l-17.861-13.267a.998.998 0 0 1-.111-1.509l16.605-16.612a.999.999 0 0 1 1.303-.096l17.862 13.267a.998.998 0 0 1 .111 1.509l-16.605 16.612a1 1 0 0 1-.708.293zm-16.335-14.379 16.239 12.062L210.928 71.5l-16.239-12.062z" fill="#111"/><path d="m195.816 51.622 17.862 13.267c1.131 1.892.624 4.666-1.225 6.499l-17.862-13.267c1.849-1.833 2.357-4.607 1.225-6.499" fill="#3658C1"/><path d="M212.453 72.388c-.208 0-.417-.065-.596-.197l-17.862-13.267a1 1 0 0 1-.108-1.512c1.512-1.5 1.972-3.768 1.07-5.276a1 1 0 0 1 1.455-1.316l17.862 13.267a.995.995 0 0 1 .262.29c1.382 2.312.802 5.56-1.379 7.723-.193.19-.448.288-.704.288zm-16.404-14.43 16.255 12.073c1.014-1.394 1.275-3.174.606-4.468l-15.49-11.505c-.032 1.341-.504 2.72-1.371 3.9z" fill="#111"/><path d="M177.987 74.734 195.848 88c1.852 6.927 2.81 14.39 2.702 22.33-.103 7.918-1.244 15.775-3.279 23.403l-17.862-13.267c2.035-7.628 3.177-15.485 3.279-23.403.108-7.94-.85-15.403-2.701-22.329" fill="#3658C1"/><path d="M195.27 134.733a.998.998 0 0 1-.596-.197l-17.861-13.267a1 1 0 0 1-.37-1.061c2.054-7.698 3.146-15.49 3.245-23.159.104-7.626-.793-15.047-2.667-22.058a1 1 0 0 1 1.562-1.061l17.861 13.267a.997.997 0 0 1 .37.544c1.921 7.188 2.842 14.792 2.735 22.602-.102 7.833-1.216 15.79-3.313 23.647a1.002 1.002 0 0 1-.966.743zm-16.722-14.666 16.126 11.978c1.815-7.232 2.782-14.534 2.875-21.729.103-7.505-.765-14.811-2.579-21.722l-15.343-11.396c1.46 6.375 2.153 13.048 2.06 19.878-.098 7.615-1.154 15.347-3.139 22.991z" fill="#111"/><path d="m110.043 218.072-25.397 4.579a4.407 4.407 0 0 1-1.175.067 3.72 3.72 0 0 1-1.939-.716l17.862 13.267c.547.407 1.21.657 1.939.716.376.03.77.01 1.175-.068l25.397-4.578z" fill="#3658C1"/><path d="M101.668 236.997c-.139 0-.277-.005-.415-.016a4.743 4.743 0 0 1-2.457-.911l-17.861-13.266h-.001a1 1 0 0 1 1.193-1.605l.005.003a2.73 2.73 0 0 0 1.418.518c.292.024.598.006.911-.053l25.405-4.58a.993.993 0 0 1 .773.181l17.861 13.267a1 1 0 0 1-.419 1.787l-25.396 4.578a5.365 5.365 0 0 1-1.017.097zM85.293 223.55l14.696 10.916c.402.299.894.479 1.423.522.296.023.601.006.908-.053l23.133-4.17-15.66-11.632z" fill="#111"/><path d="m118.147 190.868 17.861 13.267-3.395 22.178-17.862-13.267z" fill="#3658C1"/><path d="M132.613 227.313a1 1 0 0 1-.596-.197l-17.862-13.267a1 1 0 0 1-.392-.954l3.395-22.178a.998.998 0 0 1 1.585-.651l17.862 13.267a1 1 0 0 1 .392.954l-3.395 22.178a.998.998 0 0 1-.989.848zm-16.782-14.711 16.045 11.917 3.053-19.941-16.045-11.917z" fill="#111"/><path d="m114.751 213.046 17.862 13.267c-.372 2.47-2.376 4.605-4.709 5.026l-17.862-13.267c2.333-.42 4.338-2.556 4.709-5.026" fill="#3658C1"/><path d="M127.904 232.338a1 1 0 0 1-.596-.197l-17.862-13.267a1 1 0 0 1 .419-1.787c1.915-.344 3.59-2.146 3.897-4.19a.998.998 0 0 1 1.585-.653l17.862 13.267a1 1 0 0 1 .393.952c-.437 2.898-2.758 5.363-5.521 5.861a1.173 1.173 0 0 1-.177.014zm-15.78-13.966 16.004 11.887c1.566-.455 2.91-1.866 3.373-3.526l-16.176-12.015c-.618 1.554-1.778 2.87-3.201 3.654z" fill="#111"/><path d="m156.442 161.116 17.862 13.267c-10.426 12.762-23.59 23.189-38.295 29.752l-17.862-13.267c14.705-6.564 27.869-16.99 38.295-29.752" fill="#3658C1"/><path d="M136.008 205.135a1 1 0 0 1-.596-.197l-17.862-13.267a1 1 0 0 1 .188-1.716c14.263-6.367 27.379-16.558 37.929-29.472a1 1 0 0 1 1.371-.17L174.9 173.58a1.002 1.002 0 0 1 .178 1.436c-10.747 13.155-24.116 23.54-38.662 30.033a1.02 1.02 0 0 1-.408.086zm-15.907-14.061 16.032 11.908c13.758-6.246 26.428-16.051 36.729-28.424l-16.254-12.072c-10.255 12.341-22.831 22.187-36.507 28.588z" fill="#111"/><path d="m193.822 131.232 17.862 13.267c1.679 1.247 2.065 3.742.9 5.984l-17.862-13.267c1.165-2.243.779-4.737-.9-5.984" fill="#3658C1"/><path d="M212.584 151.483a1 1 0 0 1-.596-.197l-17.862-13.266a1 1 0 0 1-.292-1.264c.927-1.785.671-3.771-.608-4.721a1 1 0 0 1 1.192-1.606l.004.003 17.857 13.264c2.072 1.539 2.573 4.587 1.192 7.248a1 1 0 0 1-.887.539zM195.96 136.89l16.163 12.004c.35-1.438-.021-2.84-1.035-3.593l-14.705-10.922c.028.82-.11 1.675-.423 2.511z" fill="#111"/><path d="m176.478 165.672 17.861 13.267-20.035-4.557-17.862-13.266z" fill="#3658C1"/><path d="M194.34 179.939a.988.988 0 0 1-.222-.025l-20.036-4.557a1.001 1.001 0 0 1-.375-.172l-17.862-13.267a1 1 0 0 1 .818-1.778l20.036 4.557c.136.031.263.089.375.172l17.862 13.267a1 1 0 0 1-.596 1.803zm-19.609-6.485 15.201 3.457L176.05 166.6l-15.201-3.457z" fill="#111"/><path d="m194.722 137.216 17.862 13.267-12.991 25.212-17.861-13.267z" fill="#3658C1"/><path d="M199.593 176.695a1 1 0 0 1-.596-.197l-17.861-13.267a1 1 0 0 1-.293-1.261l12.99-25.211a1 1 0 0 1 1.485-.345l17.862 13.266a1 1 0 0 1 .293 1.261l-12.991 25.212a1 1 0 0 1-.889.542zm-16.583-14.563 16.234 12.058 12.062-23.41-16.234-12.057z" fill="#111"/><path d="m181.732 162.428 17.862 13.267c-1.078 2.112-3.247 3.405-5.254 3.244l-17.862-13.267c2.007.161 4.176-1.132 5.254-3.244" fill="#3658C1"/><path d="M194.671 179.952c-.138 0-.275-.005-.412-.017a.995.995 0 0 1-.516-.194l-17.862-13.267a1 1 0 0 1 .676-1.799c1.643.125 3.405-.979 4.284-2.702a1 1 0 0 1 1.487-.348l17.861 13.267a.998.998 0 0 1 .294 1.257c-1.166 2.287-3.51 3.803-5.812 3.803zm-15.723-13.69 15.74 11.691c1.322-.001 2.685-.775 3.576-1.999l-16.258-12.076a7.1 7.1 0 0 1-3.058 2.384z" fill="#111"/><path d="M193.661 131.119c1.815 1.204 2.263 3.785 1.062 6.098l-12.99 25.212c-1.078 2.112-3.247 3.405-5.254 3.244l-20.036-4.556c-10.426 12.762-23.59 23.189-38.295 29.752l-3.395 22.178c-.372 2.47-2.376 4.605-4.709 5.026l-25.397 4.579a4.366 4.366 0 0 1-1.175.067c-1.795-.144-3.187-1.45-3.451-3.389l-2.845-21.058c-14.604-1.265-27.574-6.969-37.707-16.025l-19.672 11.547c-.949.549-1.949.776-2.87.702-1.2-.097-2.269-.704-2.92-1.775L1.594 172.107c-1.131-1.892-.604-4.665 1.225-6.499l16.605-16.612c-1.852-6.927-2.81-14.39-2.702-22.33.103-7.918 1.238-15.753 3.274-23.381L3.75 92.611c-1.814-1.204-2.263-3.785-1.062-6.098l12.99-25.212c1.078-2.112 3.247-3.405 5.254-3.244l20.036 4.556c10.426-12.762 23.59-23.188 38.295-29.752l3.395-22.178c.372-2.47 2.397-4.604 4.729-5.024l25.376-4.58a4.428 4.428 0 0 1 1.172-.066c1.806.145 3.185 1.464 3.454 3.388l2.845 21.058c14.619 1.288 27.574 6.969 37.727 16.027l19.652-11.548c.949-.549 1.949-.776 2.87-.702 1.201.097 2.269.704 2.921 1.775l12.411 20.612c1.131 1.892.624 4.666-1.225 6.499l-16.605 16.612c1.852 6.927 2.81 14.39 2.702 22.33-.103 7.918-1.244 15.775-3.279 23.403zm-91.627 18.799c17.519-4.965 31.851-22.254 33.81-40.81 2.157-20.28-10.2-35.266-27.564-36.661-4.067-.326-8.411.092-12.904 1.363-17.519 4.964-31.851 22.254-33.81 40.81-2.16 20.288 10.186 35.274 27.541 36.669 4.074.328 8.424-.093 12.927-1.371" fill="#B0C3FF"/><path d="M83.805 223.731c-.139 0-.277-.005-.414-.017-2.287-.183-4.04-1.892-4.362-4.251l-2.738-20.27c-13.979-1.369-26.72-6.79-36.941-15.718l-19.047 11.179c-1.108.641-2.302.93-3.457.836-1.553-.125-2.9-.946-3.695-2.252L.737 172.624c-1.374-2.299-.796-5.545 1.373-7.722l16.2-16.207c-1.821-7.021-2.692-14.434-2.588-22.043.099-7.6 1.149-15.309 3.124-22.926L3.2 93.447c-2.259-1.5-2.846-4.608-1.4-7.395l12.99-25.208c1.235-2.421 3.792-3.979 6.223-3.783a.973.973 0 0 1 .142.021l19.433 4.419c10.556-12.778 23.594-22.903 37.77-29.329l3.313-21.641c.435-2.892 2.765-5.356 5.54-5.857l25.376-4.58a5.36 5.36 0 0 1 1.43-.079c2.281.183 4.035 1.889 4.364 4.245l2.739 20.275c13.997 1.391 26.745 6.812 36.96 15.719l19.027-11.182c1.109-.641 2.3-.93 3.457-.836 1.553.124 2.9.945 3.695 2.252l12.414 20.615c1.384 2.315.804 5.563-1.377 7.726L179.1 75.035c1.821 7.023 2.692 14.436 2.588 22.042-.099 7.601-1.151 15.317-3.128 22.948l15.649 10.257.004.003c2.256 1.497 2.843 4.605 1.396 7.393l-12.989 25.208c-1.235 2.421-3.793 3.979-6.224 3.783a.973.973 0 0 1-.142-.021l-19.434-4.419c-10.555 12.777-23.593 22.903-37.77 29.329l-3.313 21.641c-.436 2.896-2.757 5.361-5.52 5.858l-25.396 4.578a5.444 5.444 0 0 1-1.016.096zm-44.337-42.485a1 1 0 0 1 .667.254c10.18 9.098 23.018 14.552 37.127 15.774a1 1 0 0 1 .905.862l2.845 21.058c.197 1.448 1.17 2.417 2.54 2.526.292.021.599.005.909-.053l25.405-4.581c1.915-.344 3.59-2.146 3.897-4.19l3.396-22.181a1 1 0 0 1 .581-.762c14.263-6.367 27.379-16.558 37.929-29.472a1 1 0 0 1 .996-.342l19.961 4.54c1.631.094 3.35-1.007 4.217-2.707l12.992-25.215c.968-1.865.664-3.884-.723-4.805l-16.249-10.65a1.001 1.001 0 0 1-.418-1.094c2.054-7.698 3.146-15.49 3.245-23.159.104-7.626-.793-15.047-2.667-22.058a1 1 0 0 1 .259-.965l16.605-16.612c1.515-1.502 1.975-3.771 1.073-5.279l-12.41-20.609c-.462-.76-1.224-1.221-2.144-1.294-.745-.058-1.54.137-2.29.571L158.47 42.348a.998.998 0 0 1-1.172-.116c-10.174-9.076-23.02-14.531-37.149-15.776a1 1 0 0 1-.903-.862l-2.845-21.058c-.202-1.445-1.177-2.415-2.543-2.524a3.516 3.516 0 0 0-.908.052L87.565 6.643c-1.927.348-3.611 2.148-3.918 4.189l-3.395 22.181c-.052.336-.27.623-.581.762-14.262 6.365-27.378 16.556-37.928 29.471-.24.293-.626.425-.996.342L20.786 59.05c-1.626-.098-3.35 1.007-4.217 2.707L3.577 86.971c-.968 1.865-.663 3.886.726 4.807l16.242 10.671a1 1 0 0 1 .417 1.094c-2.051 7.685-3.141 15.469-3.24 23.136-.104 7.628.794 15.049 2.668 22.059a.998.998 0 0 1-.259.965L3.526 166.315c-1.507 1.512-1.969 3.782-1.074 5.279l12.41 20.609c.462.759 1.224 1.22 2.144 1.294.748.059 1.54-.138 2.289-.571l19.667-11.543a1 1 0 0 1 .506-.137zm52.31-28.85c-.924 0-1.841-.037-2.752-.11-8.413-.676-15.92-4.515-21.139-10.809-5.822-7.021-8.42-16.597-7.316-26.963 2.011-19.042 16.533-36.565 34.532-41.666 4.499-1.273 8.96-1.743 13.257-1.398 8.421.676 15.936 4.518 21.16 10.817 5.821 7.02 8.42 16.589 7.319 26.946-2.011 19.042-16.533 36.565-34.532 41.666-3.555 1.01-7.085 1.517-10.529 1.517zm13.83-79.054c-3.253 0-6.593.479-9.96 1.432-17.244 4.886-31.159 21.689-33.088 39.952-1.046 9.826 1.393 18.873 6.867 25.475 4.871 5.875 11.889 9.459 19.759 10.092 4.066.327 8.296-.123 12.575-1.337 17.244-4.887 31.16-21.689 33.088-39.953 1.044-9.817-1.396-18.858-6.869-25.458-4.876-5.88-11.901-9.467-19.78-10.101a32.757 32.757 0 0 0-2.592-.102z" fill="#111"/></svg></g><g transform="translate(1539.6 2275.2) rotate(-5.930353052860971 233.39999999999998 233.4000000000001) scale(1.393125100724019 1.3916216506278403)"><svg width="335.074" height="335.436" viewBox="0 0 335.074 335.436"><path d="m330.447 171.334-37.403 8.036-16.419 17.921 37.403-8.036c1.047-.173 1.906-.644 2.524-1.319l16.419-17.921c-.619.675-1.477 1.145-2.524 1.319z" fill="#B0C3FF"/><path d="M276.624 198.291a1.002 1.002 0 0 1-.738-1.676l16.419-17.921a.994.994 0 0 1 .527-.302l37.403-8.036.046-.009c.79-.131 1.463-.478 1.947-1.004l.004-.004a1 1 0 0 1 1.475 1.351l-16.419 17.921c-.789.862-1.861 1.425-3.098 1.63l-37.357 8.027a.984.984 0 0 1-.209.023zm16.941-18.011-14.085 15.374 34.338-7.377c.838-.14 1.513-.489 1.997-1.017l13.415-14.642z" fill="#111"/><path d="M106.016 9.123c-.39-1.707.002-3.235.951-4.27l-16.42 17.922c-.948 1.035-1.34 2.562-.951 4.27l7.373 40.408 16.419-17.92z" fill="#B0C3FF"/><path d="M96.97 68.453a1 1 0 0 1-.984-.82l-7.373-40.408c-.441-1.927-.008-3.811 1.197-5.125l16.419-17.921a1 1 0 1 1 1.475 1.351c-.755.823-1.014 2.052-.713 3.371l.009.043 7.373 40.409c.056.308-.035.624-.246.855l-16.419 17.92c-.193.21-.462.325-.738.325zm7.939-59.874L91.285 23.45c-.754.823-1.014 2.052-.713 3.372l7.021 38.471 14.724-16.07-7.28-39.899a6.83 6.83 0 0 1-.128-.745z" fill="#111"/><path d="m243.966 221.253-16.419 17.921c11.982-13.078 17.924-31.745 15.117-53.296-5.882-45.165-47.965-85.894-93.993-90.969-24.065-2.653-44.445 4.965-57.573 19.295l16.419-17.921c13.129-14.33 33.508-21.948 57.573-19.295 46.028 5.075 88.111 45.803 93.993 90.969 2.807 21.551-3.135 40.218-15.117 53.296" fill="#B0C3FF"/><path d="M227.547 240.174a1 1 0 0 1-.737-1.676c12.252-13.373 17.53-32.014 14.863-52.491-5.817-44.664-47.586-85.085-93.111-90.104-22.705-2.503-43.383 4.413-56.726 18.977a1 1 0 0 1-1.475-1.351l16.419-17.921c13.778-15.038 35.07-22.188 58.42-19.613 46.385 5.114 88.946 46.311 94.875 91.834 2.745 21.072-2.714 40.285-15.372 54.101l-16.419 17.921a.998.998 0 0 1-.737.323zM139.513 93.399c3.044 0 6.137.17 9.268.516 46.385 5.114 88.946 46.311 94.875 91.833 1.989 15.273-.332 29.57-6.579 41.543l6.151-6.714.737.676-.737-.676c12.251-13.373 17.53-32.014 14.863-52.491-5.817-44.664-47.586-85.085-93.111-90.104-22.708-2.503-43.384 4.413-56.726 18.977l-6.219 6.788c10.588-6.757 23.505-10.348 37.478-10.348z" fill="#111"/><path d="m309.469 275.485-16.419 17.921c-.967 1.056-2.445 1.52-4.031 1.346-.983-.108-2.007-.462-2.976-1.074l16.419-17.921c.97.611 1.994.965 2.976 1.074 1.587.174 3.064-.29 4.031-1.346" fill="#B0C3FF"/><path d="M289.666 295.787c-.249 0-.5-.014-.755-.042-1.159-.127-2.335-.55-3.4-1.221a1 1 0 0 1-.204-1.521l16.419-17.921a1.001 1.001 0 0 1 1.271-.17c.81.511 1.692.831 2.553.926 1.293.142 2.453-.232 3.182-1.026l.001-.001a1 1 0 0 1 1.475 1.351l-.004.005-16.415 17.916c-1.012 1.102-2.486 1.704-4.123 1.704zm-2-2.4a5.72 5.72 0 0 0 1.463.371c1.294.142 2.455-.231 3.184-1.027l13.62-14.865a6.93 6.93 0 0 1-.604-.04 7.89 7.89 0 0 1-2.666-.807z" fill="#111"/><path d="m302.462 275.757-16.418 17.921-38.899-22.374 16.419-17.921z" fill="#B0C3FF"/><path d="M286.043 294.678a.995.995 0 0 1-.498-.133l-38.898-22.374a1.002 1.002 0 0 1-.239-1.543l16.419-17.921a1 1 0 0 1 1.236-.191l38.898 22.374a1.002 1.002 0 0 1 .239 1.543l-16.419 17.921a1 1 0 0 1-.738.324zm-37.317-23.619 37.122 21.352 15.034-16.41-37.122-21.352z" fill="#111"/><path d="M25.629 59.954a3.987 3.987 0 0 0-.459.608L8.747 87.048l16.419-17.921 16.423-26.486a3.97 3.97 0 0 1 .459-.608z" fill="#B0C3FF"/><path d="M8.747 88.048a1 1 0 0 1-.849-1.527L24.32 60.035c.165-.268.357-.523.571-.756l16.414-17.915.005-.006.001-.001a1 1 0 1 1 1.474 1.352l-.004.005c-.126.138-.24.29-.341.452L26.016 69.654a.965.965 0 0 1-.113.148L9.484 87.724a.998.998 0 0 1-.737.324zm26.567-37.184-8.948 9.766v.001a3.018 3.018 0 0 0-.344.455L15.228 78.494l9.137-9.973zm-9.685 9.09h.01z" fill="#111"/><path d="m263.564 253.383-16.419 17.921c-7.421 6.236-15.996 11.155-25.473 14.6l16.419-17.921c9.477-3.445 18.052-8.364 25.473-14.6" fill="#B0C3FF"/><path d="M221.673 286.904a1 1 0 0 1-.738-1.676l16.418-17.921a1 1 0 0 1 .396-.264c9.36-3.403 17.829-8.257 25.172-14.427a1 1 0 0 1 1.38 1.441l-16.419 17.921a1 1 0 0 1-.094.09c-7.521 6.32-16.193 11.291-25.774 14.774a.946.946 0 0 1-.341.062zm16.99-18.065-13.344 14.565c7.768-3.26 14.861-7.562 21.132-12.824l9.418-10.279c-5.318 3.432-11.075 6.29-17.206 8.538z" fill="#111"/><path d="M61.259 107.186 44.84 125.107 10.844 94.805l16.419-17.921z" fill="#B0C3FF"/><path d="M44.84 126.107a.999.999 0 0 1-.665-.253L10.179 95.551a.997.997 0 0 1-.072-1.422l16.419-17.921a1 1 0 0 1 1.403-.071l33.996 30.302a.997.997 0 0 1 .072 1.422l-16.419 17.921a.997.997 0 0 1-.738.325zM12.266 94.733l32.503 28.972 15.068-16.446-32.503-28.972z" fill="#111"/><path d="M27.263 76.884 10.844 94.805c-2.576-2.13-3.497-5.512-2.097-7.757l16.419-17.921c-1.4 2.245-.479 5.627 2.097 7.757" fill="#B0C3FF"/><path d="M10.844 95.805a.995.995 0 0 1-.637-.229c-2.993-2.474-3.985-6.368-2.308-9.056a.986.986 0 0 1 .111-.146l16.419-17.921a1 1 0 0 1 1.585 1.204c-1.13 1.812-.302 4.648 1.886 6.457a1.003 1.003 0 0 1 .1 1.447L11.581 95.48a.995.995 0 0 1-.737.325zm-1.293-8.154c-.941 1.606-.395 3.972 1.24 5.731l15.063-16.441c-1.298-1.344-2.09-2.976-2.296-4.579z" fill="#111"/><path d="m58.44 138.167-16.419 17.921c-.651-10.776.288-21.212 2.819-30.98l16.419-17.921c-2.531 9.767-3.47 20.204-2.819 30.98" fill="#B0C3FF"/><path d="M42.02 157.087a1 1 0 0 1-.998-.939c-.659-10.92.299-21.448 2.85-31.291a1 1 0 0 1 .231-.425l16.419-17.921a1 1 0 0 1 1.706.926c-2.498 9.64-3.436 19.959-2.789 30.669.016.271-.078.536-.261.736l-16.419 17.921c-.194.21-.463.324-.739.324zm3.726-31.488c-2.268 8.854-3.223 18.277-2.845 28.048l14.516-15.844c-.532-9.392.135-18.491 1.985-27.109z" fill="#111"/><path d="m182.671 271.982-16.419 17.921c-11.162-1.948-22.357-5.438-33.239-10.37l16.419-17.921c10.882 4.932 22.077 8.422 33.239 10.37" fill="#B0C3FF"/><path d="M166.253 290.903a1 1 0 0 1-.172-.015c-11.262-1.966-22.526-5.48-33.48-10.444a.998.998 0 0 1-.325-1.586l16.419-17.921a.999.999 0 0 1 1.15-.235c10.8 4.895 21.902 8.359 32.998 10.296a1.001 1.001 0 0 1 .566 1.661L166.99 290.58c-.191.207-.46.323-.737.323zm-31.566-11.716c10.227 4.52 20.714 7.76 31.199 9.636l14.824-16.181c-10.439-1.974-20.865-5.273-31.03-9.821z" fill="#111"/><path d="m241.563 314.051-34.14 2.449-16.419 17.921 34.14-2.449c1.236-.091 2.256-.591 2.966-1.366l16.419-17.921c-.711.776-1.73 1.275-2.966 1.366z" fill="#B0C3FF"/><path d="M191.004 335.422a1 1 0 0 1-.737-1.676l16.418-17.921a1 1 0 0 1 .666-.322l34.14-2.449c.942-.07 1.736-.429 2.296-1.04l.004-.004a1 1 0 0 1 1.475 1.351l-.004.005-16.415 17.917c-.912.996-2.167 1.579-3.629 1.687l-34.142 2.449a.885.885 0 0 1-.072.003zm16.887-17.953-14.453 15.775 31.633-2.27c.942-.07 1.738-.43 2.3-1.043l13.591-14.835zm33.672-3.418h.01z" fill="#111"/><path d="m200.232 311.668-16.419 17.921-17.56-39.686 16.418-17.921z" fill="#B0C3FF"/><path d="M183.813 330.589a1.001 1.001 0 0 1-.915-.595l-17.561-39.686a1 1 0 0 1 .177-1.08l16.419-17.921a1 1 0 0 1 1.652.271l17.56 39.686a1 1 0 0 1-.177 1.08l-16.418 17.921a.999.999 0 0 1-.737.324zm-16.381-40.493 16.677 37.689 14.943-16.311-16.677-37.689z" fill="#111"/><path d="m207.423 316.501-16.419 17.921a5.662 5.662 0 0 1-1.049-.021c-2.569-.283-5.106-2.225-6.142-4.812l16.419-17.921c1.036 2.587 3.573 4.528 6.142 4.812.35.038.701.046 1.049.021" fill="#B0C3FF"/><path d="M190.599 335.436c-.249 0-.501-.014-.753-.042-2.948-.325-5.81-2.559-6.961-5.434a.998.998 0 0 1 .191-1.047l16.418-17.921a1.002 1.002 0 0 1 1.666.304c.889 2.219 3.078 3.942 5.324 4.19.294.032.584.039.866.018a1 1 0 0 1 .81 1.673l-16.419 17.921c-.172.188-.41.303-.664.322a7.53 7.53 0 0 1-.478.016zm-5.601-5.66c1.008 1.945 3.014 3.404 5.067 3.631.164.018.326.028.486.029l14.777-16.129c-2.123-.523-4.108-1.99-5.326-3.908z" fill="#111"/><path d="m97.716 224.25-16.419 17.921c-8.382-9.003-15.64-18.846-21.571-29.24l16.419-17.921c5.93 10.394 13.189 20.237 21.571 29.24" fill="#B0C3FF"/><path d="M81.297 243.171a.997.997 0 0 1-.732-.319c-8.43-9.054-15.733-18.955-21.707-29.426a1.001 1.001 0 0 1 .131-1.171l16.419-17.921a1.002 1.002 0 0 1 1.606.18c5.897 10.337 13.109 20.112 21.434 29.054a1 1 0 0 1 .005 1.357l-16.419 17.921a.997.997 0 0 1-.733.324l-.004.001zm-20.339-30.103c5.654 9.799 12.489 19.085 20.336 27.627l15.063-16.441c-7.848-8.526-14.703-17.789-20.396-27.562z" fill="#111"/><path d="m76.145 195.01-16.419 17.921-40.665-2.412 16.418-17.921z" fill="#B0C3FF"/><path d="M59.726 213.931c-.02 0-.039 0-.059-.002l-40.666-2.412a1 1 0 0 1-.678-1.674l16.419-17.921a.987.987 0 0 1 .797-.323l40.666 2.412a1 1 0 0 1 .678 1.674l-16.419 17.921a.999.999 0 0 1-.738.325zm-38.509-4.286 38.094 2.26 14.678-16.021-38.093-2.26z" fill="#111"/><path d="M17.689 152.271c-.573-1.873-.208-3.618.842-4.764L2.113 165.428c-1.05 1.147-1.415 2.891-.842 4.764l10.911 34.995 16.419-17.92z" fill="#B0C3FF"/><path d="M12.181 206.187a1.004 1.004 0 0 1-.955-.702L.316 170.49c-.658-2.152-.262-4.295 1.059-5.738l16.419-17.921a1 1 0 1 1 1.475 1.351l-.003.003c-.835.914-1.068 2.33-.622 3.789l10.91 34.994a1 1 0 0 1-.217.973l-16.419 17.92a.995.995 0 0 1-.737.326zm4.279-54.938L2.85 166.104c-.838.915-1.071 2.334-.623 3.796l10.392 33.33 14.856-16.214-10.739-34.447-.001-.005a6.94 6.94 0 0 1-.275-1.315z" fill="#111"/><path d="M35.479 192.598 19.06 210.519c-3.329-.34-6.009-2.549-6.88-5.331l16.42-17.921c.87 2.782 3.551 4.992 6.879 5.331" fill="#B0C3FF"/><path d="M19.06 211.519a1.16 1.16 0 0 1-.102-.005c-3.612-.369-6.719-2.791-7.732-6.028a1 1 0 0 1 .217-.974l16.419-17.921a1.002 1.002 0 0 1 1.692.376c.777 2.484 3.199 4.347 6.027 4.635a1 1 0 0 1 .636 1.67l-16.419 17.921a.996.996 0 0 1-.738.326zm-5.732-6.103c.877 2.079 2.931 3.636 5.348 4.043l14.876-16.237c-2.25-.693-4.156-2.196-5.252-4.147z" fill="#111"/><path d="m125.661 288.753-16.419 17.921c-.972 1.061-2.444 1.513-4.013 1.34-1.138-.125-2.328-.58-3.415-1.368l16.419-17.921c1.087.788 2.277 1.243 3.415 1.368 1.569.173 3.04-.279 4.013-1.34" fill="#B0C3FF"/><path d="M105.872 309.05c-.248 0-.499-.014-.752-.042-1.351-.149-2.697-.686-3.893-1.553a1 1 0 0 1-.15-1.485l16.419-17.921a1 1 0 0 1 1.324-.134c.915.664 1.93 1.073 2.937 1.184 1.284.141 2.437-.229 3.162-1.018l.004-.004a1 1 0 1 1 1.475 1.351c-.373.407 0 0-.001.001l-16.418 17.92c-1.007 1.1-2.476 1.701-4.107 1.701zm-2.501-2.623a5.855 5.855 0 0 0 1.967.594c1.286.142 2.441-.231 3.166-1.022l13.625-14.871a7.01 7.01 0 0 1-.591-.04 7.99 7.99 0 0 1-3.14-1.062z" fill="#111"/><path d="m83.68 257.992-16.419 17.921 14.036-33.742 16.419-17.921z" fill="#B0C3FF"/><path d="M67.26 276.913a1 1 0 0 1-.922-1.384l14.036-33.742c.045-.107.108-.206.186-.292l16.419-17.921a.999.999 0 0 1 1.66 1.06l-14.036 33.742a1.029 1.029 0 0 1-.186.292l-16.419 17.921a.999.999 0 0 1-.738.324zm14.893-34.196-11.781 28.319 12.451-13.59 11.781-28.319zm1.527 15.275h.01z" fill="#111"/><path d="m118.233 288.725-16.419 17.921-31.834-23.01 16.419-17.921z" fill="#B0C3FF"/><path d="M101.814 307.646a.997.997 0 0 1-.585-.189l-31.834-23.01a1 1 0 0 1-.151-1.486l16.419-17.921a1 1 0 0 1 1.323-.135l31.834 23.01a1 1 0 0 1 .151 1.486l-16.419 17.921a1.004 1.004 0 0 1-.738.324zm-30.338-24.163 30.202 21.831 15.059-16.436-30.202-21.831z" fill="#111"/><path d="M86.399 265.715 69.98 283.636c-2.7-1.959-3.889-5.309-2.719-7.723l16.419-17.921c-1.17 2.414.019 5.764 2.719 7.723" fill="#B0C3FF"/><path d="M69.979 284.636a.994.994 0 0 1-.587-.191c-3.112-2.257-4.415-6.113-3.032-8.968a.997.997 0 0 1 .163-.24l16.419-17.921a1 1 0 0 1 1.637 1.111c-.951 1.963.106 4.808 2.406 6.477a1 1 0 0 1 .15 1.485L70.716 284.31a.993.993 0 0 1-.737.326zm-1.875-8.163c-.758 1.747.005 4.134 1.779 5.789l15.067-16.445c-1.47-1.361-2.398-3.106-2.65-4.838z" fill="#111"/><path d="M333.794 165.264c.931 2.973-.524 5.602-3.347 6.069l-37.403 8.036c.672 10.778-.288 21.211-2.798 30.982l33.993 30.281c2.579 2.15 3.476 5.51 2.078 7.775l-16.402 26.489c-.915 1.467-2.622 2.137-4.476 1.933-.983-.108-2.007-.462-2.976-1.074l-38.898-22.374c-7.421 6.236-15.996 11.155-25.473 14.6l7.395 40.41c.681 2.987-1.025 5.444-3.923 5.658l-34.14 2.449a5.662 5.662 0 0 1-1.049-.021c-2.569-.283-5.106-2.225-6.142-4.812l-17.56-39.686c-11.162-1.948-22.357-5.438-33.239-10.37l-23.559 26.889c-.962 1.241-2.537 1.778-4.225 1.592-1.138-.125-2.328-.58-3.415-1.368l-31.834-23.01c-2.7-1.959-3.889-5.309-2.719-7.723l14.036-33.742c-8.382-9.003-15.64-18.846-21.571-29.24l-40.666-2.412c-3.329-.34-6.009-2.549-6.88-5.331L17.69 152.269c-.909-2.971.543-5.62 3.347-6.07l37.403-8.035c-.651-10.776.288-21.212 2.819-30.98l-33.996-30.3c-2.576-2.13-3.497-5.512-2.097-7.757l16.423-26.486c.914-1.482 2.614-2.149 4.47-1.944.981.108 2.006.46 2.98 1.064l38.88 22.393c7.418-6.256 15.993-11.175 25.471-14.621l-7.374-40.409c-.682-2.987 1.028-5.423 3.926-5.637l34.116-2.472a5.751 5.751 0 0 1 1.049.02c2.573.284 5.125 2.23 6.145 4.833l17.558 39.665c11.162 1.948 22.36 5.459 33.239 10.37l23.559-26.889c.958-1.236 2.525-1.767 4.206-1.582 1.145.126 2.343.585 3.437 1.378l31.853 22.991c2.7 1.958 3.891 5.33 2.719 7.723L253.79 93.287c8.358 8.98 15.619 18.844 21.549 29.238l40.663 2.392c3.35.342 6.03 2.551 6.901 5.333zm-147.401 75.284c46.028 5.075 78.573-27.426 72.691-72.591s-47.965-85.894-93.993-90.969S86.518 104.414 92.4 149.58c5.882 45.164 47.965 85.893 93.993 90.968" fill="#FFF"/><path d="M207.019 317.515a6.86 6.86 0 0 1-.754-.042c-2.947-.325-5.81-2.559-6.961-5.434l-17.331-39.165c-10.855-1.941-21.706-5.319-32.276-10.046l-23.071 26.332c-1.114 1.44-2.98 2.159-5.087 1.927-1.351-.149-2.697-.686-3.892-1.553l-31.833-23.009c-3.114-2.259-4.417-6.114-3.033-8.969l13.766-33.097c-8.119-8.79-15.18-18.367-21-28.483l-40.126-2.38c-3.654-.372-6.762-2.795-7.775-6.031l-10.911-34.996c-.556-1.817-.378-3.591.5-5 .791-1.269 2.085-2.105 3.644-2.355l36.515-7.846c-.548-10.395.375-20.427 2.747-29.841L26.598 77.631c-2.965-2.45-3.957-6.344-2.28-9.032L40.74 42.115c1.088-1.764 3.12-2.667 5.429-2.411 1.152.127 2.327.544 3.397 1.208L87.814 62.94c7.17-5.942 15.386-10.666 24.442-14.053l-7.223-39.582c-.397-1.734-.094-3.425.863-4.719.907-1.228 2.318-1.972 3.973-2.094L143.986.02c.403-.03.818-.022 1.231.024 2.97.327 5.835 2.573 6.966 5.462l17.326 39.138c10.786 1.929 21.638 5.308 32.275 10.047l23.073-26.333c1.107-1.432 2.969-2.149 5.067-1.917 1.358.15 2.711.69 3.915 1.563l31.851 22.99c3.125 2.267 4.427 6.124 3.032 8.973L254.96 93.081c8.09 8.762 15.144 18.338 20.978 28.48l40.123 2.36c3.668.373 6.784 2.796 7.797 6.033l10.893 35.015c.562 1.798.396 3.56-.467 4.963-.788 1.28-2.092 2.129-3.672 2.39l-36.519 7.847c.562 10.313-.355 20.345-2.728 29.842l33.54 29.878c2.943 2.453 3.927 6.351 2.265 9.047l-16.403 26.49c-1.097 1.759-3.13 2.655-5.436 2.401-1.16-.128-2.335-.55-3.4-1.222l-38.26-22.006c-7.187 5.935-15.402 10.651-24.443 14.034l7.244 39.583c.398 1.741.092 3.44-.87 4.741-.908 1.229-2.316 1.972-3.964 2.094l-34.142 2.449a7.55 7.55 0 0 1-.477.015zm-57.586-56.903c.139 0 .28.029.413.089 10.8 4.895 21.902 8.359 32.998 10.296a1 1 0 0 1 .743.581l17.56 39.686c.903 2.252 3.092 3.975 5.337 4.222.294.032.584.039.866.018l34.141-2.449c1.056-.078 1.945-.535 2.501-1.287.61-.825.794-1.944.519-3.15l-7.404-40.453c-.087-.48.184-.953.642-1.12 9.36-3.403 17.829-8.257 25.172-14.427a1 1 0 0 1 1.142-.101l38.898 22.374c.845.531 1.727.852 2.587.947 1.521.168 2.84-.381 3.519-1.469l16.4-26.486c1.124-1.822.303-4.669-1.869-6.48L289.58 211.1a1.001 1.001 0 0 1-.304-.995c2.5-9.731 3.431-20.05 2.769-30.671a1 1 0 0 1 .788-1.04l37.403-8.036c1.062-.177 1.855-.684 2.342-1.474.555-.903.648-2.081.261-3.319l-.001-.001-10.892-35.014c-.776-2.482-3.207-4.346-6.047-4.635l-40.62-2.388a.999.999 0 0 1-.81-.503c-5.914-10.365-13.118-20.14-21.413-29.052a.999.999 0 0 1-.191-1.065l14.034-33.763c.983-2.012-.075-4.855-2.383-6.53l-31.851-22.99c-.924-.671-1.947-1.083-2.96-1.195-1.392-.152-2.597.284-3.306 1.2l-23.598 26.935a.999.999 0 0 1-1.164.252c-10.873-4.908-21.975-8.372-32.999-10.296a.998.998 0 0 1-.742-.58L150.337 6.273c-.888-2.265-3.077-3.994-5.34-4.243a4.745 4.745 0 0 0-.866-.017l-34.117 2.472c-1.062.079-1.954.536-2.51 1.288-.605.818-.787 1.929-.513 3.129l7.382 40.451a.999.999 0 0 1-.642 1.119c-9.376 3.409-17.844 8.27-25.167 14.446-.322.271-.78.312-1.144.102L48.54 42.627c-.846-.523-1.733-.842-2.591-.936-1.548-.171-2.825.367-3.509 1.476L26.016 69.655c-1.132 1.814-.303 4.65 1.884 6.459l34.024 30.326a1 1 0 0 1 .303.997c-2.498 9.64-3.436 19.959-2.789 30.669a1 1 0 0 1-.788 1.038l-37.403 8.035c-1.045.169-1.827.666-2.314 1.448-.568.91-.669 2.101-.286 3.352l10.909 34.99c.777 2.483 3.199 4.346 6.027 4.634l40.624 2.409c.337.02.642.209.809.503 5.897 10.337 13.109 20.112 21.434 29.054a.999.999 0 0 1 .191 1.065l-14.036 33.742c-.975 2.015.083 4.86 2.383 6.529l31.833 23.009c.916.665 1.932 1.074 2.939 1.185 1.4.154 2.61-.288 3.325-1.211l23.597-26.936a.995.995 0 0 1 .751-.34zm46.385-18.537a87.11 87.11 0 0 1-9.534-.533c-46.385-5.114-88.947-46.31-94.875-91.833-2.852-21.9 3.09-41.623 16.731-55.535 13.963-14.24 34.227-20.696 57.061-18.179 46.385 5.114 88.946 46.311 94.875 91.834 2.852 21.899-3.09 41.622-16.731 55.535-11.987 12.223-28.616 18.711-47.527 18.711zM155.674 77.462c-18.375 0-34.505 6.279-46.107 18.112-13.202 13.465-18.947 32.599-16.176 53.877 5.817 44.664 47.587 85.084 93.111 90.104 22.214 2.449 41.89-3.799 55.414-17.592 13.203-13.465 18.947-32.599 16.176-53.876-5.817-44.664-47.586-85.085-93.111-90.104a84.71 84.71 0 0 0-9.307-.521z" fill="#111"/></svg></g></svg>