<svg height="1339.596" viewBox="0 0 1696.814 1339.596" width="1696.814" xmlns="http://www.w3.org/2000/svg" xmlns:xlink="http://www.w3.org/1999/xlink"><linearGradient id="a" gradientTransform="matrix(.99937674 -.03530068 .03530068 .99937674 -224.996 134.505)" gradientUnits="userSpaceOnUse" x1="1046.652" x2="1381.567" y1="316.106" y2="59.586"><stop offset=".609" stop-color="#b0c3ff"/><stop offset=".803" stop-color="#fff"/><stop offset="1" stop-color="#b0c3ff"/></linearGradient><path d="m89.142 510.352 534.276-406.551 93.278 667.24-534.276 406.55z" fill="#b0c3ff"/><path d="m182.42 1178.592c-.129 0-.258-.024-.381-.075-.328-.136-.561-.435-.609-.786l-93.279-667.24c-.05-.358.097-.716.385-.935l534.276-406.551c.283-.216.66-.263.986-.129.328.135.56.435.609.786l93.278 667.24c.05.358-.097.716-.385.935l-534.276 406.551c-.177.135-.39.204-.605.204zm-92.207-667.798 92.961 664.968 532.451-405.162-92.96-664.968z" fill="#111"/><path d="m1380.883 264.806 93.278 667.239-757.465-161.004-93.278-667.24z" fill="#3658c1"/><path d="m1474.162 933.045c-.069 0-.139-.007-.208-.021l-757.466-161.004c-.411-.088-.724-.424-.782-.84l-93.278-667.24c-.045-.323.07-.648.309-.87.238-.223.57-.314.89-.247l757.465 161.004c.411.088.725.424.782.84l93.278 667.239c.045.323-.07.647-.309.87-.187.175-.432.269-.682.269zm-756.572-162.836 755.384 160.562-92.983-665.133-755.385-160.562 92.983 665.133z" fill="#111"/><path d="m1246.014 426.29c2.433-5.31 3.8-11.21 3.8-17.433 0-23.144-18.762-41.905-41.905-41.905-1.793 0-3.556.126-5.289.344-7.16-12.84-20.871-21.529-36.616-21.529-12.596 0-23.886 5.565-31.568 14.362-7.682-8.797-18.971-14.362-31.568-14.362-7.983 0-15.443 2.234-21.794 6.108-6.951-10.426-18.813-17.298-32.284-17.298-3.978 0-7.815.601-11.428 1.714-6.53-12.21-19.4-20.52-34.214-20.52-14.001 0-26.266 7.422-33.083 18.543-4.617-1.94-9.688-3.014-15.01-3.014-6.317 0-12.276 1.521-17.546 4.2-5.454-14.816-19.693-25.385-36.402-25.385-7.369 0-14.259 2.057-20.126 5.626-6.477-12.379-19.434-20.832-34.373-20.832-12.498 0-23.608 5.919-30.7 15.1-6.217-7.695-15.724-12.62-26.387-12.62-.331 0-.658.016-.986.025-3.64-14.806-16.996-25.791-32.925-25.791-12.651 0-23.675 6.933-29.504 17.201-6.216-7.694-15.724-12.619-26.386-12.619-9.433 0-17.964 3.854-24.111 10.072-5.219-12.009-17.181-20.41-31.11-20.41-15.323 0-28.267 10.165-32.469 24.119-2.944-.834-6.047-1.291-9.259-1.291-18.728 0-33.911 15.183-33.911 33.911 0 1.543.113 3.059.313 4.549-7.001 2.546-12.918 7.336-16.901 13.495-2.854-.78-5.855-1.205-8.957-1.205-16.073 0-29.524 11.186-33.018 26.194-1.88-.28-3.803-.428-5.76-.428-14.841 0-27.729 8.34-34.248 20.587-4.917-2.256-10.382-3.523-16.146-3.523-21.417 0-38.779 17.362-38.779 38.779 0 1.895.143 3.756.405 5.579-5.13 3.105-9.475 7.37-12.689 12.425-6.078-3.956-13.328-6.264-21.121-6.264-21.417 0-38.779 17.362-38.779 38.779 0 2.058.164 4.078.473 6.049-14.718 4.186-26.13 16.206-29.439 31.272-1.354-.132-2.725-.203-4.113-.203-23.144 0-41.905 18.761-41.905 41.905 0 11.965 5.023 22.751 13.066 30.387l-164.723 125.344 757.465 161.004 534.276-406.551-162.266-34.491z" fill="#fff"/><path d="m874.004 868.332c-.069 0-.139-.007-.208-.021l-757.465-161.004c-.382-.082-.682-.378-.768-.76s.059-.777.37-1.015l163.8-124.642c-8.094-8.1-12.538-18.812-12.538-30.294 0-23.658 19.247-42.905 42.905-42.905 1.089 0 2.207.044 3.333.132 3.554-14.739 14.596-26.47 29.104-30.914-.238-1.771-.358-3.562-.358-5.336 0-21.934 17.845-39.778 39.778-39.778 7.382 0 14.56 2.034 20.823 5.892 3.113-4.632 7.205-8.606 11.909-11.563-.217-1.699-.327-3.402-.327-5.07 0-21.934 17.845-39.778 39.779-39.778 5.452 0 10.732 1.088 15.71 3.234 7.055-12.545 20.259-20.299 34.683-20.299 1.662 0 3.342.106 5.005.315 4.002-15.402 17.762-26.081 33.773-26.081 2.868 0 5.73.354 8.518 1.056 3.968-5.862 9.693-10.443 16.251-13.005-.148-1.32-.224-2.626-.224-3.89 0-19.25 15.661-34.911 34.911-34.911 2.892 0 5.778.362 8.594 1.076 4.695-14.123 18.181-23.905 33.134-23.905 13.429 0 25.611 7.688 31.428 19.707 6.483-6.053 14.876-9.368 23.793-9.368 10.117 0 19.604 4.319 26.246 11.899 6.355-10.201 17.584-16.48 29.644-16.48 15.844 0 29.584 10.555 33.694 25.768.072 0 .145-.002.217-.002 10.179 0 19.72 4.372 26.368 12.039 7.597-9.243 18.723-14.52 30.719-14.52 14.502 0 27.724 7.806 34.759 20.443 5.991-3.43 12.792-5.237 19.74-5.237 16.231 0 30.937 10.002 36.943 25.005 5.34-2.536 11.055-3.82 17.004-3.82 5.048 0 9.959.932 14.61 2.771 7.365-11.476 19.818-18.3 33.484-18.3 14.432 0 27.654 7.77 34.703 20.331 3.548-1.013 7.225-1.525 10.939-1.525 13.014 0 25.121 6.321 32.58 16.959 6.512-3.776 13.924-5.769 21.498-5.769 12.005 0 23.444 5.039 31.567 13.864 8.124-8.825 19.564-13.864 31.568-13.864 15.318 0 29.493 8.204 37.157 21.457 1.62-.181 3.214-.272 4.748-.272 23.658 0 42.905 19.247 42.905 42.905 0 5.792-1.14 11.408-3.389 16.71l161.063 34.235c.382.082.683.378.768.76.086.382-.059.777-.37 1.015l-534.276 406.551c-.175.134-.389.204-.605.204zm-755.124-162.528 754.883 160.455 532.176-404.953-160.133-34.037c-.297-.063-.549-.258-.686-.529s-.143-.59-.016-.866c2.461-5.371 3.709-11.097 3.709-17.016 0-22.556-18.35-40.905-40.905-40.905-1.66 0-3.397.113-5.164.336-.408.047-.8-.148-.998-.505-7.23-12.963-20.926-21.016-35.743-21.016-11.802 0-23.034 5.11-30.815 14.021-.189.217-.464.342-.752.342-.289 0-.563-.125-.753-.342-7.78-8.91-19.012-14.021-30.814-14.021-7.525 0-14.881 2.062-21.272 5.962-.458.28-1.055.147-1.353-.299-7.035-10.553-18.793-16.854-31.453-16.854-3.789 0-7.535.562-11.134 1.67-.457.139-.95-.063-1.176-.484-6.594-12.331-19.367-19.991-33.332-19.991-13.248 0-25.297 6.754-32.231 18.065-.257.421-.783.591-1.24.399-4.636-1.948-9.556-2.937-14.623-2.937-6.002 0-11.753 1.377-17.092 4.092-.255.129-.552.145-.818.039-.266-.104-.475-.317-.573-.585-5.445-14.792-19.697-24.73-35.463-24.73-6.933 0-13.713 1.896-19.606 5.48-.236.143-.522.183-.787.109-.267-.074-.49-.256-.619-.5-6.549-12.52-19.381-20.296-33.487-20.296-11.786 0-22.687 5.362-29.909 14.711-.187.242-.475.386-.781.389-.316.033-.596-.134-.789-.371-6.289-7.784-15.623-12.248-25.609-12.248-.219 0-.437.007-.654.015l-.305.01c-.48 0-.886-.305-.998-.762-3.623-14.736-16.763-25.028-31.954-25.028-11.817 0-22.79 6.396-28.634 16.693-.163.288-.458.477-.788.504-.334.028-.651-.111-.859-.369-6.289-7.783-15.622-12.247-25.608-12.247-8.857 0-17.168 3.472-23.4 9.774-.233.235-.567.34-.895.28-.326-.062-.601-.28-.733-.585-5.23-12.033-17.082-19.809-30.193-19.809-14.402 0-27.361 9.626-31.512 23.407-.158.523-.705.825-1.23.674-2.934-.831-5.957-1.252-8.986-1.252-18.147 0-32.911 14.764-32.911 32.911 0 1.427.102 2.912.304 4.415.063.466-.208.912-.649 1.072-6.689 2.433-12.515 7.085-16.403 13.099-.236.366-.683.535-1.104.422-2.836-.775-5.761-1.169-8.693-1.169-15.383 0-28.56 10.453-32.044 25.421-.118.508-.603.835-1.122.763-1.859-.277-3.748-.418-5.613-.418-13.995 0-26.779 7.686-33.365 20.057-.249.469-.82.658-1.3.439-4.963-2.277-10.254-3.432-15.729-3.432-20.831 0-37.779 16.947-37.779 37.778 0 1.786.133 3.616.396 5.438.057.397-.128.79-.472.998-4.961 3.002-9.236 7.188-12.363 12.105-.143.226-.371.385-.632.441-.261.054-.534.006-.757-.14-6.133-3.991-13.248-6.102-20.575-6.102-20.831 0-37.778 16.947-37.778 37.778 0 1.962.155 3.945.46 5.895.079.5-.228.979-.714 1.117-14.495 4.122-25.505 15.818-28.736 30.525-.108.494-.567.827-1.074.78-1.358-.132-2.709-.199-4.016-.199-22.555 0-40.905 18.35-40.905 40.905 0 11.319 4.53 21.854 12.754 29.662.213.202.326.487.31.78s-.16.563-.393.741l-162.987 124.023z" fill="#111"/><path d="m676.675 289.044c-4.49-13.468-17.2-23.177-32.177-23.177-17.075 0-31.203 12.621-33.564 29.043" fill="#fff"/><path d="m610.936 295.909c-.047 0-.096-.003-.144-.01-.547-.079-.926-.586-.848-1.133 2.451-17.046 17.305-29.9 34.554-29.9 15.055 0 28.367 9.589 33.125 23.861.175.524-.108 1.091-.632 1.265-.526.176-1.091-.108-1.265-.632-4.486-13.454-17.035-22.494-31.228-22.494-16.26 0-30.264 12.117-32.574 28.186-.072.498-.5.857-.988.857z" fill="#111"/><path d="m627.846 299.777c-6.202-6.808-15.14-11.081-25.075-11.081-18.728 0-33.911 15.182-33.911 33.911 0 3.006.391 5.92 1.125 8.695" fill="#fff"/><path d="m569.984 332.301c-.443 0-.848-.296-.966-.744-.769-2.905-1.158-5.917-1.158-8.951 0-19.25 15.661-34.91 34.911-34.91 9.802 0 19.211 4.158 25.815 11.407.372.409.342 1.041-.066 1.413s-1.041.342-1.413-.065c-6.226-6.835-15.096-10.755-24.336-10.755-18.147 0-32.911 14.764-32.911 32.91 0 2.861.367 5.701 1.092 8.439.141.534-.177 1.081-.711 1.223-.086.022-.172.033-.256.033z" fill="#111"/><path d="m728.947 292.91c-5.898-9.998-16.78-16.705-29.228-16.705s-23.387 6.743-29.274 16.784" fill="#fff"/><path d="m670.444 293.988c-.172 0-.346-.044-.505-.138-.477-.279-.636-.892-.357-1.368 6.249-10.657 17.796-17.277 30.137-17.277s23.832 6.59 30.089 17.197c.281.476.123 1.089-.353 1.369-.477.278-1.089.122-1.37-.354-5.899-10-16.769-16.213-28.367-16.213s-22.521 6.241-28.411 16.289c-.187.317-.521.494-.864.494z" fill="#111"/><path d="m789.52 305.534c0-18.728-15.182-33.911-33.911-33.911-14.566 0-26.987 9.184-31.789 22.077" fill="#fff"/><path d="m789.521 306.534c-.552 0-1-.447-1-1 0-18.147-14.764-32.911-32.911-32.911-13.68 0-26.079 8.61-30.852 21.426-.193.519-.769.777-1.286.589-.518-.193-.781-.769-.588-1.286 5.063-13.595 18.215-22.729 32.726-22.729 19.25 0 34.911 15.661 34.911 34.911 0 .553-.448 1-1 1z" fill="#111"/><path d="m607.46 338.121c-6.208-7.915-15.859-13.001-26.699-13.001-13.341 0-24.882 7.704-30.418 18.905" fill="#fff"/><path d="m550.342 345.025c-.148 0-.3-.033-.442-.104-.495-.245-.698-.845-.454-1.34 5.933-12.005 17.933-19.462 31.315-19.462 10.796 0 20.814 4.878 27.485 13.384.341.435.265 1.063-.169 1.404s-1.063.266-1.404-.17c-6.29-8.019-15.734-12.618-25.912-12.618-12.616 0-23.928 7.03-29.522 18.349-.174.353-.529.557-.897.557z" fill="#111"/><path d="m560.333 344.018c-5.002-2.908-10.816-4.573-17.018-4.573-16.958 0-31.009 12.448-33.514 28.705" fill="#fff"/><path d="m509.802 369.15c-.051 0-.102-.004-.154-.012-.546-.084-.92-.595-.836-1.141 2.595-16.848 17.428-29.553 34.502-29.553 6.164 0 12.223 1.628 17.521 4.709.478.277.64.89.362 1.367-.277.478-.889.64-1.367.361-4.994-2.903-10.705-4.438-16.516-4.438-16.096 0-30.079 11.976-32.525 27.857-.076.494-.502.848-.987.848z" fill="#111"/><path d="m517.89 367.572c-4.163-1.527-8.662-2.361-13.355-2.361-17.578 0-32.424 11.696-37.182 27.73" fill="#fff"/><path d="m467.354 393.94c-.094 0-.19-.013-.285-.041-.529-.157-.831-.714-.674-1.243 4.969-16.748 20.653-28.445 38.141-28.445 4.708 0 9.317.815 13.699 2.423.519.189.785.765.595 1.283s-.764.787-1.283.594c-4.161-1.526-8.538-2.3-13.01-2.3-16.608 0-31.504 11.108-36.224 27.014-.129.435-.527.716-.958.716z" fill="#111"/><path d="m490.876 408.597c-5.189-15.306-19.675-26.322-36.734-26.322-21.417 0-38.779 17.362-38.779 38.779 0 4.131.646 8.11 1.842 11.844" fill="#fff"/><path d="m417.206 433.897c-.423 0-.816-.271-.952-.695-1.254-3.913-1.89-8.001-1.89-12.148 0-21.934 17.845-39.778 39.779-39.778 17.064 0 32.207 10.851 37.682 27 .177.523-.103 1.091-.626 1.269-.522.179-1.09-.104-1.269-.626-5.199-15.338-19.581-25.643-35.787-25.643-20.832 0-37.779 16.947-37.779 37.778 0 3.94.604 7.822 1.794 11.539.168.525-.121 1.089-.647 1.257-.102.032-.204.048-.305.048z" fill="#111"/><path d="m457.498 427.677c-6.189-4.181-13.65-6.623-21.681-6.623-16.063 0-29.844 9.766-35.731 23.684" fill="#fff"/><path d="m400.085 445.738c-.13 0-.262-.025-.389-.079-.509-.215-.747-.802-.531-1.311 6.242-14.759 20.629-24.295 36.652-24.295 7.971 0 15.662 2.35 22.242 6.794.458.31.578.932.269 1.389-.309.458-.93.577-1.389.27-6.247-4.222-13.551-6.452-21.122-6.452-15.218 0-28.881 9.057-34.81 23.074-.161.382-.532.61-.921.61z" fill="#111"/><path d="m407.919 442.766c-6.873-6.198-15.976-9.971-25.96-9.971-21.417 0-38.779 17.362-38.779 38.779 0 5.354 1.085 10.455 3.047 15.094" fill="#fff"/><path d="m346.229 487.668c-.39 0-.76-.229-.921-.61-2.075-4.904-3.126-10.114-3.126-15.484 0-21.934 17.845-39.778 39.778-39.778 9.857 0 19.314 3.633 26.629 10.228.41.37.443 1.003.073 1.413-.369.409-1.001.442-1.412.073-6.947-6.265-15.929-9.714-25.291-9.714-20.831 0-37.778 16.947-37.778 37.778 0 5.101.999 10.049 2.968 14.705.215.509-.022 1.096-.531 1.311-.127.054-.259.079-.389.079z" fill="#111"/><path d="m378.563 483.175c-6.688-4.518-14.751-7.157-23.43-7.157-23.144 0-41.905 18.762-41.905 41.905" fill="#fff"/><path d="m313.228 518.923c-.552 0-1-.447-1-1 0-23.658 19.247-42.905 42.905-42.905 8.597 0 16.893 2.534 23.989 7.328.458.31.578.932.269 1.389s-.931.578-1.388.27c-6.765-4.57-14.673-6.986-22.87-6.986-22.555 0-40.905 18.35-40.905 40.905 0 .553-.448 1-1 1z" fill="#111"/><path d="m323.278 510.805c-4.144-1.371-8.574-2.114-13.177-2.114-23.144 0-41.905 18.762-41.905 41.905 0 4.67.764 9.161 2.173 13.356" fill="#fff"/><path d="m270.369 564.953c-.418 0-.808-.264-.948-.682-1.477-4.395-2.226-8.995-2.226-13.675 0-23.658 19.247-42.905 42.905-42.905 4.614 0 9.153.729 13.491 2.165.524.174.809.739.635 1.264-.174.523-.738.807-1.264.635-4.135-1.369-8.462-2.063-12.862-2.063-22.555 0-40.905 18.35-40.905 40.905 0 4.462.714 8.849 2.121 13.038.176.523-.106 1.091-.629 1.267-.105.035-.213.052-.318.052z" fill="#111"/><path d="m883.923 323.1c-4.608-16.27-19.569-28.19-37.315-28.19-17.906 0-32.977 12.136-37.437 28.631" fill="#fff"/><path d="m809.17 324.54c-.086 0-.174-.011-.262-.034-.533-.145-.848-.693-.704-1.227 4.676-17.293 20.468-29.37 38.403-29.37 17.715 0 33.456 11.892 38.277 28.918.15.531-.159 1.084-.69 1.234-.531.153-1.084-.158-1.235-.689-4.579-16.17-19.527-27.463-36.353-27.463-17.034 0-32.031 11.47-36.472 27.892-.121.446-.524.739-.965.739z" fill="#111"/><path d="m939.885 348.894c0-21.417-17.362-38.779-38.779-38.779-12.876 0-24.287 6.276-31.34 15.936" fill="#fff"/><path d="m939.885 349.895c-.552 0-1-.447-1-1 0-20.831-16.947-37.778-37.779-37.778-12.021 0-23.435 5.804-30.532 15.525-.326.445-.95.544-1.397.218-.446-.325-.543-.951-.218-1.397 7.473-10.235 19.49-16.346 32.147-16.346 21.934 0 39.779 17.845 39.779 39.778 0 .553-.448 1-1 1z" fill="#111"/><path d="m984.353 344.674c-7.11-8.193-17.599-13.373-29.298-13.373-15.893 0-29.554 9.561-35.542 23.246" fill="#fff"/><path d="m919.511 355.546c-.134 0-.27-.026-.4-.084-.506-.222-.737-.811-.515-1.317 6.339-14.485 20.65-23.845 36.458-23.845 11.533 0 22.487 5 30.054 13.719.362.417.317 1.049-.1 1.41-.416.364-1.049.318-1.411-.1-7.186-8.28-17.59-13.029-28.543-13.029-15.014 0-28.605 8.89-34.626 22.647-.164.375-.531.599-.917.599z" fill="#111"/><path d="m1041.926 354.549c0-21.417-17.362-38.779-38.779-38.779-17.684 0-32.603 11.837-37.266 28.019" fill="#fff"/><path d="m1041.926 355.55c-.552 0-1-.447-1-1 0-20.832-16.947-37.779-37.778-37.779-16.744 0-31.674 11.225-36.306 27.297-.153.529-.709.835-1.238.684-.531-.153-.837-.707-.684-1.238 4.877-16.923 20.597-28.742 38.228-28.742 21.934 0 39.778 17.845 39.778 39.779 0 .553-.448 1-1 1z" fill="#111"/><path d="m1085.438 360.647c-5.262-15.175-19.683-26.069-36.648-26.069-21.417 0-38.779 17.362-38.779 38.779 0 2.677.271 5.291.788 7.815" fill="#fff"/><path d="m1010.798 382.171c-.465 0-.882-.326-.979-.8-.536-2.622-.808-5.318-.808-8.016 0-21.934 17.844-39.778 39.778-39.778 16.939 0 32.046 10.747 37.593 26.742.181.521-.095 1.091-.617 1.271-.523.183-1.092-.095-1.272-.617-5.267-15.19-19.615-25.396-35.703-25.396-20.831 0-37.778 16.947-37.778 37.778 0 2.563.258 5.125.767 7.615.111.541-.238 1.069-.779 1.18-.067.014-.135.021-.201.021z" fill="#111"/><path d="m1142.987 375.531c-5.205-17.223-21.198-29.764-40.119-29.764-16.859 0-31.393 9.956-38.043 24.309" fill="#fff"/><path d="m1142.987 376.531c-.43 0-.826-.278-.957-.711-5.17-17.105-21.274-29.053-39.162-29.053-15.88 0-30.457 9.314-37.136 23.729-.232.502-.828.719-1.328.487-.501-.232-.719-.826-.487-1.327 7.005-15.119 22.294-24.889 38.95-24.889 18.763 0 35.653 12.531 41.076 30.475.16.528-.139 1.087-.668 1.246-.096.029-.193.043-.289.043z" fill="#111"/><path d="m1207.909 387.673c0-23.144-18.762-41.905-41.905-41.905s-41.905 18.762-41.905 41.905" fill="#fff"/><path d="m1207.909 388.673c-.553 0-1-.447-1-1 0-22.556-18.35-40.905-40.905-40.905s-40.905 18.35-40.905 40.905c0 .553-.447 1-1 1s-1-.447-1-1c0-23.658 19.247-42.905 42.905-42.905s42.905 19.247 42.905 42.905c0 .553-.447 1-1 1z" fill="#111"/><path d="m1248.14 420.621c1.09-3.732 1.674-7.68 1.674-11.764 0-23.144-18.762-41.905-41.905-41.905-10.497 0-20.093 3.86-27.445 10.237" fill="#fff"/><path d="m1248.14 421.621c-.093 0-.187-.013-.28-.04-.53-.155-.834-.71-.68-1.24 1.084-3.713 1.634-7.576 1.634-11.483 0-22.556-18.35-40.905-40.905-40.905-9.848 0-19.361 3.549-26.79 9.993-.418.361-1.048.315-1.411-.101-.361-.417-.316-1.049.101-1.411 7.792-6.759 17.771-10.481 28.101-10.481 23.658 0 42.905 19.247 42.905 42.905 0 4.097-.576 8.149-1.714 12.044-.128.437-.526.72-.96.72z" fill="#111"/><path d="m846.607 671.356 93.278 667.24-757.465-161.005-93.278-667.239z" fill="#fff"/><path d="m939.885 1339.596c-.069 0-.139-.007-.208-.021l-757.465-161.004c-.412-.088-.724-.424-.782-.84l-93.279-667.24c-.045-.323.07-.647.309-.87.239-.224.569-.314.89-.247l757.466 161.004c.412.088.724.424.782.84l93.278 667.239c.045.323-.07.647-.309.87-.187.175-.431.269-.682.269zm-756.572-162.836 755.384 160.562-92.983-665.133-755.384-160.562 92.984 665.133z" fill="#111"/><path d="m846.607 671.356 534.276-406.55 93.278 667.239-534.276 406.551z" fill="#b0c3ff"/><path d="m939.885 1339.596c-.129 0-.258-.024-.381-.075-.329-.136-.561-.435-.609-.786l-93.278-667.239c-.05-.358.097-.716.385-.935l534.276-406.551c.282-.216.658-.265.986-.129s.561.435.609.786l93.278 667.239c.05.358-.097.716-.385.935l-534.276 406.551c-.177.135-.39.204-.605.204zm-92.207-667.798 92.96 664.968 532.451-405.162-92.961-664.968-532.451 405.162z" fill="#111"/><path d="m618.184 584.039 52.579-98.864 106.896 24.633-50.314 94.606z" fill="#fff"/><path d="m727.345 605.414c-.061 0-.123-.006-.184-.017l-109.161-20.375c-.313-.059-.579-.263-.717-.55-.138-.286-.131-.622.018-.903l52.579-98.864c.212-.398.664-.607 1.107-.505l106.896 24.634c.303.07.556.276.685.56.129.283.119.61-.027.885l-50.314 94.605c-.176.33-.518.53-.882.53zm-107.639-22.108 107.1 19.99 49.357-92.806-104.877-24.169-51.58 96.984z" fill="#111"/><path d="m727.345 604.414 50.314-94.606 32.145 43.643-7.481 14.066z" fill="#b0c3ff"/><path d="m727.345 605.414c-.265 0-.526-.105-.719-.304-.302-.312-.368-.783-.165-1.166l50.314-94.605c.161-.304.467-.503.81-.527.349-.026.674.128.878.404l32.145 43.643c.228.31.258.723.078 1.063l-7.48 14.065c-.099.186-.253.335-.441.428l-74.979 36.897c-.141.069-.292.103-.441.103zm50.45-93.733-48.114 90.469 71.91-35.388 7.033-13.225-30.83-41.856z" fill="#111"/><path d="m639.72 569.627c1.002-2.966 1.545-6.143 1.545-9.448 0-16.299-13.213-29.512-29.512-29.512-13.5 0-24.882 9.064-28.394 21.438" fill="#fff"/><path d="m639.72 570.627c-.106 0-.214-.017-.32-.053-.523-.177-.804-.744-.627-1.268.99-2.931 1.492-6.002 1.492-9.127 0-15.722-12.791-28.512-28.512-28.512-12.691 0-23.971 8.517-27.432 20.711-.151.53-.703.843-1.235.688-.531-.15-.84-.704-.689-1.235 3.704-13.05 15.775-22.164 29.356-22.164 16.824 0 30.512 13.688 30.512 30.512 0 3.344-.538 6.63-1.598 9.768-.141.417-.53.68-.947.68z" fill="#111"/><path d="m661.698 593.678c.282-1.639.429-3.325.429-5.045 0-16.299-13.213-29.512-29.512-29.512s-29.512 13.213-29.512 29.512c0 3.852.738 7.532 2.08 10.905" fill="#fff"/><path d="m605.185 600.539c-.398 0-.773-.238-.93-.63-1.427-3.587-2.151-7.381-2.151-11.275 0-16.824 13.688-30.512 30.512-30.512s30.512 13.688 30.512 30.512c0 1.748-.149 3.502-.444 5.215-.093.544-.614.908-1.155.815-.544-.094-.91-.61-.816-1.155.275-1.601.415-3.24.415-4.875 0-15.722-12.791-28.512-28.512-28.512s-28.512 12.79-28.512 28.512c0 3.641.676 7.186 2.009 10.535.204.514-.046 1.095-.56 1.299-.121.049-.246.071-.369.071z" fill="#111"/><path d="m708.041 604.861c-.449-16.293-14.021-29.136-30.314-28.687s-29.136 14.021-28.687 30.314" fill="#fff"/><path d="m649.04 607.488c-.54 0-.984-.43-.999-.973-.464-16.817 12.841-30.877 29.659-31.341 8.12-.212 15.893 2.736 21.813 8.338 5.919 5.603 9.303 13.174 9.528 21.321.015.552-.42 1.012-.972 1.027-.547.031-1.012-.421-1.027-.973-.21-7.613-3.372-14.688-8.904-19.923s-12.783-8.01-20.383-7.791c-15.716.433-28.148 13.57-27.715 29.286.015.552-.42 1.012-.972 1.027h-.028z" fill="#111"/><path d="m856.757 577.834c-1.493-18.602-17.783-32.473-36.385-30.98-16.023 1.286-28.535 13.55-30.743 28.813" fill="#fff"/><path d="m856.755 578.834c-.516 0-.954-.396-.996-.92-.701-8.73-4.759-16.666-11.428-22.345-6.669-5.678-15.152-8.424-23.88-7.719-15.362 1.232-27.63 12.73-29.833 27.96-.08.547-.588.933-1.133.846-.547-.079-.926-.586-.847-1.133 2.337-16.159 15.354-28.358 31.653-29.667 9.265-.742 18.262 2.166 25.337 8.19 7.076 6.024 11.382 14.444 12.125 23.707.044.551-.366 1.033-.917 1.077-.027.002-.054.003-.081.003z" fill="#111"/><path d="m813.116 595.299c0-18.231-14.779-33.01-33.01-33.01s-33.01 14.779-33.01 33.01c0 3.239.466 6.369 1.336 9.326" fill="#fff"/><path d="m748.43 605.626c-.432 0-.831-.282-.959-.718-.914-3.108-1.376-6.342-1.376-9.609 0-18.753 15.257-34.01 34.011-34.01s34.01 15.257 34.01 34.01c0 .553-.448 1-1 1s-1-.447-1-1c0-17.65-14.36-32.01-32.01-32.01s-32.011 14.359-32.011 32.01c0 3.076.436 6.12 1.295 9.045.156.53-.147 1.086-.678 1.241-.094.028-.189.041-.282.041z" fill="#111"/><path d="m760.553 616.557c-2.88-18.002-19.809-30.261-37.811-27.381-10.132 1.621-18.444 7.692-23.262 15.899" fill="#fff"/><path d="m760.551 617.557c-.482 0-.907-.351-.986-.842-1.351-8.443-5.909-15.854-12.834-20.869-6.925-5.016-15.389-7.03-23.832-5.682-9.474 1.516-17.696 7.136-22.558 15.417-.279.476-.891.637-1.369.356-.476-.279-.636-.893-.356-1.368 5.166-8.8 13.901-14.77 23.966-16.38 8.97-1.434 17.963.708 25.321 6.036s12.201 13.203 13.636 22.173c.087.546-.284 1.059-.829 1.146-.054.009-.107.013-.16.013z" fill="#111"/><path d="m507.93 516.539c-5.989-6.093-14.325-9.872-23.544-9.872-18.231 0-33.01 14.779-33.01 33.01" fill="#fff"/><path d="m451.375 540.678c-.552 0-1-.447-1-1 0-18.754 15.257-34.011 34.01-34.011 9.195 0 17.81 3.612 24.257 10.171.387.394.382 1.027-.012 1.414-.395.387-1.028.382-1.415-.012-6.068-6.174-14.176-9.573-22.831-9.573-17.65 0-32.01 14.36-32.01 32.011 0 .553-.448 1-1 1z" fill="#111"/><path d="m479.653 558.079c0-20.297-16.454-36.75-36.75-36.75-17.482 0-32.113 12.207-35.835 28.563" fill="#fff"/><path d="m479.652 559.079c-.552 0-1-.447-1-1 0-19.713-16.038-35.75-35.75-35.75-16.803 0-31.138 11.426-34.86 27.784-.122.539-.658.882-1.197.753-.539-.122-.876-.658-.753-1.196 3.931-17.275 19.067-29.341 36.81-29.341 20.815 0 37.75 16.935 37.75 37.75 0 .553-.448 1-1 1z" fill="#111"/><path d="m948.172 425.965c-5.927-15.837-21.817-26.489-39.503-25.032-17.845 1.47-31.87 14.802-34.961 31.607" fill="#fff"/><path d="m873.708 433.54c-.06 0-.121-.005-.182-.017-.543-.1-.903-.621-.803-1.164 3.241-17.618 17.988-30.951 35.862-32.424 17.654-1.454 34.319 9.106 40.522 25.679.194.518-.069 1.094-.586 1.287-.517.192-1.093-.068-1.287-.586-5.891-15.738-21.712-25.775-38.485-24.386-16.976 1.397-30.982 14.06-34.06 30.791-.088.482-.509.819-.982.819z" fill="#111"/><path d="m1006.063 447.079c-1.758-21.345-20.486-37.223-41.831-35.465-12.833 1.057-23.69 8.248-29.926 18.454" fill="#fff"/><path d="m1006.062 448.079c-.515 0-.953-.396-.996-.918-1.709-20.761-19.994-36.268-40.752-34.55-11.98.986-22.879 7.707-29.154 17.979-.288.472-.903.62-1.375.332-.471-.288-.62-.903-.332-1.375 6.607-10.814 18.083-17.892 30.697-18.931 21.858-1.799 41.109 14.521 42.909 36.38.045.551-.364 1.033-.915 1.079-.028.002-.056.003-.083.003z" fill="#111"/><path d="m636.379 421.645c0-15.853-12.851-28.704-28.704-28.704s-28.704 12.851-28.704 28.704c0 2.816.406 5.538 1.162 8.11" fill="#fff"/><path d="m580.132 430.755c-.432 0-.831-.282-.959-.718-.798-2.714-1.203-5.538-1.203-8.393 0-16.379 13.325-29.704 29.704-29.704s29.704 13.325 29.704 29.704c0 .553-.448 1-1 1s-1-.447-1-1c0-15.276-12.428-27.704-27.704-27.704s-27.704 12.428-27.704 27.704c0 2.664.377 5.298 1.122 7.828.156.53-.147 1.086-.677 1.241-.094.028-.189.041-.283.041z" fill="#111"/><path d="m680.585 429.279c-3.7-13.221-16.488-22.248-30.604-20.781-11.248 1.169-20.301 8.685-23.972 18.621" fill="#fff"/><path d="m680.585 430.279c-.438 0-.839-.289-.962-.73-3.645-13.021-16.075-21.471-29.538-20.056-10.582 1.1-19.448 7.986-23.137 17.973-.191.518-.766.782-1.285.592-.518-.191-.783-.767-.591-1.285 3.956-10.706 13.46-18.09 24.806-19.27 14.445-1.494 27.764 7.545 31.671 21.507.149.532-.162 1.084-.693 1.232-.09.025-.181.037-.27.037z" fill="#111"/><path d="m819.458 166.624 32.146 43.643-109.13-25.149-32.145-43.642z" fill="#b0c3ff"/><path d="m851.604 211.267c-.075 0-.15-.008-.225-.025l-109.13-25.148c-.233-.054-.439-.189-.581-.381l-32.145-43.643c-.248-.337-.26-.792-.031-1.142s.651-.519 1.061-.426l109.13 25.148c.233.054.439.189.581.381l32.145 43.643c.248.337.26.792.031 1.142-.188.286-.504.451-.836.451zm-108.544-27.04 106.138 24.459-30.324-41.171-106.138-24.459z" fill="#111"/><path d="m982.603 129.746c-8.303-11.273-22.326-19.843-41.564-24.276-46.305-10.671-92.442 11.414-118.856 56.032l-2.724 5.123 32.145 43.642 2.725-5.123c26.415-44.618 72.551-66.703 118.856-56.032 19.239 4.433 33.261 13.003 41.564 24.276l-32.145-43.642z" fill="#b0c3ff"/><path d="m851.604 211.267c-.316 0-.616-.15-.805-.407l-32.145-43.643c-.228-.31-.258-.723-.078-1.063l2.724-5.123c13.117-22.159 31.237-39.152 52.424-49.183 21.299-10.085 44.654-12.627 67.54-7.354 18.897 4.354 33.471 12.881 42.145 24.657l32.145 43.643c.328.445.232 1.071-.212 1.398-.445.327-1.07.232-1.398-.212l-.026-.035c-8.39-11.368-22.552-19.618-40.958-23.859-45.367-10.454-91.597 11.356-117.771 55.566l-2.702 5.083c-.161.303-.467.502-.81.528-.024.001-.049.002-.073.002zm-30.967-44.729 30.83 41.857 1.979-3.72c13.117-22.159 31.237-39.152 52.424-49.183 21.3-10.085 44.655-12.628 67.54-7.354 12.892 2.971 23.771 7.883 32.139 14.444l-23.749-32.243c-8.387-11.386-22.559-19.649-40.984-23.895-45.369-10.456-91.598 11.355-117.771 55.566l-2.406 4.527z" fill="#111"/><path d="m820.929 423.94 32.145 43.642-106.905-24.636-32.145-43.642z" fill="#b0c3ff"/><path d="m853.074 468.582c-.074 0-.15-.009-.225-.025l-106.905-24.636c-.233-.054-.439-.189-.581-.382l-32.145-43.643c-.248-.337-.26-.792-.031-1.142.23-.351.652-.522 1.061-.426l106.905 24.636c.233.054.439.189.581.382l32.145 43.643c.248.337.26.792.031 1.142-.188.286-.504.451-.836.451zm-106.32-26.527 103.914 23.946-30.324-41.17-103.914-23.946z" fill="#111"/><path d="m1000.743 8.525c115.17 26.54 156.503 109.389 106.035 204.285-32.78 61.637-85.079 97.98-159.992 119.003-70.375 19.272-96.01 36.006-116.98 75.437l-8.876 16.689-106.905-24.636 8.694-17.683c29.728-66.937 71.564-98.797 144.836-119.258 68.76-19.679 94.959-35.784 115.275-73.984 20.322-38.211 4.11-72.331-41.79-82.909-46.305-10.671-92.442 11.414-118.856 56.032l-2.724 5.123-109.13-25.148 2.724-5.123c56.376-101.81 164.067-156.316 287.689-127.828z" fill="#fff"/><path d="m820.929 424.939c-.074 0-.149-.008-.225-.025l-106.905-24.636c-.297-.068-.547-.27-.679-.545-.131-.276-.129-.597.006-.871l8.693-17.683c28.876-65.02 69.666-98.613 145.464-119.779 69.149-19.79 94.869-36.274 114.662-73.491 9.566-17.987 11.133-35.149 4.531-49.63-7.103-15.58-22.893-26.588-45.662-31.834-45.369-10.456-91.598 11.355-117.771 55.566l-2.702 5.083c-.212.399-.662.606-1.107.505l-109.13-25.148c-.303-.07-.556-.277-.686-.56-.129-.283-.119-.61.027-.885l2.725-5.123c59.035-106.612 169.691-155.778 288.797-128.332 29.587 6.818 54.819 17.44 74.995 31.571 19.698 13.796 34.174 30.634 43.024 50.046 16.512 36.215 12.595 79.133-11.326 124.112-31.742 59.684-82.775 97.655-160.605 119.496-69.467 19.023-95.567 35.833-116.367 74.944l-8.876 16.689c-.176.331-.519.53-.883.53zm-105.451-26.327 104.928 24.181 8.516-16.013c21.114-39.701 47.492-56.733 117.599-75.933 77.262-21.682 127.906-59.338 159.374-118.507 23.618-44.409 27.516-86.715 11.272-122.343-17.869-39.194-58.206-67.029-116.649-80.497-118.197-27.238-228.014 21.555-286.59 127.338l-2.104 3.957 107.112 24.684 2.364-4.446c13.117-22.159 31.237-39.152 52.424-49.183 21.299-10.085 44.654-12.627 67.54-7.354 23.064 5.315 39.767 17.018 47.032 32.954 6.87 15.068 5.285 32.842-4.584 51.399-20.102 37.798-46.095 54.503-115.883 74.476-75.152 20.986-115.579 54.267-144.197 118.703l-8.153 16.585z" fill="#111"/><path d="m1138.51 113.35-32.146-43.642c28.106 38.157 29.375 88.646.413 143.102-32.78 61.637-85.079 97.98-159.992 119.003-70.375 19.273-96.01 36.006-116.98 75.437l-8.876 16.69 32.145 43.642 8.876-16.689c20.971-39.432 46.605-56.165 116.98-75.437 74.913-21.023 127.212-57.366 159.992-119.003 28.961-54.456 27.692-104.945-.413-143.103z" fill="url(#a)"/><path d="m853.074 468.582c-.316 0-.616-.15-.805-.407l-32.145-43.643c-.228-.31-.258-.723-.078-1.063l8.876-16.689c21.114-39.701 47.491-56.733 117.599-75.933 77.263-21.682 127.907-59.339 159.373-118.507 28.197-53.02 28.078-103.463-.335-142.039-.328-.445-.233-1.071.212-1.398.443-.328 1.07-.232 1.398.212l32.145 43.642c28.896 39.231 29.07 90.43.491 144.166-31.741 59.684-82.774 97.655-160.604 119.497-69.468 19.022-95.567 35.832-116.368 74.943l-8.876 16.689c-.161.304-.467.503-.81.527-.024.002-.049.003-.073.003zm-30.966-44.729 30.829 41.856 8.13-15.287c21.114-39.702 47.492-56.733 117.599-75.932 77.262-21.683 127.906-59.34 159.373-118.509 28.197-53.019 28.078-103.463-.335-142.04l-19.521-26.501c17.294 36.238 13.791 80.117-10.524 125.838-31.74 59.684-82.773 97.655-160.604 119.496-69.468 19.024-95.568 35.834-116.367 74.944l-8.58 16.134z" fill="#111"/><path d="m620.666 1270.571-115.851-24.452c-31.197-160.147-106.112-272.241-190.933-331.131-37.405-25.976-75.815-41.511-112.615-45.926l117.56 14.105c36.8 4.415 75.209 19.95 112.615 45.926 84.821 58.89 158.027 181.332 189.223 341.479" fill="#b0c3ff"/><path d="m620.666 1271.571c-.069 0-.138-.007-.207-.021l-115.851-24.453c-.393-.083-.698-.393-.775-.787-28.378-145.678-97.821-266.141-190.522-330.501-37.306-25.907-75.043-41.301-112.163-45.754-.548-.066-.939-.563-.874-1.112.065-.548.569-.937 1.112-.874l117.56 14.104c37.448 4.493 75.489 20.003 113.066 46.098 42.803 29.718 82.576 75.742 115.021 133.098 33.824 59.794 59.625 132.069 74.613 209.012.064.329-.041.669-.28.904-.189.186-.442.287-.702.287zm-114.996-26.295 113.725 24.005c-29.755-151.237-100.167-278.024-188.522-339.368-37.306-25.907-75.043-41.301-112.164-45.754l-89.371-10.723c28.333 7.468 56.856 21.105 85.114 40.729 43.886 30.469 83.951 74.696 115.863 127.901 35.052 58.439 60.403 126.802 75.354 203.209z" fill="#111"/><path d="m201.268 869.061c-46.846-5.62-91.154 6.708-127.628 38.488-31.793 27.702-57.606 70.233-72.64 129.104l117.56 14.105c15.033-58.87 40.846-101.401 72.64-129.104 36.474-31.78 80.782-44.108 127.628-38.488z" fill="#fff"/><path d="m118.562 1051.758c-.04 0-.08-.002-.12-.007l-117.561-14.104c-.286-.034-.543-.19-.706-.428-.163-.237-.215-.534-.144-.813 14.394-56.367 38.938-99.974 72.952-129.61 35.724-31.128 80.124-44.519 128.404-38.728l117.56 14.104c.548.066.939.563.874 1.112s-.567.945-1.112.874c-47.704-5.726-91.566 7.503-126.852 38.249-33.701 29.365-58.036 72.631-72.327 128.597-.114.447-.517.753-.968.753zm-116.309-15.961 115.557 13.863c14.423-55.957 38.891-99.271 72.733-128.76 28.935-25.211 63.564-38.788 101.333-39.961l-90.727-10.885c-47.705-5.724-91.566 7.503-126.852 38.249-33.479 29.171-57.715 72.062-72.044 127.493z" fill="#111"/><path d="m1249.817 1102.092-86.135 66.208c-18.384-120.694 7.596-224.963 50.971-306.383 12.966-24.343 28.797-45.91 47.107-64.017l77.248-76.39c-18.311 18.107-34.141 39.674-47.107 64.017-43.375 81.42-60.469 195.871-42.085 316.565" fill="#3658c1"/><path d="m1163.682 1169.3c-.126 0-.253-.023-.373-.072-.328-.132-.563-.428-.615-.777-20.67-135.698 16.367-241.849 51.077-307.003 13.066-24.531 28.976-46.15 47.287-64.259l77.146-76.289c.033-.033.068-.067.102-.101.394-.388 1.026-.386 1.414.008.389.393.385 1.025-.008 1.414-18.166 17.963-33.954 39.421-46.928 63.775-44.53 83.59-59.831 198.747-41.979 315.945.055.36-.09.722-.379.943l-86.135 66.208c-.178.137-.393.207-.609.207zm153.84-425.135-55.058 54.445c-18.168 17.967-33.957 39.424-46.928 63.776-34.425 64.618-71.146 169.734-51.118 304.086l84.321-64.814c-17.776-117.414-2.375-232.778 42.279-316.602 7.843-14.725 16.709-28.397 26.503-40.892z" fill="#111"/><path d="m1504.742 659.725c-65.741-4.44-122.608 19.139-165.732 61.785l-77.248 76.39c43.124-42.645 99.992-66.224 165.732-61.785 58.196 3.927 123.318 29.852 191.073 85.153l77.248-76.39c-67.754-55.301-132.877-81.227-191.073-85.153z" fill="#fff"/><path d="m1618.566 822.268c-.224 0-.447-.074-.632-.226-63.877-52.136-127.973-80.711-190.508-84.93-62.939-4.255-119.98 17.017-164.962 61.498-.394.388-1.026.386-1.414-.008-.389-.393-.385-1.025.008-1.414l77.248-76.39c45.401-44.897 102.976-66.362 166.503-62.072 30.123 2.033 61.172 9.902 92.282 23.392 33.139 14.368 66.567 35.223 99.355 61.985.221.179.354.443.367.727s-.094.56-.296.759l-77.249 76.39c-.193.191-.448.289-.703.289zm-206.806-87.688c5.225 0 10.489.179 15.801.537 30.122 2.033 61.171 9.903 92.282 23.392 32.904 14.267 66.093 34.928 98.658 61.417l75.818-74.975c-63.59-51.688-127.393-80.027-189.646-84.228-62.938-4.256-119.98 17.016-164.962 61.498l-55.503 54.886c37.069-28.021 80.476-42.527 127.551-42.527z" fill="#111"/></svg>